{
.appVersion = "3227";
.formatVersion = 3;
DisplayStrings = (
"‘Yann",
"Tahminopp
PHOTOPAST",
"HILOQOTHIELE
Handboilmohnpq",
I
);
axes = (
{
name = Weight;
tag = wght;
},
{
name = Clean;
tag = CLEA;
},
{
name = Softness;
tag = SOFT;
}
);
classes = (
{
code = "
	C C.ss01 C.ss02 c c.ss01 c.ss02
";
name = ss03_src;
},
{
code = "
	C.alt C.alt.ss01 C.alt.ss02 c.alt c.alt.ss01 c.alt.ss02
";
name = ss03_tgt;
},
{
code = "
	G G.ss01 G.ss02
";
name = ss04_src;
},
{
code = "
	G.alt G.alt.ss01 G.alt.ss02
";
name = ss04_tgt;
},
{
code = "
	u u.ss01 u.ss02
";
name = ss05_src;
},
{
code = "
	u.alt u.alt.ss01 u.alt.ss02
";
name = ss05_tgt;
}
);
date = "2009-09-19 09:46:00 +0000";
familyName = Malerblock;
featurePrefixes = (
{
automatic = 1;
code = "languagesystem DFLT dflt;
";
name = Languagesystems;
}
);
features = (
{
automatic = 1;
code = "feature calt;
feature salt;
feature ss01;
feature ss02;
feature ss03;
feature ss04;
feature ss05;
";
tag = aalt;
},
{
code = "  sub c' [h k] by c.alt;";
tag = calt;
},
{
automatic = 1;
code = "sub A by A.ss01;
sub Adieresis by Adieresis.ss01;
sub B by B.ss01;
sub C.alt by C.alt.ss01;
sub C by C.ss01;
sub D by D.ss01;
sub E by E.ss01;
sub F by F.ss01;
sub G.alt by G.alt.ss01;
sub G by G.ss01;
sub H by H.ss01;
sub I by I.ss01;
sub J by J.ss01;
sub K by K.ss01;
sub L by L.ss01;
sub M by M.ss01;
sub N by N.ss01;
sub O by O.ss01;
sub Odieresis by Odieresis.ss01;
sub P by P.ss01;
sub Q by Q.ss01;
sub R by R.ss01;
sub S by S.ss01;
sub T by T.ss01;
sub U by U.ss01;
sub Udieresis by Udieresis.ss01;
sub V by V.ss01;
sub W by W.ss01;
sub X by X.ss01;
sub Y by Y.ss01;
sub Z by Z.ss01;
sub a by a.ss01;
sub adieresis by adieresis.ss01;
sub b by b.ss01;
sub c.alt by c.alt.ss01;
sub c by c.ss01;
sub d by d.ss01;
sub e by e.ss01;
sub f by f.ss01;
sub g by g.ss01;
sub h by h.ss01;
sub i by i.ss01;
sub ij by ij.ss01;
sub j by j.ss01;
sub k by k.ss01;
sub l by l.ss01;
sub m by m.ss01;
sub n by n.ss01;
sub o by o.ss01;
sub odieresis by odieresis.ss01;

glyphs = (
{
glyphname = A;
kernLeft = A;
kernRight = A;
lastChange = "2023-06-25 14:23:23 +0000";
layers = (
{
anchors = (
{
name = bottom;
pos = (312,0);
},
{
name = measure;
},
{
name = ogonek;
pos = (562,10);
},
{
name = top;
pos = (312,660);
}
);
layerId = master01;
shapes = (
{
closed = 1;
nodes = (
(25,5,o),
(27,0,o),
(31,0,cs),
(124,0,ls),
(126,0,o),
(131,0,o),
(132,1,cs),
(133,2,o),
(138,7,o),
(140,9,c),
(140,9,o),
(141,11,o),
(141,12,cs),
(142,13,o),
(144,18,o),
(144,19,cs),
(145,21,o),
(150,37,o),
(151,39,cs),
(155,50,o),
(159,62,o),
(163,74,cs),
(168,88,o),
(174,102,o),
(179,116,cs),
(180,117,o),
(182,127,o),
(183,128,cs),
(184,131,o),
(187,136,o),
(187,136,c),
(198,137,ls),
(201,137,o),
(242,137,o),
(257,137,cs),
(279,137,o),
(342,137,o),
(348,137,cs),
(354,137,o),
(406,136,o),
(412,136,cs),
(414,136,o),
(424,136,o),
(426,136,c),
(432,132,o),
(431,123,o),
(434,117,cs),
(436,111,o),
(439,106,o),
(441,100,cs),
(441,98,o),
(443,93,o),
(443,91,c),
(444,90,o),
(448,79,o),
(449,78,cs),
(453,67,o),
(456,54,o),
(460,43,c),
(460,42,o),
(464,35,o),
(464,35,c),
(464,34,o),
(465,30,o),
(465,29,cs),
(465,29,o),
(466,27,o),
(466,27,c),
(467,25,o),
(469,20,o),
(469,19,cs),
(470,15,o),
(470,12,o),
(472,9,cs),
(474,6,o),
(479,0,o),
(484,0,cs),
(592,0,l),
(593,0,o),
(596,4,o),
(596,6,cs),
(596,6,o),
(596,6,o),
(596,6,c),
(595,7,o),
(592,14,o),
(592,15,cs),
(592,15,o),
(592,17,o),
(592,17,c),
(591,19,o),
(587,29,o),
(586,31,cs),
(579,52,o),
(572,72,o),
(565,93,cs),
(564,98,o),
(561,102,o),
(559,106,c),
(559,108,o),
(556,118,o),
(555,120,cs),
(553,129,o),
(549,137,o),
(546,145,c),
(546,145,o),
(546,148,o),
(546,148,c),
(545,152,o),
(545,152,o),
(543,155,c),
(543,156,o),
(541,161,o),
(541,162,cs),
(537,172,o),
(534,183,o),
(530,193,c),
(530,193,o),
(527,197,o),
(527,198,cs),
(527,199,o),
(526,206,o),
(526,206,c),
(525,208,o),
(520,222,o),
(519,224,c),
(519,224,o),
(518,228,o),
(518,229,cs),
(517,231,o),
(514,240,o),
(514,241,cs),
(513,243,o),
(509,253,o),
(508,255,cs),
(502,272,o),
(476,349,o),
(470,365,c),
(470,366,o),
(469,367,o),
(469,368,cs),
(468,370,o),
(464,383,o),
(464,384,cs),
(464,384,o),
(462,387,o),
(462,387,c),
(462,389,o),
(458,401,o),
(457,403,c),
(457,404,o),
(456,408,o),
(456,409,cs),
(456,409,o),
(452,416,o),
(452,417,cs),
(451,419,o),
(444,440,o),
(443,442,cs),
(442,446,o),
(441,450,o),
(439,453,c),
(431,483,o),
(420,510,o),
(410,540,cs),
(406,550,o),
(404,560,o),
(400,569,c),
(400,570,o),
(399,573,o),
(399,573,c),
(399,574,o),
(398,578,o),
(398,579,cs),
(398,579,o),
(395,582,o),
(395,583,cs),
(394,587,o),
(394,589,o),
(392,592,c),
(376,641,l),
(376,642,o),
(375,647,o),
(375,648,cs),
(374,650,o),
(370,660,o),
(369,662,cs),
(368,665,o),
(364,666,o),
(361,666,cs),
(272,666,l),
(272,666,o),
(269,664,o),
(268,664,cs),
(267,664,o),
(267,662,o),
(267,662,c),
(267,662,o),
(265,656,o),
(265,656,c),
(259,638,o),
(251,621,o),
(245,603,cs),
(239,587,o),
(234,571,o),
(228,556,cs),
(220,536,o),
(213,516,o),
(205,496,c),
(205,496,o),
(203,493,o),
(203,492,cs),
(203,492,o),
(202,488,o),
(202,487,cs),
(198,477,o),
(193,467,o),
(190,457,cs),
(189,456,o),
(188,450,o),
(187,449,cs),
(184,442,o),
(180,434,o),
(178,426,c),
(178,426,o),
(176,421,o),
(176,421,c),
(176,419,o),
(170,407,o),
(170,406,cs),
(168,401,o),
(166,394,o),
(164,388,cs),
(158,372,o),
(152,356,o),
(147,340,cs),
(144,332,o),
(140,324,o),
(137,317,c),
(137,316,o),
(135,308,o),
(135,307,cs),
(133,302,o),
(130,297,o),
(128,291,cs),
(121,272,o),
(114,253,o),
(108,235,cs),
(105,227,o),
(101,219,o),
(98,212,cs),
(89,189,o),
(82,166,o),
(74,144,cs),
(66,122,o),
(56,100,o),
(48,77,cs),
(47,73,o),
(39,48,o),
(37,44,c),
(37,44,o),
(33,35,o),
(33,35,c),
(33,34,o),
(32,29,o),
(32,28,cs),
(32,27,o),
(31,25,o),
(31,24,cs),
(29,19,o),
(25,13,o),
(25,8,cs)
);
},
{
closed = 1;
nodes = (
(226,241,o),
(227,244,o),
(228,245,cs),
(229,249,o),
(237,274,o),
(238,278,c),
(238,278,o),
(240,282,o),
(240,283,cs),
(241,286,o),
(250,310,o),
(251,313,c),
(251,314,o),
(257,333,o),
(259,340,cs),
(263,354,o),
(268,367,o),
(274,382,cs),
(284,410,o),
(293,442,o),
(307,469,c),
(307,469,o),
(309,471,o),
(309,471,c),
(312,469,o),
(314,463,o),
(315,460,cs),
(317,456,o),
(323,437,o),
(325,433,c),
(325,433,o),
(325,432,o),
(325,432,c),
(325,431,o),
(327,427,o),
(327,426,cs),
(328,425,o),
(331,414,o),
(332,413,cs),
(335,403,o),
(339,394,o),
(342,384,c),
(342,384,o),
(344,380,o),
(344,379,cs),
(346,370,o),
(351,360,o),
(354,351,c),
(354,350,o),
(356,346,o),
(356,345,cs),
(358,340,o),
(363,323,o),
(364,321,c),
(364,320,o),
(368,313,o),
(368,313,c),
(369,310,o),
(377,287,o),
(377,284,c),
(381,272,o),
(386,260,o),
(390,247,c),
(390,246,o),
(391,243,o),
(391,243,c),
(391,243,o),
(391,240,o),
(391,239,cs),
(391,239,o),
(391,237,o),
(391,237,c),
(383,236,l),
(236,236,l),
(228,237,l),
(227,237,o),
(226,239,o),
(226,240,c)
);
}
);
width = 624;
},
{
anchors = (
{
name = bottom;
pos = (312,0);
},
{
name = measure;
},
{
name = ogonek;
pos = (562,10);
},
{
name = top;
pos = (312,660);
}
);
color = 0;
layerId = "7B371D60-13E0-44E7-A998-8DAF0ECD409E";
shapes = (
{
closed = 1;
nodes = (
(25,5,o),
(27,0,o),
(31,0,cs),
(124,0,ls),
(126,0,o),
(131,0,o),
(132,1,cs),
(133,2,o),
(138,7,o),
(140,9,c),
(140,9,o),
(141,11,o),
(141,12,cs),
(142,13,o),
(144,18,o),
(144,19,cs),
(145,21,o),
(150,37,o),
(151,39,cs),
(155,50,o),
(159,62,o),
(163,74,cs),
(168,88,o),
(174,102,o),
(179,116,cs),
(180,117,o),
(182,127,o),
(183,128,cs),
(184,131,o),
(187,136,o),
(187,136,c),
(198,137,ls),
(201,137,o),
(242,137,o),
(257,137,cs),
(279,137,o),
(342,137,o),
(348,137,cs),
(354,137,o),
(406,136,o),
(412,136,cs),
(414,136,o),
(424,136,o),
(426,136,c),
(432,132,o),
(431,123,o),
(434,117,cs),
(436,111,o),
(439,106,o),
(441,100,cs),
(441,98,o),
(443,93,o),
(443,91,c),
(444,90,o),
(448,79,o),
(449,78,cs),
(453,67,o),
(456,54,o),
(460,43,c),
(460,42,o),
(464,35,o),
(464,35,c),
(464,34,o),
(465,30,o),
(465,29,cs),
(465,29,o),
(466,27,o),
(466,27,c),
(467,25,o),
(469,20,o),
(469,19,cs),
(470,15,o),
(470,12,o),
(472,9,cs),
(474,6,o),
(479,0,o),
(484,0,cs),
(592,0,l),
(593,0,o),
(596,4,o),
(596,6,cs),
(596,6,o),
(596,6,o),
(596,6,c),
(595,7,o),
(592,14,o),
(592,15,cs),
(592,15,o),
(592,17,o),
(592,17,c),
(591,19,o),
(587,29,o),
(586,31,cs),
(579,52,o),
(572,72,o),
(565,93,cs),
(564,98,o),
(561,102,o),
(559,106,c),
(559,108,o),
(556,118,o),
(555,120,cs),
(553,129,o),
(549,137,o),
(546,145,c),
(546,145,o),
(546,148,o),
(546,148,c),
(545,152,o),
(545,152,o),
(543,155,c),
(543,156,o),
(541,161,o),
(541,162,cs),
(537,172,o),
(534,183,o),
(530,193,c),
(530,193,o),
(527,197,o),
(527,198,cs),
(527,199,o),
(526,206,o),
(526,206,c),
(525,208,o),
(520,222,o),
(519,224,c),
(519,224,o),
(518,228,o),
(518,229,cs),
(517,231,o),
(514,240,o),
(514,241,cs),
(513,243,o),
(509,253,o),
(508,255,cs),
(502,272,o),
(476,349,o),
(470,365,c),
(470,366,o),
(469,367,o),
(469,368,cs),
(468,370,o),
(464,383,o),
(464,384,cs),
(464,384,o),
(462,387,o),
(462,387,c),
(462,389,o),
(458,401,o),
(457,403,c),
(457,404,o),
(456,408,o),
(456,409,cs),
(456,409,o),
(452,416,o),
(452,417,cs),
(451,419,o),
(444,440,o),
(443,442,cs),
(442,446,o),
(441,450,o),
(439,453,c),
(431,483,o),
(420,510,o),
(410,540,cs),
(406,550,o),
(404,560,o),
(400,569,c),
(400,570,o),
(399,573,o),
(399,573,c),
(399,574,o),
(398,578,o),
(398,579,cs),
(398,579,o),
(395,582,o),
(395,583,cs),
(394,587,o),
(394,589,o),
(392,592,c),
(376,641,l),
(376,642,o),
(375,647,o),
(375,648,cs),
(374,650,o),
(370,660,o),
(369,662,cs),
(368,665,o),
(364,666,o),
(361,666,cs),
(272,666,l),
(272,666,o),
(269,664,o),
(268,664,cs),
(267,664,o),
(267,662,o),
(267,662,c),
(267,662,o),
(265,656,o),
(265,656,c),
(259,638,o),
(251,621,o),
(245,603,cs),
(239,587,o),
(234,571,o),
(228,556,cs),
(220,536,o),
(213,516,o),
(205,496,c),
(205,496,o),
(203,493,o),
(203,492,cs),
(203,492,o),
(202,488,o),
(202,487,cs),
(198,477,o),
(193,467,o),
(190,457,cs),
(189,456,o),
(188,450,o),
(187,449,cs),
(184,442,o),
(180,434,o),
(178,426,c),
(178,426,o),
(176,421,o),
(176,421,c),
(176,419,o),
(170,407,o),
(170,406,cs),
(168,401,o),
(166,394,o),
(164,388,cs),
(158,372,o),
(152,356,o),
(147,340,cs),
(144,332,o),
(140,324,o),
(137,317,c),
(137,316,o),
(135,308,o),
(135,307,cs),
(133,302,o),
(130,297,o),
(128,291,cs),
(121,272,o),
(114,253,o),
(108,235,cs),
(105,227,o),
(101,219,o),
(98,212,cs),
(89,189,o),
(82,166,o),
(74,144,cs),
(66,122,o),
(56,100,o),
(48,77,cs),
(47,73,o),
(39,48,o),
(37,44,c),
(37,44,o),
(33,35,o),
(33,35,c),
(33,34,o),
(32,29,o),
(32,28,cs),
(32,27,o),
(31,25,o),
(31,24,cs),
(29,19,o),
(25,13,o),
(25,8,cs)
);
},
{
closed = 1;
nodes = (
(226,241,o),
(227,244,o),
(228,245,cs),
(229,249,o),
(237,274,o),
(238,278,c),
(238,278,o),
(240,282,o),
(240,283,cs),
(241,286,o),
(250,310,o),
(251,313,c),
(251,314,o),
(257,333,o),
(259,340,cs),
(263,354,o),
(268,367,o),
(274,382,cs),
(284,410,o),
(293,442,o),
(307,469,c),
(307,469,o),
(309,471,o),
(309,471,c),
(312,469,o),
(314,463,o),
(315,460,cs),
(317,456,o),
(323,437,o),
(325,433,c),
(325,433,o),
(325,432,o),
(325,432,c),
(325,431,o),
(327,427,o),
(327,426,cs),
(328,425,o),
(331,414,o),
(332,413,cs),
(335,403,o),
(339,394,o),
(342,384,c),
(342,384,o),
(344,380,o),
(344,379,cs),
(346,370,o),
(351,360,o),
(354,351,c),
(354,350,o),
(356,346,o),
(356,345,cs),
(358,340,o),
(363,323,o),
(364,321,c),
(364,320,o),
(368,313,o),
(368,313,c),
(369,310,o),
(377,287,o),
(377,284,c),
(381,272,o),
(386,260,o),
(390,247,c),
(390,246,o),
(391,243,o),
(391,243,c),
(391,243,o),
(391,240,o),
(391,239,cs),
(391,239,o),
(391,237,o),
(391,237,c),
(383,236,l),
(236,236,l),
(228,237,l),
(227,237,o),
(226,239,o),
(226,240,c)
);
}
);
width = 624;
}
);
unicode = 65;
},
{
glyphname = A.ss02;
kernLeft = A;
kernRight = A;
lastChange = "2023-06-25 14:23:23 +0000";
layers = (
{
anchors = (
{
name = _measure;
}
);
layerId = master01;
shapes = (
{
closed = 1;
nodes = (
(24,-146,o),
(24,-149,o),
(24,-149,c),
(24,-154,o),
(25,-166,o),
(25,-166,c),
(28,-169,l),
(32,-165,l),
(35,-141,l),
(51,-139,l),
(57,-139,o),
(139,-139,o),
(169,-139,cs),
(211,-139,o),
(338,-139,o),
(349,-139,cs),
(358,-139,o),
(428,-141,o),
(437,-141,cs),
(458,-141,o),
(555,-141,o),
(576,-141,cs),
(577,-141,o),
(582,-141,o),
(584,-142,c),
(584,-142,o),
(585,-143,o),
(585,-143,c),
(585,-164,l),
(585,-164,o),
(587,-168,o),
(588,-169,c),
(588,-169,o),
(588,-169,o),
(589,-169,cs),
(591,-169,o),
(595,-166,o),
(595,-164,cs),
(595,-110,ls),
(595,-108,o),
(593,-106,o),
(590,-106,cs),
(588,-106,o),
(585,-110,o),
(585,-112,cs),
(585,-114,o),
(585,-124,o),
(585,-126,cs),
(585,-126,o),
(584,-130,o),
(582,-130,cs),
(570,-131,l),
(569,-131,o),
(548,-131,o),
(541,-131,cs),
(530,-131,o),
(501,-131,o),
(499,-131,cs),
(497,-131,o),
(479,-130,o),
(477,-130,cs),
(477,-130,o),
(477,-130,o),
(477,-130,c),
(477,-130,o),
(476,-130,o),
(476,-130,c),
(473,-130,o),
(462,-131,o),
(460,-131,cs),
(43,-131,l),
(42,-131,o),
(37,-131,o),
(36,-130,cs),
(33,-128,o),
(33,-115,o),
(32,-111,c),
(32,-110,o),
(31,-108,o),
(31,-108,c),
(31,-108,o),
(30,-108,o),
(29,-108,cs),
(28,-108,o),
(27,-108,o),
(25,-110,c),
(25,-114,o),
(24,-137,o),
(24,-142,cs),
(24,-142,o),
(24,-145,o),
(24,-145,c)
);
},
{
closed = 1;
nodes = (
(291,-89,o),
(291,-95,o),
(291,-96,cs),
(291,-97,o),
(292,-99,o),
(292,-100,cs),
(297,-107,o),
(306,-111,o),
(314,-111,cs),
(318,-111,o),
(319,-112,o),
(322,-110,cs),
(323,-109,o),
(327,-105,o),
(329,-104,cs),
(336,-98,o),
(338,-90,o),
(338,-81,cs),
(338,-81,o),
(338,-80,o),
(338,-80,c),
(338,-77,o),
(334,-70,o),
(333,-69,cs),
(332,-68,o),
(327,-66,o),
(326,-65,cs),
(321,-63,o),
(314,-63,o),
(310,-64,c),
(311,-58,o),
(315,-56,o),
(318,-52,c),
(318,-51,o),
(321,-48,o),
(321,-48,c),
(321,-47,o),
(325,-43,o),
(326,-42,c),
(326,-42,o),
(326,-40,o),
(326,-39,cs),
(326,-36,o),
(325,-35,o),
(322,-35,cs),
(315,-35,o),
(292,-67,o),
(291,-77,c),
(291,-78,o),
(291,-84,o),
(291,-87,cs)
);
},
{
closed = 1;
nodes = (
(300,-86,o),
(301,-84,o),
(303,-81,cs),
(305,-79,o),
(309,-75,o),
(310,-75,cs),
(310,-75,o),
(313,-75,o),
(314,-75,cs),
(320,-75,o),
(327,-77,o),
(327,-85,cs),
(327,-85,o),
(327,-85,o),
(327,-85,c),
(327,-87,o),
(326,-92,o),
(326,-92,c),
(326,-92,o),
(323,-95,o),
(322,-96,cs),
(320,-98,o),
(316,-101,o),
(313,-101,cs),
(307,-101,o),
(300,-95,o),
(300,-89,cs)
);
}
);
userData = {
com.typemytype.robofont.mark = (
0.939,
1,
0.6,
1
);
};
width = 624;
},
{
anchors = (
{
name = _measure;
}
);
color = 0;
layerId = "7B371D60-13E0-44E7-A998-8DAF0ECD409E";
shapes = (
{
closed = 1;
nodes = (
(24,-146,o),
(24,-149,o),
(24,-149,c),
(24,-154,o),
(25,-166,o),
(25,-166,c),
(28,-169,l),
(32,-165,l),
(35,-141,l),
(51,-139,l),
(57,-139,o),
(139,-139,o),
(169,-139,cs),
(211,-139,o),
(338,-139,o),
(349,-139,cs),
(358,-139,o),
(428,-141,o),
(437,-141,cs),
(458,-141,o),
(555,-141,o),
(576,-141,cs),
(577,-141,o),
(582,-141,o),
(584,-142,c),
(584,-142,o),
(585,-143,o),
(585,-143,c),
(585,-164,l),
(585,-164,o),
(587,-168,o),
(588,-169,c),
(588,-169,o),
(588,-169,o),
(589,-169,cs),
(591,-169,o),
(595,-166,o),
(595,-164,cs),
(595,-110,ls),
(595,-108,o),
(593,-106,o),
(590,-106,cs),
(588,-106,o),
(585,-110,o),
(585,-112,cs),
(585,-114,o),
(585,-124,o),
(585,-126,cs),
(585,-126,o),
(584,-130,o),
(582,-130,cs),
(570,-131,l),
(569,-131,o),
(548,-131,o),
(541,-131,cs),
(530,-131,o),
(501,-131,o),
(499,-131,cs),
(497,-131,o),
(479,-130,o),
(477,-130,cs),
(477,-130,o),
(477,-130,o),
(477,-130,c),
(477,-130,o),
(476,-130,o),
(476,-130,c),
(473,-130,o),
(462,-131,o),
(460,-131,cs),
(43,-131,l),
(42,-131,o),
(37,-131,o),
(36,-130,cs),
(33,-128,o),
(33,-115,o),
(32,-111,c),
(32,-110,o),
(31,-108,o),
(31,-108,c),
(31,-108,o),
(30,-108,o),
(29,-108,cs),
(28,-108,o),
(27,-108,o),
(25,-110,c),
(25,-114,o),
(24,-137,o),
(24,-142,cs),
(24,-142,o),
(24,-145,o),
(24,-145,c)
);
},
{
closed = 1;
nodes = (
(291,-89,o),
(291,-95,o),
(291,-96,cs),
(291,-97,o),
(292,-99,o),
(292,-100,cs),
(297,-107,o),
(306,-111,o),
(314,-111,cs),
(318,-111,o),
(319,-112,o),
(322,-110,cs),
(323,-109,o),
(327,-105,o),
(329,-104,cs),
(336,-98,o),
(338,-90,o),
(338,-81,cs),
(338,-81,o),
(338,-80,o),
(338,-80,c),
(338,-77,o),
(334,-70,o),
(333,-69,cs),
(332,-68,o),
(327,-66,o),
(326,-65,cs),
(321,-63,o),
(314,-63,o),
(310,-64,c),
(311,-58,o),
(315,-56,o),
(318,-52,c),
(318,-51,o),
(321,-48,o),
(321,-48,c),
(321,-47,o),
(325,-43,o),
(326,-42,c),
(326,-42,o),
(326,-40,o),
(326,-39,cs),
(326,-36,o),
(325,-35,o),
(322,-35,cs),
(315,-35,o),
(292,-67,o),
(291,-77,c),
(291,-78,o),
(291,-84,o),
(291,-87,cs)
);
},
{
closed = 1;
nodes = (
(300,-86,o),
(301,-84,o),
(303,-81,cs),
(305,-79,o),
(309,-75,o),
(310,-75,cs),
(310,-75,o),
(313,-75,o),
(314,-75,cs),
(320,-75,o),
(327,-77,o),
(327,-85,cs),
(327,-85,o),
(327,-85,o),
(327,-85,c),
(327,-87,o),
(326,-92,o),
(326,-92,c),
(326,-92,o),
(323,-95,o),
(322,-96,cs),
(320,-98,o),
(316,-101,o),
(313,-101,cs),
(307,-101,o),
(300,-95,o),
(300,-89,cs)
);
}
);
userData = {
com.typemytype.robofont.mark = (
0.939,
1,
0.6,
1
);
};
width = 624;
}
);
},
{
glyphname = B;
lastChange = "2023-06-25 14:23:23 +0000";
layers = (
{
anchors = (
{
name = bottom;
pos = (272,0);
},
{
name = measure;
},
{
name = top;
pos = (272,660);
}
);
layerId = master01;
shapes = (
{
closed = 1;
nodes = (
(81,18,o),
(82,7,o),
(82,5,cs),
(82,3,o),
(85,1,o),
(87,0,c),
(95,0,o),
(134,0,o),
(143,0,cs),
(158,0,o),
(198,0,o),
(200,0,cs),
(203,0,o),
(221,1,o),
(224,1,cs),
(249,2,o),
(275,1,o),
(300,4,c),
(300,4,o),
(306,5,o),
(306,5,c),
(307,5,o),
(312,5,o),
(313,5,cs),
(314,5,o),
(319,6,o),
(320,6,cs),
(321,6,o),
(323,8,o),
(324,8,cs),
(325,8,o),
(336,11,o),
(337,11,cs),
(338,11,o),
(341,12,o),
(341,12,c),
(342,12,o),
(345,15,o),
(345,15,c),
(346,15,o),
(353,17,o),
(354,17,cs),
(354,17,o),
(360,21,o),
(360,21,c),
(361,22,o),
(368,24,o),
(368,24,c),
(368,24,o),
(370,25,o),
(371,25,cs),
(373,27,o),
(380,30,o),
(381,31,cs),
(399,42,o),
(414,54,o),
(429,70,cs),
(430,71,o),
(438,81,o),
(439,82,c),
(439,82,o),
(441,85,o),
(441,85,c),
(443,88,o),
(453,103,o),
(455,106,cs),
(460,115,o),
(463,125,o),
(467,135,cs),
(469,140,o),
(472,145,o),
(474,151,c),
(474,156,o),
(478,179,o),
(479,183,c),
(479,184,o),
(479,187,o),
(479,187,c),
(479,189,o),
(480,198,o),
(480,199,cs),
(480,229,o),
(474,257,o),
(459,283,cs),
(453,293,o),
(448,303,o),
(440,311,cs),
(439,312,o),
(434,316,o),
(433,317,c),
(433,317,o),
(432,320,o),
(432,320,c),
(432,320,o),
(429,322,o),
(429,322,c),
(429,323,o),
(426,326,o),
(426,326,c),
(421,332,o),
(416,338,o),
(409,343,cs),
(406,345,o),
(390,353,o),
(390,355,cs),
(390,355,o),
(390,356,o),
(390,356,c),
(391,357,o),
(394,361,o),
(395,361,cs),
(396,362,o),
(400,365,o),
(401,365,cs),
(416,379,o),
(431,394,o),
(441,411,c),
(441,412,o),
(443,415,o),
(443,415,c),
(446,423,o),
(451,430,o),
(453,438,cs),
(458,453,o),
(459,469,o),
(459,485,cs),
(459,504,o),
(457,524,o),
(449,542,c),
(449,543,o),
(447,547,o),
(447,548,cs),
(444,555,o),
(443,559,o),
(440,565,cs),
(439,567,o),
(426,586,o),
(425,588,c),
(425,589,o),
(423,593,o),
(422,594,cs),
(411,608,o),
(397,620,o),
(382,631,c),
(382,631,o),
(381,633,o),
(381,633,c),
(380,633,o),
(373,636,o),
(372,637,cs),
(369,639,o),
(364,643,o),
(360,645,cs),
(356,646,o),
(336,654,o),
(332,656,c),
(332,656,o),
(331,656,o),
(331,656,c),
(329,656,o),
(319,659,o),
(317,660,c),
(317,660,o),
(316,660,o),
(316,660,c),
(314,660,o),
(308,661,o),
(308,661,c),
(308,661,o),
(305,662,o),
(305,662,c),
(304,662,o),
(294,664,o),
(293,664,cs),
(292,664,o),
(287,665,o),
(286,665,cs),
(286,665,o),
(285,665,o),
(285,665,c),
(285,665,o),
(283,665,o),
(283,665,c),
(282,665,o),
(275,664,o),
(274,664,cs),
(267,664,o),
(238,664,o),
(231,664,cs),
(219,664,o),
(190,664,o),
(188,664,cs),
(184,664,o),
(159,665,o),
(155,665,cs),
(155,665,o),
(151,665,o),
(149,665,cs),
(148,665,o),
(144,665,o),
(143,665,cs),
(136,665,o),
(105,664,o),
(99,664,cs),
(97,664,o),
(91,662,o),
(89,661,cs),
(88,660,o),
(84,658,o),
(84,658,c),
(83,658,o),
(82,654,o),
(82,653,cs),
(82,640,o),
(82,579,o),
(82,567,cs),
(82,565,o),
(81,550,o),
(81,548,cs),
(81,547,o),
(82,539,o),
(82,538,cs),
(82,538,o),
(82,537,o),
(82,537,c),
(82,536,o),
(82,534,o),
(82,534,c),
(82,523,o),
(81,428,o),
(81,417,cs),
(81,409,o),
(81,270,o),
(81,218,cs),
(81,189,o),
(81,50,o),
(81,20,cs)
);
},
{
closed = 1;
nodes = (
(196,303,l),
(263,303,ls),
(265,303,o),
(277,301,o),
(281,301,cs),
(282,301,o),
(289,299,o),
(290,298,cs),
(296,296,o),
(311,289,o),
(313,289,c),
(323,283,o),
(333,276,o),
(340,267,cs),
(341,266,o),
(348,256,o),
(348,255,cs),
(359,240,o),
(363,222,o),
(363,204,cs),
(363,201,o),
(363,193,o),
(363,193,c),
(363,192,o),
(362,187,o),
(362,185,cs),
(362,184,o),
(360,180,o),
(360,179,cs),
(360,179,o),
(360,178,o),
(360,178,c),
(360,174,o),
(355,160,o),
(354,156,c),
(354,156,o),
(352,154,o),
(352,154,c),
(337,127,o),
(312,107,o),
(282,101,c),
(276,101,o),
(246,101,o),
(240,101,cs),
(239,101,o),
(229,100,o),
(228,100,cs),
(225,100,o),
(204,101,o),
(201,101,cs),
(198,101,o),
(196,100,o),
(194,102,c),
(194,103,o),
(193,106,o),
(193,106,c),
(193,301,l)
);
},
{
closed = 1;
nodes = (
(193,448,o),
(193,467,o),
(193,468,cs),
(193,469,o),
(194,479,o),
(194,480,cs),
(194,484,o),
(194,515,o),
(194,519,cs),
(194,521,o),
(196,540,o),
(196,542,cs),
(196,544,o),
(196,553,o),
(196,554,cs),
(196,556,o),
(197,560,o),
(197,561,cs),
(198,562,o),
(199,564,o),
(200,564,c),
(282,564,l),
(283,564,o),
(287,563,o),
(289,562,c),
(290,562,o),
(294,560,o),
(294,560,c),
(295,560,o),
(298,558,o),
(298,558,c),
(306,555,o),
(313,550,o),
(320,544,cs),
(323,541,o),
(331,532,o),
(332,531,c),
(333,531,o),
(335,524,o),
(336,523,c),
(337,523,o),
(341,516,o),
(341,515,cs),
(342,514,o),
(344,503,o),
(344,502,cs),
(344,501,o),
(345,498,o),
(345,498,c),
(345,498,o),
(345,493,o),
(345,491,cs),
(345,479,o),
(345,465,o),
(340,455,cs),
(333,438,o),
(322,428,o),
(309,415,cs),
(300,406,o),
(290,407,o),
(278,402,c),
(203,402,l),
(194,403,l),
(194,403,o),
(193,412,o),
(193,415,cs),
(193,416,o),
(193,435,o),
(193,442,cs)
);
}
);
width = 543;
},
{
anchors = (
{
name = bottom;
pos = (272,0);
},
{
name = measure;
},
{
name = top;
pos = (272,660);
}
);
color = 0;
layerId = "7B371D60-13E0-44E7-A998-8DAF0ECD409E";
shapes = (
{
closed = 1;
nodes = (
(81,18,o),
(82,7,o),
(82,5,cs),
(82,3,o),
(85,1,o),
(87,0,c),
(95,0,o),
(134,0,o),
(143,0,cs),
(158,0,o),
(198,0,o),
(200,0,cs),
(203,0,o),
(221,1,o),
(224,1,cs),
(249,2,o),
(275,1,o),
(300,4,c),
(300,4,o),
(306,5,o),
(306,5,c),
(307,5,o),
(312,5,o),
(313,5,cs),
(314,5,o),
(319,6,o),
(320,6,cs),
(321,6,o),
(323,8,o),
(324,8,cs),
(325,8,o),
(336,11,o),
(337,11,cs),
(338,11,o),
(341,12,o),
(341,12,c),
(342,12,o),
(345,15,o),
(345,15,c),
(346,15,o),
(353,17,o),
(354,17,cs),
(354,17,o),
(360,21,o),
(360,21,c),
(361,22,o),
(368,24,o),
(368,24,c),
(368,24,o),
(370,25,o),
(371,25,cs),
(373,27,o),
(380,30,o),
(381,31,cs),
(399,42,o),
(414,54,o),
(429,70,cs),
(430,71,o),
(438,81,o),
(439,82,c),
(439,82,o),
(441,85,o),
(441,85,c),
(443,88,o),
(453,103,o),
(455,106,cs),
(460,115,o),
(463,125,o),
(467,135,cs),
(469,140,o),
(472,145,o),
(474,151,c),
(474,156,o),
(478,179,o),
(479,183,c),
(479,184,o),
(479,187,o),
(479,187,c),
(479,189,o),
(480,198,o),
(480,199,cs),
(480,229,o),
(474,257,o),
(459,283,cs),
(453,293,o),
(448,303,o),
(440,311,cs),
(439,312,o),
(434,316,o),
(433,317,c),
(433,317,o),
(432,320,o),
(432,320,c),
(432,320,o),
(429,322,o),
(429,322,c),
(429,323,o),
(426,326,o),
(426,326,c),
(421,332,o),
(416,338,o),
(409,343,cs),
(406,345,o),
(390,353,o),
(390,355,cs),
(390,355,o),
(390,356,o),
(390,356,c),
(391,357,o),
(394,361,o),
(395,361,cs),
(396,362,o),
(400,365,o),
(401,365,cs),
(416,379,o),
(431,394,o),
(441,411,c),
(441,412,o),
(443,415,o),
(443,415,c),
(446,423,o),
(451,430,o),
(453,438,cs),
(458,453,o),
(459,469,o),
(459,485,cs),
(459,504,o),
(457,524,o),
(449,542,c),
(449,543,o),
(447,547,o),
(447,548,cs),
(444,555,o),
(443,559,o),
(440,565,cs),
(439,567,o),
(426,586,o),
(425,588,c),
(425,589,o),
(423,593,o),
(422,594,cs),
(411,608,o),
(397,620,o),
(382,631,c),
(382,631,o),
(381,633,o),
(381,633,c),
(380,633,o),
(373,636,o),
(372,637,cs),
(369,639,o),
(364,643,o),
(360,645,cs),
(356,646,o),
(336,654,o),
(332,656,c),
(332,656,o),
(331,656,o),
(331,656,c),
(329,656,o),
(319,659,o),
(317,660,c),
(317,660,o),
(316,660,o),
(316,660,c),
(314,660,o),
(308,661,o),
(308,661,c),
(308,661,o),
(305,662,o),
(305,662,c),
(304,662,o),
(294,664,o),
(293,664,cs),
(292,664,o),
(287,665,o),
(286,665,cs),
(286,665,o),
(285,665,o),
(285,665,c),
(285,665,o),
(283,665,o),
(283,665,c),
(282,665,o),
(275,664,o),
(274,664,cs),
(267,664,o),
(238,664,o),
(231,664,cs),
(219,664,o),
(190,664,o),
(188,664,cs),
(184,664,o),
(159,665,o),
(155,665,cs),
(155,665,o),
(151,665,o),
(149,665,cs),
(148,665,o),
(144,665,o),
(143,665,cs),
(136,665,o),
(105,664,o),
(99,664,cs),
(97,664,o),
(91,662,o),
(89,661,cs),
(88,660,o),
(84,658,o),
(84,658,c),
(83,658,o),
(82,654,o),
(82,653,cs),
(82,640,o),
(82,579,o),
(82,567,cs),
(82,565,o),
(81,550,o),
(81,548,cs),
(81,547,o),
(82,539,o),
(82,538,cs),
(82,538,o),
(82,537,o),
(82,537,c),
(82,536,o),
(82,534,o),
(82,534,c),
(82,523,o),
(81,428,o),
(81,417,cs),
(81,409,o),
(81,270,o),
(81,218,cs),
(81,189,o),
(81,50,o),
(81,20,cs)
);
},
{
closed = 1;
nodes = (
(196,303,l),
(263,303,ls),
(265,303,o),
(277,301,o),
(281,301,cs),
(282,301,o),
(289,299,o),
(290,298,cs),
(296,296,o),
(311,289,o),
(313,289,c),
(323,283,o),
(333,276,o),
(340,267,cs),
(341,266,o),
(348,256,o),
(348,255,cs),
(359,240,o),
(363,222,o),
(363,204,cs),
(363,201,o),
(363,193,o),
(363,193,c),
(363,192,o),
(362,187,o),
(362,185,cs),
(362,184,o),
(360,180,o),
(360,179,cs),
(360,179,o),
(360,178,o),
(360,178,c),
(360,174,o),
(355,160,o),
(354,156,c),
(354,156,o),
(352,154,o),
(352,154,c),
(337,127,o),
(312,107,o),
(282,101,c),
(276,101,o),
(246,101,o),
(240,101,cs),
(239,101,o),
(229,100,o),
(228,100,cs),
(225,100,o),
(204,101,o),
(201,101,cs),
(198,101,o),
(196,100,o),
(194,102,c),
(194,103,o),
(193,106,o),
(193,106,c),
(193,301,l)
);
},
{
closed = 1;
nodes = (
(193,448,o),
(193,467,o),
(193,468,cs),
(193,469,o),
(194,479,o),
(194,480,cs),
(194,484,o),
(194,515,o),
(194,519,cs),
(194,521,o),
(196,540,o),
(196,542,cs),
(196,544,o),
(196,553,o),
(196,554,cs),
(196,556,o),
(197,560,o),
(197,561,cs),
(198,562,o),
(199,564,o),
(200,564,c),
(282,564,l),
(283,564,o),
(287,563,o),
(289,562,c),
(290,562,o),
(294,560,o),
(294,560,c),
(295,560,o),
(298,558,o),
(298,558,c),
(306,555,o),
(313,550,o),
(320,544,cs),
(323,541,o),
(331,532,o),
(332,531,c),
(333,531,o),
(335,524,o),
(336,523,c),
(337,523,o),
(341,516,o),
(341,515,cs),
(342,514,o),
(344,503,o),
(344,502,cs),
(344,501,o),
(345,498,o),
(345,498,c),
(345,498,o),
(345,493,o),
(345,491,cs),
(345,479,o),
(345,465,o),
(340,455,cs),
(333,438,o),
(322,428,o),
(309,415,cs),
(300,406,o),
(290,407,o),
(278,402,c),
(203,402,l),
(194,403,l),
(194,403,o),
(193,412,o),
(193,415,cs),
(193,416,o),
(193,435,o),
(193,442,cs)
);
}
);
width = 543;
}
);
unicode = 66;
},
{
glyphname = B.ss02;
lastChange = "2023-06-25 14:23:23 +0000";
layers = (
{
anchors = (
{
name = _measure;
}
);
layerId = master01;
shapes = (
{
closed = 1;
nodes = (
(466,-143,o),
(468,-145,o),
(468,-145,c),
(469,-145,o),
(470,-146,o),
(470,-146,c),
(470,-168,l),
(470,-168,o),
(473,-170,o),
(474,-170,cs),
(474,-170,o),
(474,-170,o),
(475,-170,cs),
(477,-170,o),
(478,-168,o),
(479,-166,c),
(478,-148,o),
(480,-133,o),
(480,-114,cs),
(480,-110,o),
(479,-107,o),
(475,-107,cs),
(474,-107,o),
(474,-107,o),
(474,-107,c),
(473,-108,o),
(470,-109,o),
(470,-110,c),
(470,-127,l),
(470,-128,o),
(468,-131,o),
(467,-131,cs),
(463,-132,o),
(445,-133,o),
(441,-133,cs),
(430,-133,o),
(379,-133,o),
(367,-133,c),
(363,-135,o),
(359,-134,o),
(355,-134,cs),
(353,-134,o),
(348,-134,o),
(348,-134,c),
(348,-134,o),
(342,-133,o),
(341,-133,cs),
(341,-133,o),
(331,-133,o),
(328,-133,cs),
(323,-133,o),
(314,-132,o),
(308,-134,c),
(305,-134,o),
(291,-134,o),
(287,-134,cs),
(275,-134,o),
(264,-135,o),
(251,-133,c),
(237,-133,o),
(172,-133,o),
(158,-133,cs),
(155,-133,o),
(129,-131,o),
(126,-131,cs),
(122,-131,o),
(101,-131,o),
(97,-131,cs),
(97,-131,o),
(93,-130,o),
(92,-130,cs),
(92,-130,o),
(91,-128,o),
(91,-128,c),
(91,-126,o),
(89,-112,o),
(88,-110,cs),
(87,-108,o),
(86,-106,o),
(83,-106,cs),
(82,-106,o),
(81,-106,o),
(81,-107,cs),
(80,-108,o),
(80,-114,o),
(80,-115,c),
(80,-155,l),
(79,-155,o),
(78,-157,o),
(78,-158,cs),
(78,-160,o),
(80,-164,o),
(81,-165,c),
(82,-165,o),
(86,-164,o),
(87,-164,c),
(87,-163,o),
(89,-162,o),
(89,-161,c),
(89,-145,l),
(92,-142,l),
(356,-142,l),
(360,-143,o),
(376,-143,o),
(379,-143,cs),
(381,-143,o),
(390,-142,o),
(391,-142,cs),
(392,-142,o),
(409,-142,o),
(415,-142,cs),
(422,-142,o),
(439,-142,o),
(440,-142,cs),
(444,-142,o),
(461,-143,o),
(466,-143,c)
);
},
{
closed = 1;
nodes = (
(282,-96,o),
(282,-104,o),
(282,-106,cs),
(282,-108,o),
(283,-111,o),
(286,-111,cs),
(294,-111,o),
(292,-102,o),
(293,-97,cs),
(294,-90,o),
(306,-91,o),
(306,-85,cs),
(306,-77,o),
(294,-83,o),
(293,-79,cs),
(291,-68,o),
(291,-56,o),
(292,-45,c),
(290,-43,o),
(290,-42,o),
(287,-42,cs),
(287,-42,o),
(286,-42,o),
(286,-42,c),
(279,-48,o),
(273,-54,o),
(269,-62,c),
(269,-62,o),
(267,-65,o),
(267,-65,c),
(267,-66,o),
(258,-73,o),
(258,-75,cs),
(258,-75,o),
(254,-79,o),
(254,-81,cs),
(253,-83,o),
(251,-87,o),
(251,-87,c),
(251,-87,o),
(252,-90,o),
(252,-91,cs),
(254,-93,o),
(258,-93,o),
(259,-93,cs),
(260,-93,o),
(265,-92,o),
(266,-92,cs),
(266,-92,o),
(267,-92,o),
(267,-92,c),
(267,-92,o),
(269,-92,o),
(269,-92,c),
(272,-92,o),
(281,-93,o),
(281,-93,c),
(282,-95,l)
);
},
{
closed = 1;
nodes = (
(267,-81,o),
(267,-80,o),
(267,-80,c),
(268,-78,o),
(271,-72,o),
(271,-72,c),
(273,-69,o),
(279,-64,o),
(279,-64,c),
(281,-64,l),
(281,-64,o),
(282,-71,o),
(282,-75,cs),
(282,-81,o),
(275,-83,o),
(271,-83,cs),
(269,-83,o),
(267,-83,o),
(267,-81,c)
);
},
{
closed = 1;
nodes = (
(272,185,o),
(273,180,o),
(274,179,c),
(274,179,o),
(275,177,o),
(275,177,c),
(276,176,o),
(279,174,o),
(279,174,c),
(279,174,o),
(281,176,o),
(282,177,cs),
(285,183,o),
(284,191,o),
(287,197,cs),
(290,201,o),
(300,197,o),
(300,204,cs),
(300,206,o),
(298,207,o),
(296,208,c),
(295,208,o),
(288,209,o),
(287,209,cs),
(283,210,o),
(283,224,o),
(276,224,cs),
(274,224,o),
(272,220,o),
(271,218,c),
(270,222,o),
(267,224,o),
(263,225,c),
(259,223,o),
(261,208,o),
(256,208,cs),
(244,208,l),
(244,208,o),
(241,205,o),
(240,204,c),
(240,204,o),
(240,203,o),
(240,203,c),
(240,201,o),
(244,199,o),
(246,199,cs),
(246,199,o),
(250,199,o),
(251,199,cs),
(252,199,o),
(257,198,o),
(258,198,cs),
(262,196,o),
(258,178,o),
(265,178,cs),
(269,178,o),
(269,186,o),
(271,186,cs),
(271,186,o),
(271,186,o),
(271,186,c)
);
},
{
closed = 1;
nodes = (
(263,476,o),
(260,460,o),
(266,460,cs),
(274,460,o),
(269,475,o),
(273,475,cs),
(273,475,o),
(274,475,o),
(274,475,c),
(275,471,o),
(276,464,o),
(281,464,cs),
(282,464,o),
(283,464,o),
(283,465,cs),
(283,466,o),
(285,472,o),
(285,473,cs),
(285,475,o),
(283,478,o),
(286,479,cs),
(290,480,o),
(301,479,o),
(301,485,cs),
(301,489,o),
(291,489,o),
(289,490,cs),
(284,492,o),
(285,502,o),
(279,502,cs),
(279,502,o),
(278,502,o),
(278,502,c),
(277,500,o),
(275,495,o),
(274,494,c),
(274,494,o),
(274,492,o),
(274,492,c),
(274,492,o),
(273,491,o),
(273,491,c),
(271,496,o),
(273,506,o),
(265,506,cs),
(259,506,o),
(265,493,o),
(258,490,cs),
(256,489,o),
(250,486,o),
(248,486,c),
(248,485,o),
(250,482,o),
(251,482,cs),
(252,481,o),
(258,480,o),
(259,480,c)
);
}
);
userData = {
com.typemytype.robofont.mark = (
0.939,
1,
0.6,
1
);
};
width = 543;
},
{
anchors = (
{
name = _measure;
}
);
color = 0;
layerId = "7B371D60-13E0-44E7-A998-8DAF0ECD409E";
shapes = (
{
closed = 1;
nodes = (
(466,-143,o),
(468,-145,o),
(468,-145,c),
(469,-145,o),
(470,-146,o),
(470,-146,c),
(470,-168,l),
(470,-168,o),
(473,-170,o),
(474,-170,cs),
(474,-170,o),
(474,-170,o),
(475,-170,cs),
(477,-170,o),
(478,-168,o),
(479,-166,c),
(478,-148,o),
(480,-133,o),
(480,-114,cs),
(480,-110,o),
(479,-107,o),
(475,-107,cs),
(474,-107,o),
(474,-107,o),
(474,-107,c),
(473,-108,o),
(470,-109,o),
(470,-110,c),
(470,-127,l),
(470,-128,o),
(468,-131,o),
(467,-131,cs),
(463,-132,o),
(445,-133,o),
(441,-133,cs),
(430,-133,o),
(379,-133,o),
(367,-133,c),
(363,-135,o),
(359,-134,o),
(355,-134,cs),
(353,-134,o),
(348,-134,o),
(348,-134,c),
(348,-134,o),
(342,-133,o),
(341,-133,cs),
(341,-133,o),
(331,-133,o),
(328,-133,cs),
(323,-133,o),
(314,-132,o),
(308,-134,c),
(305,-134,o),
(291,-134,o),
(287,-134,cs),
(275,-134,o),
(264,-135,o),
(251,-133,c),
(237,-133,o),
(172,-133,o),
(158,-133,cs),
(155,-133,o),
(129,-131,o),
(126,-131,cs),
(122,-131,o),
(101,-131,o),
(97,-131,cs),
(97,-131,o),
(93,-130,o),
(92,-130,cs),
(92,-130,o),
(91,-128,o),
(91,-128,c),
(91,-126,o),
(89,-112,o),
(88,-110,cs),
(87,-108,o),
(86,-106,o),
(83,-106,cs),
(82,-106,o),
(81,-106,o),
(81,-107,cs),
(80,-108,o),
(80,-114,o),
(80,-115,c),
(80,-155,l),
(79,-155,o),
(78,-157,o),
(78,-158,cs),
(78,-160,o),
(80,-164,o),
(81,-165,c),
(82,-165,o),
(86,-164,o),
(87,-164,c),
(87,-163,o),
(89,-162,o),
(89,-161,c),
(89,-145,l),
(92,-142,l),
(356,-142,l),
(360,-143,o),
(376,-143,o),
(379,-143,cs),
(381,-143,o),
(390,-142,o),
(391,-142,cs),
(392,-142,o),
(409,-142,o),
(415,-142,cs),
(422,-142,o),
(439,-142,o),
(440,-142,cs),
(444,-142,o),
(461,-143,o),
(466,-143,c)
);
},
{
closed = 1;
nodes = (
(282,-96,o),
(282,-104,o),
(282,-106,cs),
(282,-108,o),
(283,-111,o),
(286,-111,cs),
(294,-111,o),
(292,-102,o),
(293,-97,cs),
(294,-90,o),
(306,-91,o),
(306,-85,cs),
(306,-77,o),
(294,-83,o),
(293,-79,cs),
(291,-68,o),
(291,-56,o),
(292,-45,c),
(290,-43,o),
(290,-42,o),
(287,-42,cs),
(287,-42,o),
(286,-42,o),
(286,-42,c),
(279,-48,o),
(273,-54,o),
(269,-62,c),
(269,-62,o),
(267,-65,o),
(267,-65,c),
(267,-66,o),
(258,-73,o),
(258,-75,cs),
(258,-75,o),
(254,-79,o),
(254,-81,cs),
(253,-83,o),
(251,-87,o),
(251,-87,c),
(251,-87,o),
(252,-90,o),
(252,-91,cs),
(254,-93,o),
(258,-93,o),
(259,-93,cs),
(260,-93,o),
(265,-92,o),
(266,-92,cs),
(266,-92,o),
(267,-92,o),
(267,-92,c),
(267,-92,o),
(269,-92,o),
(269,-92,c),
(272,-92,o),
(281,-93,o),
(281,-93,c),
(282,-95,l)
);
},
{
closed = 1;
nodes = (
(267,-81,o),
(267,-80,o),
(267,-80,c),
(268,-78,o),
(271,-72,o),
(271,-72,c),
(273,-69,o),
(279,-64,o),
(279,-64,c),
(281,-64,l),
(281,-64,o),
(282,-71,o),
(282,-75,cs),
(282,-81,o),
(275,-83,o),
(271,-83,cs),
(269,-83,o),
(267,-83,o),
(267,-81,c)
);
},
{
closed = 1;
nodes = (
(272,185,o),
(273,180,o),
(274,179,c),
(274,179,o),
(275,177,o),
(275,177,c),
(276,176,o),
(279,174,o),
(279,174,c),
(279,174,o),
(281,176,o),
(282,177,cs),
(285,183,o),
(284,191,o),
(287,197,cs),
(290,201,o),
(300,197,o),
(300,204,cs),
(300,206,o),
(298,207,o),
(296,208,c),
(295,208,o),
(288,209,o),
(287,209,cs),
(283,210,o),
(283,224,o),
(276,224,cs),
(274,224,o),
(272,220,o),
(271,218,c),
(270,222,o),
(267,224,o),
(263,225,c),
(259,223,o),
(261,208,o),
(256,208,cs),
(244,208,l),
(244,208,o),
(241,205,o),
(240,204,c),
(240,204,o),
(240,203,o),
(240,203,c),
(240,201,o),
(244,199,o),
(246,199,cs),
(246,199,o),
(250,199,o),
(251,199,cs),
(252,199,o),
(257,198,o),
(258,198,cs),
(262,196,o),
(258,178,o),
(265,178,cs),
(269,178,o),
(269,186,o),
(271,186,cs),
(271,186,o),
(271,186,o),
(271,186,c)
);
},
{
closed = 1;
nodes = (
(263,476,o),
(260,460,o),
(266,460,cs),
(274,460,o),
(269,475,o),
(273,475,cs),
(273,475,o),
(274,475,o),
(274,475,c),
(275,471,o),
(276,464,o),
(281,464,cs),
(282,464,o),
(283,464,o),
(283,465,cs),
(283,466,o),
(285,472,o),
(285,473,cs),
(285,475,o),
(283,478,o),
(286,479,cs),
(290,480,o),
(301,479,o),
(301,485,cs),
(301,489,o),
(291,489,o),
(289,490,cs),
(284,492,o),
(285,502,o),
(279,502,cs),
(279,502,o),
(278,502,o),
(278,502,c),
(277,500,o),
(275,495,o),
(274,494,c),
(274,494,o),
(274,492,o),
(274,492,c),
(274,492,o),
(273,491,o),
(273,491,c),
(271,496,o),
(273,506,o),
(265,506,cs),
(259,506,o),
(265,493,o),
(258,490,cs),
(256,489,o),
(250,486,o),
(248,486,c),
(248,485,o),
(250,482,o),
(251,482,cs),
(252,481,o),
(258,480,o),
(259,480,c)
);
}
);
userData = {
com.typemytype.robofont.mark = (
0.939,
1,
0.6,
1
);
};
width = 543;
}
);
},
{
glyphname = C;
kernLeft = O;
lastChange = "2023-06-25 14:23:23 +0000";
layers = (
{
anchors = (
{
name = bottom;
pos = (342,0);
},
{
name = measure;
},
{
name = top;
pos = (342,660);
}
);
layerId = master01;
shapes = (
{
closed = 1;
nodes = (
(42,332,o),
(42,331,o),
(42,331,c),
(42,331,o),
(43,328,o),
(43,327,cs),
(43,326,o),
(43,318,o),
(43,317,cs),
(44,304,o),
(44,290,o),
(46,277,c),
(46,277,o),
(47,271,o),
(47,271,c),
(48,261,o),
(50,248,o),
(52,238,c),
(52,237,o),
(56,227,o),
(56,226,cs),
(56,225,o),
(58,219,o),
(58,218,cs),
(62,202,o),
(70,188,o),
(75,173,c),
(75,173,o),
(77,170,o),
(77,169,cs),
(80,162,o),
(85,155,o),
(89,148,cs),
(91,144,o),
(90,144,o),
(92,141,c),
(92,140,o),
(99,132,o),
(100,130,c),
(100,130,o),
(102,126,o),
(102,125,cs),
(103,124,o),
(106,119,o),
(106,118,cs),
(107,117,o),
(112,111,o),
(113,110,cs),
(115,107,o),
(117,105,o),
(119,102,c),
(119,101,o),
(126,95,o),
(127,94,c),
(127,93,o),
(129,90,o),
(129,90,c),
(139,79,o),
(150,68,o),
(162,59,c),
(163,57,o),
(174,49,o),
(175,48,c),
(175,48,o),
(178,45,o),
(178,45,c),
(179,45,o),
(190,38,o),
(191,37,cs),
(204,30,o),
(215,22,o),
(228,16,cs),
(239,11,o),
(249,7,o),
(260,2,cs),
(265,0,o),
(270,-2,o),
(275,-3,cs),
(278,-4,o),
(303,-11,o),
(306,-11,cs),
(307,-11,o),
(309,-13,o),
(310,-13,cs),
(334,-17,o),
(359,-20,o),
(383,-20,cs),
(396,-20,o),
(408,-17,o),
(421,-15,cs),
(435,-13,o),
(448,-11,o),
(462,-7,c),
(463,-7,o),
(469,-6,o),
(469,-6,c),
(470,-6,o),
(474,-3,o),
(475,-3,cs),
(476,-3,o),
(487,0,o),
(488,1,cs),
(493,3,o),
(514,11,o),
(519,13,cs),
(520,14,o),
(523,15,o),
(523,16,c),
(526,17,o),
(549,29,o),
(552,30,c),
(552,30,o),
(556,34,o),
(557,34,cs),
(571,45,o),
(586,55,o),
(599,67,cs),
(605,73,o),
(623,90,o),
(624,92,cs),
(626,95,o),
(634,106,o),
(635,109,c),
(635,109,o),
(635,110,o),
(635,110,c),
(635,112,o),
(634,113,o),
(632,115,cs),
(626,122,o),
(618,130,o),
(611,136,c),
(610,136,o),
(607,138,o),
(607,138,c),
(605,140,o),
(595,151,o),
(593,152,cs),
(587,157,o),
(581,163,o),
(574,168,c),
(572,171,o),
(560,183,o),
(557,186,cs),
(556,187,o),
(554,187,o),
(552,187,cs),
(545,187,o),
(539,178,o),
(537,172,c),
(533,167,o),
(512,146,o),
(507,142,c),
(506,142,o),
(494,132,o),
(489,129,c),
(489,128,o),
(486,126,o),
(485,126,cs),
(469,117,o),
(452,110,o),
(436,103,c),
(429,101,o),
(423,101,o),
(417,98,c),
(410,97,o),
(380,94,o),
(373,94,cs),
(371,94,o),
(355,95,o),
(349,95,cs),
(349,95,o),
(344,97,o),
(344,97,c),
(342,97,o),
(327,99,o),
(325,99,cs),
(315,101,o),
(307,107,o),
(298,109,c),
(272,121,o),
(247,134,o),
(228,156,cs),
(222,162,o),
(219,169,o),
(214,175,c),
(214,176,o),
(207,184,o),
(206,186,cs),
(197,201,o),
(189,219,o),
(185,237,c),
(185,238,o),
(183,244,o),
(183,245,cs),
(182,251,o),
(179,256,o),
(178,263,c),
(178,263,o),
(178,266,o),
(178,267,cs),
(178,268,o),
(175,281,o),
(175,283,cs),
(175,285,o),
(172,304,o),
(172,306,cs),
(172,306,o),
(171,313,o),
(171,314,cs),
(171,314,o),
(171,319,o),
(171,321,cs),
(171,323,o),
(171,329,o),
(171,330,cs),
(171,335,o),
(172,358,o),
(172,362,c),
(173,363,o),
(174,367,o),
(174,368,cs),
(174,369,o),
(174,383,o),
(174,384,cs),
(174,385,o),
(177,393,o),
(177,393,c),
(177,396,o),
(181,415,o),
(182,418,cs),
(183,424,o),
(187,429,o),
(189,434,cs),
(192,443,o),
(196,451,o),
(199,460,c),
(199,460,o),
(201,462,o),
(201,462,c),
(213,481,o),
(225,501,o),
(243,516,cs),
(254,526,o),
(267,534,o),
(279,542,c),
(279,542,o),
(281,543,o),
(282,543,cs),
(283,544,o),
(293,548,o),
(294,549,cs),
(307,554,o),
(320,558,o),
(333,561,cs),
(335,561,o),
(354,566,o),
(356,566,cs),
(357,566,o),
(368,566,o),
(369,566,cs),
(371,566,o),
(380,568,o),
(382,568,cs),
(382,568,o),
(384,568,o),
(385,568,cs),
(386,568,o),
(388,568,o),
(388,568,c),
(391,568,o),
(415,564,o),
(418,563,c),
(419,563,o),
(423,563,o),
(423,563,c),
(446,559,o),
(465,549,o),
(484,538,c),
(484,538,o),
(485,536,o),
(485,536,c),
(487,536,o),
(496,529,o),
(498,528,c),
(498,528,o),
(504,522,o),
(504,522,c),
(512,515,o),
(522,510,o),
(527,501,cs),
(529,499,o),
(530,492,o),
(535,492,cs),
(535,492,o),
(535,492,o),
(535,492,c),
(537,493,o),
(541,495,o),
(541,495,c),
(542,496,o),
(547,501,o),
(547,503,c),
(557,512,o),
(599,554,o),
(608,563,cs),
(610,565,o),
(616,572,o),
(618,574,c),
(618,574,o),
(618,576,o),
(618,576,c),
(618,578,o),
(617,579,o),
(615,581,cs),
(605,592,o),
(594,602,o),
(583,611,cs),
(581,612,o),
(573,617,o),
(572,619,c),
(568,621,o),
(565,622,o),
(562,626,c),
(558,628,o),
(541,638,o),
(537,640,c),
(536,640,o),
(532,643,o),
(531,643,cs),
(531,643,o),
(529,646,o),
(529,646,c),
(528,646,o),
(525,647,o),
(525,647,c),
(519,649,o),
(514,652,o),
(508,654,cs),
(500,658,o),
(491,662,o),
(483,665,c),
(453,673,o),
(422,679,o),
(391,680,c),
(390,680,o),
(375,680,o),
(369,680,cs),
(366,680,o),
(351,680,o),
(348,680,c),
(345,677,o),
(339,678,o),
(337,678,cs),
(332,678,o),
(328,676,o),
(324,675,cs),
(322,675,o),
(313,674,o),
(311,674,cs),
(289,669,o),
(268,661,o),
(247,653,cs),
(241,651,o),
(235,649,o),
(230,646,c),
(230,646,o),
(228,643,o),
(228,643,c),
(227,643,o),
(224,642,o),
(224,642,c),
(214,637,o),
(208,634,o),
(199,628,c),
(199,628,o),
(197,626,o),
(197,626,c),
(196,626,o),
(193,624,o),
(193,624,c),
(147,588,l),
(146,586,o),
(137,578,o),
(136,576,cs),
(135,575,o),
(131,571,o),
(131,570,cs),
(122,560,o),
(113,550,o),
(105,539,c),
(105,539,o),
(103,536,o),
(102,535,cs),
(85,506,o),
(67,477,o),
(59,443,c),
(56,434,o),
(50,406,o),
(50,404,cs),
(48,396,o),
(48,387,o),
(47,379,cs),
(47,377,o),
(44,364,o),
(44,362,cs),
(44,361,o),
(43,346,o),
(43,341,cs),
(43,340,o),
(43,337,o),
(43,337,c),
(43,336,o),
(42,333,o),
(42,333,c),
(42,333,o),
(42,332,o),
(42,332,c)
);
}
);
width = 684;
},
{
anchors = (
{
name = bottom;
pos = (342,0);
},
{
name = measure;
},
{
name = top;
pos = (342,660);
}
);
color = 0;
layerId = "7B371D60-13E0-44E7-A998-8DAF0ECD409E";
shapes = (
{
closed = 1;
nodes = (
(42,332,o),
(42,331,o),
(42,331,c),
(42,331,o),
(43,328,o),
(43,327,cs),
(43,326,o),
(43,318,o),
(43,317,cs),
(44,304,o),
(44,290,o),
(46,277,c),
(46,277,o),
(47,271,o),
(47,271,c),
(48,261,o),
(50,248,o),
(52,238,c),
(52,237,o),
(56,227,o),
(56,226,cs),
(56,225,o),
(58,219,o),
(58,218,cs),
(62,202,o),
(70,188,o),
(75,173,c),
(75,173,o),
(77,170,o),
(77,169,cs),
(80,162,o),
(85,155,o),
(89,148,cs),
(91,144,o),
(90,144,o),
(92,141,c),
(92,140,o),
(99,132,o),
(100,130,c),
(100,130,o),
(102,126,o),
(102,125,cs),
(103,124,o),
(106,119,o),
(106,118,cs),
(107,117,o),
(112,111,o),
(113,110,cs),
(115,107,o),
(117,105,o),
(119,102,c),
(119,101,o),
(126,95,o),
(127,94,c),
(127,93,o),
(129,90,o),
(129,90,c),
(139,79,o),
(150,68,o),
(162,59,c),
(163,57,o),
(174,49,o),
(175,48,c),
(175,48,o),
(178,45,o),
(178,45,c),
(179,45,o),
(190,38,o),
(191,37,cs),
(204,30,o),
(215,22,o),
(228,16,cs),
(239,11,o),
(249,7,o),
(260,2,cs),
(265,0,o),
(270,-2,o),
(275,-3,cs),
(278,-4,o),
(303,-11,o),
(306,-11,cs),
(307,-11,o),
(309,-13,o),
(310,-13,cs),
(334,-17,o),
(359,-20,o),
(383,-20,cs),
(396,-20,o),
(408,-17,o),
(421,-15,cs),
(435,-13,o),
(448,-11,o),
(462,-7,c),
(463,-7,o),
(469,-6,o),
(469,-6,c),
(470,-6,o),
(474,-3,o),
(475,-3,cs),
(476,-3,o),
(487,0,o),
(488,1,cs),
(493,3,o),
(514,11,o),
(519,13,cs),
(520,14,o),
(523,15,o),
(523,16,c),
(526,17,o),
(549,29,o),
(552,30,c),
(552,30,o),
(556,34,o),
(557,34,cs),
(571,45,o),
(586,55,o),
(599,67,cs),
(605,73,o),
(623,90,o),
(624,92,cs),
(626,95,o),
(634,106,o),
(635,109,c),
(635,109,o),
(635,110,o),
(635,110,c),
(635,112,o),
(634,113,o),
(632,115,cs),
(626,122,o),
(618,130,o),
(611,136,c),
(610,136,o),
(607,138,o),
(607,138,c),
(605,140,o),
(595,151,o),
(593,152,cs),
(587,157,o),
(581,163,o),
(574,168,c),
(572,171,o),
(560,183,o),
(557,186,cs),
(556,187,o),
(554,187,o),
(552,187,cs),
(545,187,o),
(539,178,o),
(537,172,c),
(533,167,o),
(512,146,o),
(507,142,c),
(506,142,o),
(494,132,o),
(489,129,c),
(489,128,o),
(486,126,o),
(485,126,cs),
(469,117,o),
(452,110,o),
(436,103,c),
(429,101,o),
(423,101,o),
(417,98,c),
(410,97,o),
(380,94,o),
(373,94,cs),
(371,94,o),
(355,95,o),
(349,95,cs),
(349,95,o),
(344,97,o),
(344,97,c),
(342,97,o),
(327,99,o),
(325,99,cs),
(315,101,o),
(307,107,o),
(298,109,c),
(272,121,o),
(247,134,o),
(228,156,cs),
(222,162,o),
(219,169,o),
(214,175,c),
(214,176,o),
(207,184,o),
(206,186,cs),
(197,201,o),
(189,219,o),
(185,237,c),
(185,238,o),
(183,244,o),
(183,245,cs),
(182,251,o),
(179,256,o),
(178,263,c),
(178,263,o),
(178,266,o),
(178,267,cs),
(178,268,o),
(175,281,o),
(175,283,cs),
(175,285,o),
(172,304,o),
(172,306,cs),
(172,306,o),
(171,313,o),
(171,314,cs),
(171,314,o),
(171,319,o),
(171,321,cs),
(171,323,o),
(171,329,o),
(171,330,cs),
(171,335,o),
(172,358,o),
(172,362,c),
(173,363,o),
(174,367,o),
(174,368,cs),
(174,369,o),
(174,383,o),
(174,384,cs),
(174,385,o),
(177,393,o),
(177,393,c),
(177,396,o),
(181,415,o),
(182,418,cs),
(183,424,o),
(187,429,o),
(189,434,cs),
(192,443,o),
(196,451,o),
(199,460,c),
(199,460,o),
(201,462,o),
(201,462,c),
(213,481,o),
(225,501,o),
(243,516,cs),
(254,526,o),
(267,534,o),
(279,542,c),
(279,542,o),
(281,543,o),
(282,543,cs),
(283,544,o),
(293,548,o),
(294,549,cs),
(307,554,o),
(320,558,o),
(333,561,cs),
(335,561,o),
(354,566,o),
(356,566,cs),
(357,566,o),
(368,566,o),
(369,566,cs),
(371,566,o),
(380,568,o),
(382,568,cs),
(382,568,o),
(384,568,o),
(385,568,cs),
(386,568,o),
(388,568,o),
(388,568,c),
(391,568,o),
(415,564,o),
(418,563,c),
(419,563,o),
(423,563,o),
(423,563,c),
(446,559,o),
(465,549,o),
(484,538,c),
(484,538,o),
(485,536,o),
(485,536,c),
(487,536,o),
(496,529,o),
(498,528,c),
(498,528,o),
(504,522,o),
(504,522,c),
(512,515,o),
(522,510,o),
(527,501,cs),
(529,499,o),
(530,492,o),
(535,492,cs),
(535,492,o),
(535,492,o),
(535,492,c),
(537,493,o),
(541,495,o),
(541,495,c),
(542,496,o),
(547,501,o),
(547,503,c),
(557,512,o),
(599,554,o),
(608,563,cs),
(610,565,o),
(616,572,o),
(618,574,c),
(618,574,o),
(618,576,o),
(618,576,c),
(618,578,o),
(617,579,o),
(615,581,cs),
(605,592,o),
(594,602,o),
(583,611,cs),
(581,612,o),
(573,617,o),
(572,619,c),
(568,621,o),
(565,622,o),
(562,626,c),
(558,628,o),
(541,638,o),
(537,640,c),
(536,640,o),
(532,643,o),
(531,643,cs),
(531,643,o),
(529,646,o),
(529,646,c),
(528,646,o),
(525,647,o),
(525,647,c),
(519,649,o),
(514,652,o),
(508,654,cs),
(500,658,o),
(491,662,o),
(483,665,c),
(453,673,o),
(422,679,o),
(391,680,c),
(390,680,o),
(375,680,o),
(369,680,cs),
(366,680,o),
(351,680,o),
(348,680,c),
(345,677,o),
(339,678,o),
(337,678,cs),
(332,678,o),
(328,676,o),
(324,675,cs),
(322,675,o),
(313,674,o),
(311,674,cs),
(289,669,o),
(268,661,o),
(247,653,cs),
(241,651,o),
(235,649,o),
(230,646,c),
(230,646,o),
(228,643,o),
(228,643,c),
(227,643,o),
(224,642,o),
(224,642,c),
(214,637,o),
(208,634,o),
(199,628,c),
(199,628,o),
(197,626,o),
(197,626,c),
(196,626,o),
(193,624,o),
(193,624,c),
(147,588,l),
(146,586,o),
(137,578,o),
(136,576,cs),
(135,575,o),
(131,571,o),
(131,570,cs),
(122,560,o),
(113,550,o),
(105,539,c),
(105,539,o),
(103,536,o),
(102,535,cs),
(85,506,o),
(67,477,o),
(59,443,c),
(56,434,o),
(50,406,o),
(50,404,cs),
(48,396,o),
(48,387,o),
(47,379,cs),
(47,377,o),
(44,364,o),
(44,362,cs),
(44,361,o),
(43,346,o),
(43,341,cs),
(43,340,o),
(43,337,o),
(43,337,c),
(43,336,o),
(42,333,o),
(42,333,c),
(42,333,o),
(42,332,o),
(42,332,c)
);
}
);
width = 684;
}
);
unicode = 67;
},
{
glyphname = C.alt;
kernLeft = O;
lastChange = "2023-06-25 14:23:23 +0000";
layers = (
{
anchors = (
{
name = bottom;
pos = (283,0);
},
{
name = measure;
},
{
name = top;
pos = (283,660);
}
);
layerId = master01;
shapes = (
{
closed = 1;
nodes = (
(198,42,o),
(219,30,o),
(241,20,cs),
(247,17,o),
(255,15,o),
(262,12,cs),
(274,7,o),
(287,3,o),
(300,1,cs),
(302,1,o),
(320,-1,o),
(322,-1,cs),
(343,-5,o),
(363,-8,o),
(384,-8,cs),
(385,-8,o),
(388,-8,o),
(388,-8,c),
(389,-8,o),
(400,-7,o),
(401,-7,cs),
(411,-6,o),
(421,-6,o),
(431,-4,cs),
(438,-3,o),
(464,3,o),
(467,4,cs),
(469,5,o),
(479,7,o),
(481,8,cs),
(493,13,o),
(504,16,o),
(515,23,c),
(515,23,o),
(517,25,o),
(517,26,cs),
(517,34,o),
(519,77,o),
(519,86,cs),
(519,88,o),
(519,107,o),
(519,115,cs),
(519,119,o),
(519,139,o),
(519,143,c),
(518,145,o),
(516,148,o),
(513,148,cs),
(507,148,o),
(507,145,o),
(502,142,cs),
(500,140,o),
(486,131,o),
(483,130,cs),
(482,129,o),
(473,125,o),
(471,124,c),
(471,124,o),
(465,121,o),
(465,120,c),
(460,118,o),
(454,116,o),
(450,115,cs),
(427,108,o),
(404,104,o),
(380,104,cs),
(378,104,o),
(370,104,o),
(369,104,cs),
(367,104,o),
(355,105,o),
(354,105,cs),
(353,105,o),
(351,105,o),
(350,105,cs),
(350,105,o),
(347,107,o),
(347,107,c),
(346,107,o),
(338,109,o),
(336,109,cs),
(334,110,o),
(332,111,o),
(330,111,cs),
(326,111,o),
(312,116,o),
(308,117,cs),
(307,118,o),
(296,124,o),
(295,124,cs),
(289,127,o),
(283,129,o),
(278,132,c),
(277,134,o),
(264,142,o),
(262,143,c),
(262,144,o),
(255,149,o),
(253,151,c),
(253,151,o),
(250,154,o),
(250,154,c),
(239,163,o),
(229,173,o),
(220,185,cs),
(210,200,o),
(200,213,o),
(193,231,cs),
(189,243,o),
(184,256,o),
(181,269,c),
(181,269,o),
(181,272,o),
(181,273,cs),
(181,275,o),
(177,292,o),
(177,294,cs),
(176,304,o),
(176,311,o),
(176,321,cs),
(176,323,o),
(176,329,o),
(176,329,c),
(176,331,o),
(177,346,o),
(177,348,cs),
(179,379,o),
(183,410,o),
(195,440,cs),
(196,441,o),
(200,449,o),
(200,451,c),
(201,452,o),
(204,461,o),
(204,462,cs),
(206,465,o),
(218,482,o),
(220,486,cs),
(221,487,o),
(233,500,o),
(237,505,c),
(237,505,o),
(240,508,o),
(241,509,cs),
(262,528,o),
(287,542,o),
(312,553,c),
(319,555,o),
(324,558,o),
(331,559,cs),
(340,560,o),
(367,564,o),
(370,564,cs),
(370,564,o),
(375,564,o),
(377,564,cs),
(406,564,o),
(436,562,o),
(463,552,cs),
(465,551,o),
(484,543,o),
(492,540,cs),
(500,536,o),
(506,529,o),
(515,525,cs),
(516,524,o),
(519,524,o),
(519,524,c),
(521,529,l),
(521,530,o),
(521,545,o),
(521,551,cs),
(521,559,o),
(521,583,o),
(521,586,cs),
(521,591,o),
(520,632,o),
(520,637,cs),
(520,638,o),
(520,649,o),
(520,651,cs),
(519,657,o),
(503,661,o),
(498,663,c),
(497,663,o),
(486,667,o),
(485,668,cs),
(483,669,o),
(477,671,o),
(477,671,c),
(462,675,o),
(446,677,o),
(431,680,c),
(430,680,o),
(426,682,o),
(425,682,cs),
(419,682,o),
(414,680,o),
(408,683,c),
(405,683,o),
(391,683,o),
(388,683,cs),
(350,683,o),
(312,678,o),
(276,665,cs),
(258,659,o),
(241,649,o),
(223,642,c),
(223,642,o),
(222,641,o),
(222,641,c),
(220,640,o),
(215,636,o),
(214,636,cs),
(213,635,o),
(205,631,o),
(204,630,c),
(204,630,o),
(202,628,o),
(202,628,c),
(202,628,o),
(199,626,o),
(199,626,c),
(198,626,o),
(194,623,o),
(193,622,c),
(193,622,o),
(192,622,o),
(192,622,c),
(192,622,o),
(189,619,o),
(189,619,c),
(188,619,o),
(177,611,o),
(176,610,cs),
(156,595,o),
(141,578,o),
(125,559,cs),
(120,553,o),
(115,549,o),
(111,543,c),
(111,542,o),
(106,534,o),
(106,533,cs),
(102,526,o),
(97,521,o),
(94,514,cs),
(79,486,o),
(67,457,o),
(59,426,c),
(55,414,o),
(53,401,o),
(51,387,c),
(51,387,o),
(49,383,o),
(49,382,cs),
(49,381,o),
(49,377,o),
(49,377,c),
(49,375,o),
(47,365,o),
(46,363,c),
(46,356,o),
(45,322,o),
(45,314,cs),
(45,313,o),
(46,304,o),
(46,302,cs),
(46,301,o),
(46,293,o),
(46,292,cs),
(47,280,o),
(50,269,o),
(52,258,cs),
(52,256,o),
(53,248,o),
(53,247,cs),
(53,246,o),
(57,238,o),
(57,238,c),
(57,237,o),
(59,229,o),
(60,227,c),
(60,226,o),
(61,219,o),
(61,219,c),
(63,211,o),
(65,204,o),
(68,197,c),
(68,196,o),
(70,192,o),
(71,190,c),
(71,190,o),
(73,186,o),
(73,185,cs),
(73,184,o),
(75,176,o),
(76,175,cs),
(77,173,o),
(86,157,o),
(88,153,cs),
(90,150,o),
(95,142,o),
(96,140,c),
(97,140,o),
(104,132,o),
(104,131,cs),
(114,119,o),
(123,107,o),
(133,96,c),
(133,95,o),
(138,90,o),
(140,89,cs),
(141,88,o),
(152,78,o),
(153,77,cs),
(160,70,o),
(167,64,o),
(175,58,cs),
(177,56,o),
(177,57,o),
(179,55,cs)
);
}
);
width = 565;
},
{
anchors = (
{
name = bottom;
pos = (283,0);
},
{
name = measure;
},
{
name = top;
pos = (283,660);
}
);
color = 0;
layerId = "7B371D60-13E0-44E7-A998-8DAF0ECD409E";
shapes = (
{
closed = 1;
nodes = (
(198,42,o),
(219,30,o),
(241,20,cs),
(247,17,o),
(255,15,o),
(262,12,cs),
(274,7,o),
(287,3,o),
(300,1,cs),
(302,1,o),
(320,-1,o),
(322,-1,cs),
(343,-5,o),
(363,-8,o),
(384,-8,cs),
(385,-8,o),
(388,-8,o),
(388,-8,c),
(389,-8,o),
(400,-7,o),
(401,-7,cs),
(411,-6,o),
(421,-6,o),
(431,-4,cs),
(438,-3,o),
(464,3,o),
(467,4,cs),
(469,5,o),
(479,7,o),
(481,8,cs),
(493,13,o),
(504,16,o),
(515,23,c),
(515,23,o),
(517,25,o),
(517,26,cs),
(517,34,o),
(519,77,o),
(519,86,cs),
(519,88,o),
(519,107,o),
(519,115,cs),
(519,119,o),
(519,139,o),
(519,143,c),
(518,145,o),
(516,148,o),
(513,148,cs),
(507,148,o),
(507,145,o),
(502,142,cs),
(500,140,o),
(486,131,o),
(483,130,cs),
(482,129,o),
(473,125,o),
(471,124,c),
(471,124,o),
(465,121,o),
(465,120,c),
(460,118,o),
(454,116,o),
(450,115,cs),
(427,108,o),
(404,104,o),
(380,104,cs),
(378,104,o),
(370,104,o),
(369,104,cs),
(367,104,o),
(355,105,o),
(354,105,cs),
(353,105,o),
(351,105,o),
(350,105,cs),
(350,105,o),
(347,107,o),
(347,107,c),
(346,107,o),
(338,109,o),
(336,109,cs),
(334,110,o),
(332,111,o),
(330,111,cs),
(326,111,o),
(312,116,o),
(308,117,cs),
(307,118,o),
(296,124,o),
(295,124,cs),
(289,127,o),
(283,129,o),
(278,132,c),
(277,134,o),
(264,142,o),
(262,143,c),
(262,144,o),
(255,149,o),
(253,151,c),
(253,151,o),
(250,154,o),
(250,154,c),
(239,163,o),
(229,173,o),
(220,185,cs),
(210,200,o),
(200,213,o),
(193,231,cs),
(189,243,o),
(184,256,o),
(181,269,c),
(181,269,o),
(181,272,o),
(181,273,cs),
(181,275,o),
(177,292,o),
(177,294,cs),
(176,304,o),
(176,311,o),
(176,321,cs),
(176,323,o),
(176,329,o),
(176,329,c),
(176,331,o),
(177,346,o),
(177,348,cs),
(179,379,o),
(183,410,o),
(195,440,cs),
(196,441,o),
(200,449,o),
(200,451,c),
(201,452,o),
(204,461,o),
(204,462,cs),
(206,465,o),
(218,482,o),
(220,486,cs),
(221,487,o),
(233,500,o),
(237,505,c),
(237,505,o),
(240,508,o),
(241,509,cs),
(262,528,o),
(287,542,o),
(312,553,c),
(319,555,o),
(324,558,o),
(331,559,cs),
(340,560,o),
(367,564,o),
(370,564,cs),
(370,564,o),
(375,564,o),
(377,564,cs),
(406,564,o),
(436,562,o),
(463,552,cs),
(465,551,o),
(484,543,o),
(492,540,cs),
(500,536,o),
(506,529,o),
(515,525,cs),
(516,524,o),
(519,524,o),
(519,524,c),
(521,529,l),
(521,530,o),
(521,545,o),
(521,551,cs),
(521,559,o),
(521,583,o),
(521,586,cs),
(521,591,o),
(520,632,o),
(520,637,cs),
(520,638,o),
(520,649,o),
(520,651,cs),
(519,657,o),
(503,661,o),
(498,663,c),
(497,663,o),
(486,667,o),
(485,668,cs),
(483,669,o),
(477,671,o),
(477,671,c),
(462,675,o),
(446,677,o),
(431,680,c),
(430,680,o),
(426,682,o),
(425,682,cs),
(419,682,o),
(414,680,o),
(408,683,c),
(405,683,o),
(391,683,o),
(388,683,cs),
(350,683,o),
(312,678,o),
(276,665,cs),
(258,659,o),
(241,649,o),
(223,642,c),
(223,642,o),
(222,641,o),
(222,641,c),
(220,640,o),
(215,636,o),
(214,636,cs),
(213,635,o),
(205,631,o),
(204,630,c),
(204,630,o),
(202,628,o),
(202,628,c),
(202,628,o),
(199,626,o),
(199,626,c),
(198,626,o),
(194,623,o),
(193,622,c),
(193,622,o),
(192,622,o),
(192,622,c),
(192,622,o),
(189,619,o),
(189,619,c),
(188,619,o),
(177,611,o),
(176,610,cs),
(156,595,o),
(141,578,o),
(125,559,cs),
(120,553,o),
(115,549,o),
(111,543,c),
(111,542,o),
(106,534,o),
(106,533,cs),
(102,526,o),
(97,521,o),
(94,514,cs),
(79,486,o),
(67,457,o),
(59,426,c),
(55,414,o),
(53,401,o),
(51,387,c),
(51,387,o),
(49,383,o),
(49,382,cs),
(49,381,o),
(49,377,o),
(49,377,c),
(49,375,o),
(47,365,o),
(46,363,c),
(46,356,o),
(45,322,o),
(45,314,cs),
(45,313,o),
(46,304,o),
(46,302,cs),
(46,301,o),
(46,293,o),
(46,292,cs),
(47,280,o),
(50,269,o),
(52,258,cs),
(52,256,o),
(53,248,o),
(53,247,cs),
(53,246,o),
(57,238,o),
(57,238,c),
(57,237,o),
(59,229,o),
(60,227,c),
(60,226,o),
(61,219,o),
(61,219,c),
(63,211,o),
(65,204,o),
(68,197,c),
(68,196,o),
(70,192,o),
(71,190,c),
(71,190,o),
(73,186,o),
(73,185,cs),
(73,184,o),
(75,176,o),
(76,175,cs),
(77,173,o),
(86,157,o),
(88,153,cs),
(90,150,o),
(95,142,o),
(96,140,c),
(97,140,o),
(104,132,o),
(104,131,cs),
(114,119,o),
(123,107,o),
(133,96,c),
(133,95,o),
(138,90,o),
(140,89,cs),
(141,88,o),
(152,78,o),
(153,77,cs),
(160,70,o),
(167,64,o),
(175,58,cs),
(177,56,o),
(177,57,o),
(179,55,cs)
);
}
);
width = 565;
}
);
},
{
glyphname = C.alt.ss02;
kernLeft = O;
lastChange = "2023-06-25 14:23:23 +0000";
layers = (
{
anchors = (
{
name = _measure;
}
);
layerId = master01;
shapes = (
{
closed = 1;
nodes = (
(510,-150,o),
(510,-157,o),
(510,-158,cs),
(510,-162,o),
(511,-170,o),
(517,-170,cs),
(517,-170,o),
(519,-170,o),
(519,-170,c),
(519,-169,o),
(520,-161,o),
(520,-159,cs),
(520,-159,o),
(520,-154,o),
(520,-154,c),
(520,-152,o),
(523,-138,o),
(523,-136,cs),
(523,-136,o),
(523,-132,o),
(523,-131,cs),
(523,-125,o),
(523,-118,o),
(521,-113,c),
(521,-110,o),
(518,-108,o),
(515,-108,cs),
(510,-108,o),
(510,-115,o),
(510,-117,cs),
(510,-119,o),
(510,-128,o),
(510,-130,cs),
(510,-130,o),
(508,-133,o),
(508,-134,c),
(507,-134,o),
(503,-135,o),
(502,-135,c),
(390,-134,l),
(380,-134,l),
(208,-134,l),
(208,-133,o),
(203,-132,o),
(202,-132,cs),
(200,-132,o),
(189,-134,o),
(188,-134,cs),
(187,-134,o),
(179,-133,o),
(177,-132,c),
(130,-132,l),
(122,-133,l),
(65,-132,ls),
(57,-132,o),
(65,-107,o),
(54,-107,cs),
(54,-107,o),
(53,-107,o),
(53,-107,c),
(53,-107,o),
(51,-110,o),
(51,-111,cs),
(51,-113,o),
(51,-121,o),
(51,-123,cs),
(51,-127,o),
(51,-136,o),
(51,-136,c),
(51,-140,o),
(52,-158,o),
(52,-162,cs),
(52,-164,o),
(53,-165,o),
(54,-165,cs),
(54,-165,o),
(55,-165,o),
(55,-165,c),
(55,-164,o),
(59,-163,o),
(60,-162,c),
(60,-160,o),
(61,-150,o),
(61,-148,cs),
(61,-147,o),
(63,-143,o),
(63,-143,c),
(257,-144,l),
(268,-144,l),
(469,-144,ls),
(471,-144,o),
(479,-146,o),
(481,-146,cs),
(483,-146,o),
(502,-146,o),
(504,-146,cs),
(504,-146,o),
(508,-146,o),
(509,-147,c),
(509,-147,o),
(510,-148,o),
(510,-148,c)
);
},
{
closed = 1;
nodes = (
(269,-95,o),
(269,-96,o),
(269,-96,c),
(272,-107,o),
(278,-109,o),
(289,-109,cs),
(299,-109,o),
(311,-99,o),
(312,-88,c),
(312,-88,o),
(312,-83,o),
(311,-81,cs),
(308,-68,o),
(298,-64,o),
(285,-63,c),
(284,-62,o),
(284,-61,o),
(284,-59,cs),
(284,-58,o),
(284,-57,o),
(284,-57,c),
(284,-56,o),
(286,-54,o),
(287,-54,c),
(304,-54,ls),
(307,-54,o),
(309,-50,o),
(309,-48,cs),
(309,-46,o),
(307,-43,o),
(305,-43,cs),
(278,-43,l),
(278,-43,o),
(276,-44,o),
(276,-45,c),
(275,-45,o),
(273,-48,o),
(273,-49,c),
(273,-66,l),
(271,-68,o),
(272,-70,o),
(272,-72,cs),
(272,-76,o),
(272,-78,o),
(276,-78,cs),
(280,-78,o),
(284,-77,o),
(288,-77,cs),
(294,-77,o),
(300,-79,o),
(300,-86,cs),
(300,-86,o),
(300,-88,o),
(300,-88,c),
(298,-94,o),
(295,-98,o),
(288,-98,cs),
(282,-98,o),
(282,-92,o),
(275,-92,cs),
(272,-92,o),
(271,-91,o),
(269,-94,c),
(269,-94,o),
(269,-95,o),
(269,-95,c)
);
}
);
userData = {
com.typemytype.robofont.mark = (
0.939,
1,
0.6,
1
);
};
width = 565;
},
{
anchors = (
{
name = _measure;
}
);
color = 0;
layerId = "7B371D60-13E0-44E7-A998-8DAF0ECD409E";
shapes = (
{
closed = 1;
nodes = (
(510,-150,o),
(510,-157,o),
(510,-158,cs),
(510,-162,o),
(511,-170,o),
(517,-170,cs),
(517,-170,o),
(519,-170,o),
(519,-170,c),
(519,-169,o),
(520,-161,o),
(520,-159,cs),
(520,-159,o),
(520,-154,o),
(520,-154,c),
(520,-152,o),
(523,-138,o),
(523,-136,cs),
(523,-136,o),
(523,-132,o),
(523,-131,cs),
(523,-125,o),
(523,-118,o),
(521,-113,c),
(521,-110,o),
(518,-108,o),
(515,-108,cs),
(510,-108,o),
(510,-115,o),
(510,-117,cs),
(510,-119,o),
(510,-128,o),
(510,-130,cs),
(510,-130,o),
(508,-133,o),
(508,-134,c),
(507,-134,o),
(503,-135,o),
(502,-135,c),
(390,-134,l),
(380,-134,l),
(208,-134,l),
(208,-133,o),
(203,-132,o),
(202,-132,cs),
(200,-132,o),
(189,-134,o),
(188,-134,cs),
(187,-134,o),
(179,-133,o),
(177,-132,c),
(130,-132,l),
(122,-133,l),
(65,-132,ls),
(57,-132,o),
(65,-107,o),
(54,-107,cs),
(54,-107,o),
(53,-107,o),
(53,-107,c),
(53,-107,o),
(51,-110,o),
(51,-111,cs),
(51,-113,o),
(51,-121,o),
(51,-123,cs),
(51,-127,o),
(51,-136,o),
(51,-136,c),
(51,-140,o),
(52,-158,o),
(52,-162,cs),
(52,-164,o),
(53,-165,o),
(54,-165,cs),
(54,-165,o),
(55,-165,o),
(55,-165,c),
(55,-164,o),
(59,-163,o),
(60,-162,c),
(60,-160,o),
(61,-150,o),
(61,-148,cs),
(61,-147,o),
(63,-143,o),
(63,-143,c),
(257,-144,l),
(268,-144,l),
(469,-144,ls),
(471,-144,o),
(479,-146,o),
(481,-146,cs),
(483,-146,o),
(502,-146,o),
(504,-146,cs),
(504,-146,o),
(508,-146,o),
(509,-147,c),
(509,-147,o),
(510,-148,o),
(510,-148,c)
);
},
{
closed = 1;
nodes = (
(269,-95,o),
(269,-96,o),
(269,-96,c),
(272,-107,o),
(278,-109,o),
(289,-109,cs),
(299,-109,o),
(311,-99,o),
(312,-88,c),
(312,-88,o),
(312,-83,o),
(311,-81,cs),
(308,-68,o),
(298,-64,o),
(285,-63,c),
(284,-62,o),
(284,-61,o),
(284,-59,cs),
(284,-58,o),
(284,-57,o),
(284,-57,c),
(284,-56,o),
(286,-54,o),
(287,-54,c),
(304,-54,ls),
(307,-54,o),
(309,-50,o),
(309,-48,cs),
(309,-46,o),
(307,-43,o),
(305,-43,cs),
(278,-43,l),
(278,-43,o),
(276,-44,o),
(276,-45,c),
(275,-45,o),
(273,-48,o),
(273,-49,c),
(273,-66,l),
(271,-68,o),
(272,-70,o),
(272,-72,cs),
(272,-76,o),
(272,-78,o),
(276,-78,cs),
(280,-78,o),
(284,-77,o),
(288,-77,cs),
(294,-77,o),
(300,-79,o),
(300,-86,cs),
(300,-86,o),
(300,-88,o),
(300,-88,c),
(298,-94,o),
(295,-98,o),
(288,-98,cs),
(282,-98,o),
(282,-92,o),
(275,-92,cs),
(272,-92,o),
(271,-91,o),
(269,-94,c),
(269,-94,o),
(269,-95,o),
(269,-95,c)
);
}
);
userData = {
com.typemytype.robofont.mark = (
0.939,
1,
0.6,
1
);
};
width = 565;
}
);
},
{
glyphname = C.ss02;
kernLeft = O;
lastChange = "2023-06-25 14:23:23 +0000";
layers = (
{
anchors = (
{
name = _measure;
}
);
layerId = master01;
shapes = (
{
closed = 1;
nodes = (
(607,-146,l),
(607,-146,o),
(607,-158,o),
(608,-163,cs),
(608,-165,o),
(610,-172,o),
(614,-172,cs),
(615,-172,o),
(616,-168,o),
(616,-168,c),
(616,-113,ls),
(616,-110,o),
(615,-107,o),
(612,-107,cs),
(611,-107,o),
(607,-110,o),
(607,-111,c),
(607,-129,ls),
(607,-132,o),
(603,-133,o),
(601,-133,cs),
(601,-133,o),
(589,-134,o),
(584,-134,cs),
(584,-134,o),
(583,-134,o),
(583,-134,c),
(583,-134,o),
(583,-134,o),
(583,-134,c),
(582,-134,o),
(574,-133,o),
(573,-133,cs),
(572,-133,o),
(560,-134,o),
(558,-134,cs),
(558,-134,o),
(551,-133,o),
(550,-133,cs),
(550,-133,o),
(549,-133,o),
(549,-133,c),
(549,-133,o),
(549,-133,o),
(549,-133,c),
(548,-133,o),
(543,-134,o),
(542,-134,cs),
(541,-134,o),
(532,-134,o),
(529,-134,cs),
(525,-134,o),
(516,-134,o),
(515,-134,cs),
(514,-134,o),
(506,-133,o),
(506,-133,c),
(506,-133,o),
(503,-133,o),
(502,-133,cs),
(501,-133,o),
(498,-133,o),
(498,-133,c),
(496,-133,o),
(486,-134,o),
(484,-134,cs),
(268,-134,ls),
(266,-134,o),
(251,-133,o),
(248,-133,cs),
(245,-133,o),
(225,-134,o),
(222,-134,cs),
(222,-134,o),
(208,-134,o),
(204,-134,cs),
(189,-134,o),
(174,-133,o),
(159,-133,cs),
(148,-133,o),
(138,-134,o),
(127,-134,cs),
(103,-134,o),
(79,-132,o),
(55,-133,c),
(55,-133,o),
(54,-132,o),
(54,-132,c),
(54,-131,o),
(52,-127,o),
(52,-126,cs),
(52,-125,o),
(52,-117,o),
(52,-117,c),
(52,-115,o),
(51,-109,o),
(51,-107,cs),
(51,-107,o),
(49,-107,o),
(49,-107,c),
(46,-107,o),
(44,-108,o),
(43,-111,c),
(43,-115,o),
(43,-131,o),
(43,-134,cs),
(43,-140,o),
(43,-156,o),
(43,-157,cs),
(43,-159,o),
(44,-167,o),
(44,-168,cs),
(45,-169,o),
(46,-171,o),
(48,-171,cs),
(50,-171,o),
(52,-167,o),
(52,-165,cs),
(52,-165,o),
(52,-156,o),
(52,-156,c),
(52,-154,o),
(54,-148,o),
(54,-146,cs),
(54,-146,o),
(55,-145,o),
(55,-145,c),
(56,-145,o),
(65,-145,o),
(66,-145,cs),
(68,-145,o),
(83,-144,o),
(85,-144,cs),
(93,-144,o),
(160,-144,o),
(168,-144,cs),
(171,-144,o),
(194,-142,o),
(197,-142,cs),
(197,-142,o),
(204,-142,o),
(206,-142,cs),
(208,-142,o),
(215,-142,o),
(216,-142,cs),
(223,-142,o),
(282,-144,o),
(290,-144,cs),
(329,-144,o),
(510,-144,o),
(549,-144,c),
(567,-145,o),
(587,-146,o),
(605,-145,c)
);
},
{
closed = 1;
nodes = (
(311,-89,o),
(311,-92,o),
(313,-98,c),
(313,-101,o),
(318,-105,o),
(320,-106,cs),
(321,-107,o),
(324,-110,o),
(325,-110,cs),
(326,-111,o),
(334,-113,o),
(336,-113,cs),
(336,-113,o),
(339,-112,o),
(340,-111,cs),
(342,-110,o),
(350,-107,o),
(351,-106,c),
(351,-106,o),
(353,-104,o),
(353,-103,cs),
(353,-103,o),
(357,-96,o),
(359,-94,c),
(359,-93,o),
(360,-91,o),
(360,-91,c),
(360,-91,o),
(360,-88,o),
(360,-87,cs),
(360,-80,o),
(357,-71,o),
(351,-68,c),
(350,-68,o),
(344,-66,o),
(341,-65,c),
(341,-65,o),
(340,-65,o),
(340,-65,c),
(336,-65,o),
(332,-69,o),
(327,-69,cs),
(327,-69,o),
(326,-69,o),
(326,-69,c),
(327,-67,o),
(330,-62,o),
(332,-60,cs),
(333,-59,o),
(342,-49,o),
(344,-48,cs),
(345,-47,o),
(345,-45,o),
(345,-43,cs),
(345,-40,o),
(344,-40,o),
(341,-40,cs),
(340,-40,o),
(340,-40,o),
(340,-40,c),
(339,-40,o),
(336,-42,o),
(336,-42,c),
(323,-53,o),
(311,-67,o),
(311,-84,cs)
);
},
{
closed = 1;
nodes = (
(322,-83,o),
(331,-76,o),
(338,-76,cs),
(344,-76,o),
(347,-78,o),
(349,-84,c),
(349,-84,o),
(349,-86,o),
(349,-86,c),
(349,-95,o),
(343,-100,o),
(334,-100,cs),
(329,-100,o),
(327,-98,o),
(324,-94,c),
(324,-94,o),
(322,-92,o),
(322,-91,cs),
(322,-91,o),
(322,-90,o),
(322,-90,c)
);
},
{
closed = 1;
nodes = (
(605,166,o),
(607,161,o),
(610,161,cs),
(610,161,o),
(611,161,o),
(611,161,c),
(615,168,l),
(615,169,o),
(616,186,o),
(616,192,cs),
(616,196,o),
(616,230,o),
(616,234,cs),
(616,237,o),
(618,257,o),
(618,260,cs),
(618,260,o),
(618,263,o),
(618,265,cs),
(618,266,o),
(618,269,o),
(618,269,c),
(618,271,o),
(616,286,o),
(616,288,cs),
(616,297,o),
(617,339,o),
(617,348,cs),
(617,353,ls),
(617,371,o),
(618,451,o),
(618,469,cs),
(618,472,o),
(616,497,o),
(616,500,cs),
(616,501,o),
(618,512,o),
(618,514,cs),
(618,514,o),
(618,522,o),
(618,524,cs),
(618,530,o),
(618,534,o),
(616,539,c),
(616,540,o),
(613,542,o),
(612,542,cs),
(612,542,o),
(610,540,o),
(610,539,cs),
(609,538,o),
(608,531,o),
(608,530,cs),
(608,519,o),
(608,469,o),
(608,458,cs),
(608,453,o),
(607,417,o),
(607,412,cs),
(607,402,o),
(607,323,o),
(607,312,cs),
(607,308,o),
(605,279,o),
(605,275,cs),
(605,273,o),
(605,236,o),
(605,221,cs),
(605,213,o),
(605,176,o),
(605,168,cs)
);
},
{
closed = 1;
nodes = (
(424,275,o),
(465,242,o),
(473,236,cs),
(474,235,o),
(482,227,o),
(485,225,c),
(485,225,o),
(487,223,o),
(487,223,c),
(498,215,o),
(509,208,o),
(519,199,cs),
(522,197,o),
(525,193,o),
(529,192,c),
(529,192,o),
(535,192,o),
(535,192,c),
(535,204,o),
(524,207,o),
(516,213,c),
(516,213,o),
(509,219,o),
(507,221,c),
(507,221,o),
(504,223,o),
(504,223,c),
(504,224,o),
(496,229,o),
(495,230,cs),
(494,231,o),
(489,235,o),
(488,236,c),
(487,236,o),
(482,242,o),
(481,242,c),
(481,243,o),
(477,245,o),
(476,245,cs),
(475,246,o),
(472,248,o),
(471,249,cs),
(469,250,o),
(462,256,o),
(461,257,cs),
(459,259,o),
(458,261,o),
(456,261,c),
(418,292,l),
(417,292,o),
(416,294,o),
(415,294,cs),
(407,300,o),
(400,307,o),
(390,307,c),
(390,296,o),
(409,289,o),
(415,281,c)
);
},
{
closed = 1;
nodes = (
(387,342,o),
(388,342,o),
(390,342,cs),
(390,342,o),
(392,342,o),
(392,342,c),
(396,346,o),
(411,360,o),
(414,364,c),
(415,364,o),
(419,367,o),
(419,368,cs),
(419,368,o),
(421,369,o),
(421,369,c),
(421,371,o),
(429,379,o),
(430,380,cs),
(436,387,o),
(459,409,o),
(462,412,cs),
(464,414,o),
(476,423,o),
(477,424,cs),
(479,427,o),
(489,437,o),
(492,439,c),
(492,440,o),
(495,443,o),
(495,443,c),
(500,450,o),
(516,458,o),
(518,466,c),
(518,466,o),
(518,468,o),
(518,469,cs),
(518,470,o),
(518,473,o),
(516,473,cs),
(516,473,o),
(513,472,o),
(512,472,cs),
(498,459,o),
(483,445,o),
(469,430,c),
(469,430,o),
(468,427,o),
(468,427,c),
(468,427,o),
(467,426,o),
(467,426,c),
(460,421,o),
(453,416,o),
(448,410,cs),
(447,409,o),
(442,402,o),
(441,402,cs),
(440,401,o),
(436,398,o),
(436,397,c),
(431,393,o),
(414,376,o),
(410,372,c),
(409,372,o),
(405,370,o),
(404,369,c),
(404,369,o),
(402,366,o),
(402,365,cs),
(402,365,o),
(400,362,o),
(400,362,c),
(398,360,o),
(390,352,o),
(388,350,cs),
(387,348,o),
(387,347,o),
(387,345,cs)
);
},
{
closed = 1;
nodes = (
(365,370,o),
(369,371,o),
(369,371,c),
(370,371,o),
(372,371,o),
(372,371,c),
(386,383,l),
(386,383,o),
(386,383,o),
(387,383,cs),
(391,383,o),
(393,377,o),
(397,377,cs),
(398,377,o),
(398,377,o),
(399,379,c),
(399,379,o),
(399,383,o),
(399,383,c),
(399,385,o),
(399,388,o),
(399,388,c),
(399,388,o),
(398,391,o),
(398,391,c),
(398,391,o),
(398,391,o),
(398,391,c),
(398,395,o),
(400,397,o),
(400,401,cs),
(400,402,o),
(400,403,o),
(400,403,c),
(400,404,o),
(398,404,o),
(398,404,c),
(397,404,o),
(390,402,o),
(390,402,c),
(390,402,o),
(388,402,o),
(388,402,c),
(388,402,o),
(387,402,o),
(387,402,c),
(386,404,o),
(378,411,o),
(376,412,c),
(376,412,o),
(373,414,o),
(373,414,c),
(371,415,o),
(369,419,o),
(366,419,cs),
(365,419,o),
(363,418,o),
(363,416,cs),
(363,415,o),
(363,410,o),
(363,408,cs),
(363,406,o),
(363,401,o),
(363,400,cs),
(363,396,o),
(364,376,o),
(364,372,c)
);
},
{
closed = 1;
nodes = (
(372,393,o),
(372,396,o),
(375,396,cs),
(378,396,o),
(380,395,o),
(380,392,cs),
(380,391,o),
(375,387,o),
(375,387,c),
(375,387,o),
(374,387,o),
(374,387,c),
(372,387,o),
(372,389,o),
(372,391,cs)
);
},
{
closed = 1;
nodes = (
(407,404,o),
(407,403,o),
(407,403,c),
(407,402,o),
(409,400,o),
(410,400,cs),
(411,400,o),
(415,400,o),
(415,400,c),
(418,400,o),
(421,400,o),
(423,402,cs),
(429,406,o),
(434,411,o),
(434,418,cs),
(434,425,o),
(432,433,o),
(426,437,c),
(425,437,o),
(421,439,o),
(421,439,c),
(419,439,o),
(414,439,o),
(413,438,cs),
(412,437,o),
(405,433,o),
(404,433,cs),
(404,433,o),
(403,433,o),
(402,433,cs),
(400,433,o),
(399,433,o),
(399,436,cs),
(399,441,o),
(407,441,o),
(407,447,cs),
(407,449,o),
(404,455,o),
(402,454,cs),
(400,454,o),
(396,450,o),
(395,449,c),
(395,449,o),
(394,446,o),
(394,446,c),
(390,443,o),
(384,443,o),
(384,437,cs),
(384,435,o),
(384,433,o),
(386,431,c),
(386,431,o),
(392,425,o),
(392,424,c),
(395,422,o),
(397,416,o),
(401,416,cs),
(407,416,o),
(409,426,o),
(417,426,cs),
(420,426,o),
(422,424,o),
(422,420,cs),
(422,410,o),
(407,410,o),
(407,404,c)
);
},
{
closed = 1;
nodes = (
(422,455,o),
(427,449,o),
(438,449,cs),
(441,449,o),
(443,448,o),
(445,450,cs),
(446,451,o),
(450,455,o),
(450,456,cs),
(452,458,o),
(452,460,o),
(452,463,cs),
(452,469,o),
(450,474,o),
(446,480,cs),
(445,482,o),
(440,481,o),
(438,481,cs),
(430,481,o),
(429,483,o),
(425,476,cs),
(423,474,o),
(422,474,o),
(422,472,cs),
(422,472,o),
(422,467,o),
(422,465,cs)
);
},
{
closed = 1;
nodes = (
(431,470,o),
(433,472,o),
(438,472,cs),
(438,472,o),
(440,472,o),
(441,472,c),
(442,470,o),
(442,470,o),
(442,468,cs),
(442,464,o),
(442,460,o),
(437,460,cs),
(433,460,o),
(431,462,o),
(431,466,cs)
);
}
);
userData = {
com.typemytype.robofont.mark = (
0.939,
1,
0.6,
1
);
};
width = 684;
},
{
anchors = (
{
name = _measure;
}
);
color = 0;
layerId = "7B371D60-13E0-44E7-A998-8DAF0ECD409E";
shapes = (
{
closed = 1;
nodes = (
(607,-146,l),
(607,-146,o),
(607,-158,o),
(608,-163,cs),
(608,-165,o),
(610,-172,o),
(614,-172,cs),
(615,-172,o),
(616,-168,o),
(616,-168,c),
(616,-113,ls),
(616,-110,o),
(615,-107,o),
(612,-107,cs),
(611,-107,o),
(607,-110,o),
(607,-111,c),
(607,-129,ls),
(607,-132,o),
(603,-133,o),
(601,-133,cs),
(601,-133,o),
(589,-134,o),
(584,-134,cs),
(584,-134,o),
(583,-134,o),
(583,-134,c),
(583,-134,o),
(583,-134,o),
(583,-134,c),
(582,-134,o),
(574,-133,o),
(573,-133,cs),
(572,-133,o),
(560,-134,o),
(558,-134,cs),
(558,-134,o),
(551,-133,o),
(550,-133,cs),
(550,-133,o),
(549,-133,o),
(549,-133,c),
(549,-133,o),
(549,-133,o),
(549,-133,c),
(548,-133,o),
(543,-134,o),
(542,-134,cs),
(541,-134,o),
(532,-134,o),
(529,-134,cs),
(525,-134,o),
(516,-134,o),
(515,-134,cs),
(514,-134,o),
(506,-133,o),
(506,-133,c),
(506,-133,o),
(503,-133,o),
(502,-133,cs),
(501,-133,o),
(498,-133,o),
(498,-133,c),
(496,-133,o),
(486,-134,o),
(484,-134,cs),
(268,-134,ls),
(266,-134,o),
(251,-133,o),
(248,-133,cs),
(245,-133,o),
(225,-134,o),
(222,-134,cs),
(222,-134,o),
(208,-134,o),
(204,-134,cs),
(189,-134,o),
(174,-133,o),
(159,-133,cs),
(148,-133,o),
(138,-134,o),
(127,-134,cs),
(103,-134,o),
(79,-132,o),
(55,-133,c),
(55,-133,o),
(54,-132,o),
(54,-132,c),
(54,-131,o),
(52,-127,o),
(52,-126,cs),
(52,-125,o),
(52,-117,o),
(52,-117,c),
(52,-115,o),
(51,-109,o),
(51,-107,cs),
(51,-107,o),
(49,-107,o),
(49,-107,c),
(46,-107,o),
(44,-108,o),
(43,-111,c),
(43,-115,o),
(43,-131,o),
(43,-134,cs),
(43,-140,o),
(43,-156,o),
(43,-157,cs),
(43,-159,o),
(44,-167,o),
(44,-168,cs),
(45,-169,o),
(46,-171,o),
(48,-171,cs),
(50,-171,o),
(52,-167,o),
(52,-165,cs),
(52,-165,o),
(52,-156,o),
(52,-156,c),
(52,-154,o),
(54,-148,o),
(54,-146,cs),
(54,-146,o),
(55,-145,o),
(55,-145,c),
(56,-145,o),
(65,-145,o),
(66,-145,cs),
(68,-145,o),
(83,-144,o),
(85,-144,cs),
(93,-144,o),
(160,-144,o),
(168,-144,cs),
(171,-144,o),
(194,-142,o),
(197,-142,cs),
(197,-142,o),
(204,-142,o),
(206,-142,cs),
(208,-142,o),
(215,-142,o),
(216,-142,cs),
(223,-142,o),
(282,-144,o),
(290,-144,cs),
(329,-144,o),
(510,-144,o),
(549,-144,c),
(567,-145,o),
(587,-146,o),
(605,-145,c)
);
},
{
closed = 1;
nodes = (
(311,-89,o),
(311,-92,o),
(313,-98,c),
(313,-101,o),
(318,-105,o),
(320,-106,cs),
(321,-107,o),
(324,-110,o),
(325,-110,cs),
(326,-111,o),
(334,-113,o),
(336,-113,cs),
(336,-113,o),
(339,-112,o),
(340,-111,cs),
(342,-110,o),
(350,-107,o),
(351,-106,c),
(351,-106,o),
(353,-104,o),
(353,-103,cs),
(353,-103,o),
(357,-96,o),
(359,-94,c),
(359,-93,o),
(360,-91,o),
(360,-91,c),
(360,-91,o),
(360,-88,o),
(360,-87,cs),
(360,-80,o),
(357,-71,o),
(351,-68,c),
(350,-68,o),
(344,-66,o),
(341,-65,c),
(341,-65,o),
(340,-65,o),
(340,-65,c),
(336,-65,o),
(332,-69,o),
(327,-69,cs),
(327,-69,o),
(326,-69,o),
(326,-69,c),
(327,-67,o),
(330,-62,o),
(332,-60,cs),
(333,-59,o),
(342,-49,o),
(344,-48,cs),
(345,-47,o),
(345,-45,o),
(345,-43,cs),
(345,-40,o),
(344,-40,o),
(341,-40,cs),
(340,-40,o),
(340,-40,o),
(340,-40,c),
(339,-40,o),
(336,-42,o),
(336,-42,c),
(323,-53,o),
(311,-67,o),
(311,-84,cs)
);
},
{
closed = 1;
nodes = (
(322,-83,o),
(331,-76,o),
(338,-76,cs),
(344,-76,o),
(347,-78,o),
(349,-84,c),
(349,-84,o),
(349,-86,o),
(349,-86,c),
(349,-95,o),
(343,-100,o),
(334,-100,cs),
(329,-100,o),
(327,-98,o),
(324,-94,c),
(324,-94,o),
(322,-92,o),
(322,-91,cs),
(322,-91,o),
(322,-90,o),
(322,-90,c)
);
},
{
closed = 1;
nodes = (
(605,166,o),
(607,161,o),
(610,161,cs),
(610,161,o),
(611,161,o),
(611,161,c),
(615,168,l),
(615,169,o),
(616,186,o),
(616,192,cs),
(616,196,o),
(616,230,o),
(616,234,cs),
(616,237,o),
(618,257,o),
(618,260,cs),
(618,260,o),
(618,263,o),
(618,265,cs),
(618,266,o),
(618,269,o),
(618,269,c),
(618,271,o),
(616,286,o),
(616,288,cs),
(616,297,o),
(617,339,o),
(617,348,cs),
(617,353,ls),
(617,371,o),
(618,451,o),
(618,469,cs),
(618,472,o),
(616,497,o),
(616,500,cs),
(616,501,o),
(618,512,o),
(618,514,cs),
(618,514,o),
(618,522,o),
(618,524,cs),
(618,530,o),
(618,534,o),
(616,539,c),
(616,540,o),
(613,542,o),
(612,542,cs),
(612,542,o),
(610,540,o),
(610,539,cs),
(609,538,o),
(608,531,o),
(608,530,cs),
(608,519,o),
(608,469,o),
(608,458,cs),
(608,453,o),
(607,417,o),
(607,412,cs),
(607,402,o),
(607,323,o),
(607,312,cs),
(607,308,o),
(605,279,o),
(605,275,cs),
(605,273,o),
(605,236,o),
(605,221,cs),
(605,213,o),
(605,176,o),
(605,168,cs)
);
},
{
closed = 1;
nodes = (
(424,275,o),
(465,242,o),
(473,236,cs),
(474,235,o),
(482,227,o),
(485,225,c),
(485,225,o),
(487,223,o),
(487,223,c),
(498,215,o),
(509,208,o),
(519,199,cs),
(522,197,o),
(525,193,o),
(529,192,c),
(529,192,o),
(535,192,o),
(535,192,c),
(535,204,o),
(524,207,o),
(516,213,c),
(516,213,o),
(509,219,o),
(507,221,c),
(507,221,o),
(504,223,o),
(504,223,c),
(504,224,o),
(496,229,o),
(495,230,cs),
(494,231,o),
(489,235,o),
(488,236,c),
(487,236,o),
(482,242,o),
(481,242,c),
(481,243,o),
(477,245,o),
(476,245,cs),
(475,246,o),
(472,248,o),
(471,249,cs),
(469,250,o),
(462,256,o),
(461,257,cs),
(459,259,o),
(458,261,o),
(456,261,c),
(418,292,l),
(417,292,o),
(416,294,o),
(415,294,cs),
(407,300,o),
(400,307,o),
(390,307,c),
(390,296,o),
(409,289,o),
(415,281,c)
);
},
{
closed = 1;
nodes = (
(387,342,o),
(388,342,o),
(390,342,cs),
(390,342,o),
(392,342,o),
(392,342,c),
(396,346,o),
(411,360,o),
(414,364,c),
(415,364,o),
(419,367,o),
(419,368,cs),
(419,368,o),
(421,369,o),
(421,369,c),
(421,371,o),
(429,379,o),
(430,380,cs),
(436,387,o),
(459,409,o),
(462,412,cs),
(464,414,o),
(476,423,o),
(477,424,cs),
(479,427,o),
(489,437,o),
(492,439,c),
(492,440,o),
(495,443,o),
(495,443,c),
(500,450,o),
(516,458,o),
(518,466,c),
(518,466,o),
(518,468,o),
(518,469,cs),
(518,470,o),
(518,473,o),
(516,473,cs),
(516,473,o),
(513,472,o),
(512,472,cs),
(498,459,o),
(483,445,o),
(469,430,c),
(469,430,o),
(468,427,o),
(468,427,c),
(468,427,o),
(467,426,o),
(467,426,c),
(460,421,o),
(453,416,o),
(448,410,cs),
(447,409,o),
(442,402,o),
(441,402,cs),
(440,401,o),
(436,398,o),
(436,397,c),
(431,393,o),
(414,376,o),
(410,372,c),
(409,372,o),
(405,370,o),
(404,369,c),
(404,369,o),
(402,366,o),
(402,365,cs),
(402,365,o),
(400,362,o),
(400,362,c),
(398,360,o),
(390,352,o),
(388,350,cs),
(387,348,o),
(387,347,o),
(387,345,cs)
);
},
{
closed = 1;
nodes = (
(365,370,o),
(369,371,o),
(369,371,c),
(370,371,o),
(372,371,o),
(372,371,c),
(386,383,l),
(386,383,o),
(386,383,o),
(387,383,cs),
(391,383,o),
(393,377,o),
(397,377,cs),
(398,377,o),
(398,377,o),
(399,379,c),
(399,379,o),
(399,383,o),
(399,383,c),
(399,385,o),
(399,388,o),
(399,388,c),
(399,388,o),
(398,391,o),
(398,391,c),
(398,391,o),
(398,391,o),
(398,391,c),
(398,395,o),
(400,397,o),
(400,401,cs),
(400,402,o),
(400,403,o),
(400,403,c),
(400,404,o),
(398,404,o),
(398,404,c),
(397,404,o),
(390,402,o),
(390,402,c),
(390,402,o),
(388,402,o),
(388,402,c),
(388,402,o),
(387,402,o),
(387,402,c),
(386,404,o),
(378,411,o),
(376,412,c),
(376,412,o),
(373,414,o),
(373,414,c),
(371,415,o),
(369,419,o),
(366,419,cs),
(365,419,o),
(363,418,o),
(363,416,cs),
(363,415,o),
(363,410,o),
(363,408,cs),
(363,406,o),
(363,401,o),
(363,400,cs),
(363,396,o),
(364,376,o),
(364,372,c)
);
},
{
closed = 1;
nodes = (
(372,393,o),
(372,396,o),
(375,396,cs),
(378,396,o),
(380,395,o),
(380,392,cs),
(380,391,o),
(375,387,o),
(375,387,c),
(375,387,o),
(374,387,o),
(374,387,c),
(372,387,o),
(372,389,o),
(372,391,cs)
);
},
{
closed = 1;
nodes = (
(407,404,o),
(407,403,o),
(407,403,c),
(407,402,o),
(409,400,o),
(410,400,cs),
(411,400,o),
(415,400,o),
(415,400,c),
(418,400,o),
(421,400,o),
(423,402,cs),
(429,406,o),
(434,411,o),
(434,418,cs),
(434,425,o),
(432,433,o),
(426,437,c),
(425,437,o),
(421,439,o),
(421,439,c),
(419,439,o),
(414,439,o),
(413,438,cs),
(412,437,o),
(405,433,o),
(404,433,cs),
(404,433,o),
(403,433,o),
(402,433,cs),
(400,433,o),
(399,433,o),
(399,436,cs),
(399,441,o),
(407,441,o),
(407,447,cs),
(407,449,o),
(404,455,o),
(402,454,cs),
(400,454,o),
(396,450,o),
(395,449,c),
(395,449,o),
(394,446,o),
(394,446,c),
(390,443,o),
(384,443,o),
(384,437,cs),
(384,435,o),
(384,433,o),
(386,431,c),
(386,431,o),
(392,425,o),
(392,424,c),
(395,422,o),
(397,416,o),
(401,416,cs),
(407,416,o),
(409,426,o),
(417,426,cs),
(420,426,o),
(422,424,o),
(422,420,cs),
(422,410,o),
(407,410,o),
(407,404,c)
);
},
{
closed = 1;
nodes = (
(422,455,o),
(427,449,o),
(438,449,cs),
(441,449,o),
(443,448,o),
(445,450,cs),
(446,451,o),
(450,455,o),
(450,456,cs),
(452,458,o),
(452,460,o),
(452,463,cs),
(452,469,o),
(450,474,o),
(446,480,cs),
(445,482,o),
(440,481,o),
(438,481,cs),
(430,481,o),
(429,483,o),
(425,476,cs),
(423,474,o),
(422,474,o),
(422,472,cs),
(422,472,o),
(422,467,o),
(422,465,cs)
);
},
{
closed = 1;
nodes = (
(431,470,o),
(433,472,o),
(438,472,cs),
(438,472,o),
(440,472,o),
(441,472,c),
(442,470,o),
(442,470,o),
(442,468,cs),
(442,464,o),
(442,460,o),
(437,460,cs),
(433,460,o),
(431,462,o),
(431,466,cs)
);
}
);
userData = {
com.typemytype.robofont.mark = (
0.939,
1,
0.6,
1
);
};
width = 684;
}
);
},
{
glyphname = D;
kernRight = O;
lastChange = "2023-06-25 14:23:23 +0000";
layers = (
{
anchors = (
{
name = bottom;
pos = (338,0);
},
{
name = center;
pos = (338,330);
},
{
name = measure;
},
{
name = top;
pos = (338,660);
}
);
layerId = master01;
shapes = (
{
closed = 1;
nodes = (
(91,0,o),
(111,0,o),
(115,0,cs),
(117,0,o),
(159,0,o),
(175,0,cs),
(227,0,o),
(280,-1,o),
(332,5,cs),
(343,6,o),
(352,8,o),
(363,10,c),
(364,10,o),
(369,12,o),
(370,12,cs),
(403,21,o),
(434,33,o),
(464,52,cs),
(465,53,o),
(472,57,o),
(472,58,c),
(473,58,o),
(477,60,o),
(478,60,cs),
(486,66,o),
(492,72,o),
(499,78,cs),
(501,79,o),
(507,84,o),
(507,85,c),
(522,99,o),
(534,111,o),
(546,127,cs),
(561,145,o),
(574,165,o),
(586,186,cs),
(599,211,o),
(608,241,o),
(613,268,c),
(613,268,o),
(613,270,o),
(613,270,c),
(613,270,o),
(614,273,o),
(614,274,cs),
(614,275,o),
(615,278,o),
(615,279,cs),
(617,288,o),
(617,298,o),
(618,307,c),
(618,308,o),
(619,312,o),
(619,313,cs),
(619,315,o),
(619,328,o),
(619,331,cs),
(619,357,o),
(617,382,o),
(611,407,cs),
(608,422,o),
(602,436,o),
(598,450,c),
(598,450,o),
(596,453,o),
(596,453,c),
(590,467,o),
(584,481,o),
(576,495,cs),
(569,507,o),
(563,520,o),
(555,531,cs),
(535,557,o),
(515,581,o),
(488,599,cs),
(482,604,o),
(474,608,o),
(467,614,c),
(466,614,o),
(462,618,o),
(461,619,c),
(461,619,o),
(458,621,o),
(457,622,cs),
(445,629,o),
(432,635,o),
(418,641,cs),
(415,642,o),
(389,652,o),
(386,653,cs),
(383,654,o),
(362,659,o),
(359,660,c),
(358,660,o),
(356,661,o),
(355,661,cs),
(354,661,o),
(352,661,o),
(351,661,cs),
(350,661,o),
(346,662,o),
(345,662,cs),
(316,666,o),
(286,669,o),
(256,670,c),
(256,670,o),
(256,670,o),
(256,670,c),
(256,670,o),
(255,670,o),
(255,670,c),
(252,670,o),
(238,669,o),
(235,669,cs),
(84,669,l),
(80,664,l),
(80,663,o),
(80,637,o),
(80,626,cs),
(80,566,o),
(81,507,o),
(81,448,cs),
(81,430,o),
(81,381,o),
(81,378,cs),
(81,369,o),
(80,295,o),
(80,286,cs),
(80,281,o),
(80,245,o),
(80,240,cs),
(80,238,o),
(79,230,o),
(78,228,c),
(78,10,ls),
(78,6,o),
(82,2,o),
(86,1,cs)
);
},
{
closed = 1;
nodes = (
(198,117,o),
(197,156,o),
(197,164,cs),
(197,165,o),
(197,170,o),
(197,172,cs),
(197,174,o),
(197,180,o),
(197,181,cs),
(197,185,o),
(198,214,o),
(198,218,cs),
(198,223,o),
(198,258,o),
(198,263,cs),
(198,267,o),
(200,286,o),
(200,290,cs),
(200,442,ls),
(200,446,o),
(201,462,o),
(201,465,cs),
(201,472,o),
(201,525,o),
(201,531,cs),
(201,533,o),
(202,545,o),
(202,546,cs),
(202,549,o),
(202,561,o),
(202,564,cs),
(202,564,o),
(204,568,o),
(205,568,c),
(300,568,l),
(300,568,o),
(308,567,o),
(310,566,c),
(323,564,o),
(338,560,o),
(350,556,cs),
(369,549,o),
(389,538,o),
(406,526,cs),
(407,525,o),
(411,521,o),
(412,521,c),
(412,520,o),
(420,515,o),
(421,514,cs),
(443,494,o),
(461,467,o),
(474,440,c),
(474,439,o),
(476,434,o),
(476,433,cs),
(480,422,o),
(485,412,o),
(488,400,cs),
(489,398,o),
(492,386,o),
(492,384,cs),
(492,384,o),
(492,381,o),
(492,380,cs),
(492,380,o),
(494,373,o),
(494,371,cs),
(494,370,o),
(495,365,o),
(495,364,cs),
(495,363,o),
(495,353,o),
(495,352,cs),
(495,351,o),
(497,338,o),
(497,337,cs),
(497,336,o),
(497,331,o),
(497,330,cs),
(497,328,o),
(497,322,o),
(497,322,c),
(495,296,o),
(492,270,o),
(484,244,cs),
(484,242,o),
(482,237,o),
(482,236,cs),
(482,235,o),
(478,230,o),
(478,229,cs),
(477,228,o),
(476,222,o),
(475,221,c),
(475,220,o),
(472,215,o),
(471,214,cs),
(470,212,o),
(463,197,o),
(461,195,c),
(461,195,o),
(459,191,o),
(457,190,c),
(450,181,o),
(443,168,o),
(434,160,cs),
(431,158,o),
(416,144,o),
(413,141,c),
(406,139,o),
(399,133,o),
(393,129,c),
(392,129,o),
(387,127,o),
(386,127,cs),
(385,126,o),
(379,123,o),
(378,122,c),
(376,122,o),
(364,117,o),
(360,116,cs),
(358,115,o),
(350,112,o),
(348,112,cs),
(345,111,o),
(341,111,o),
(339,109,c),
(308,104,l),
(204,104,l),
(203,104,o),
(200,104,o),
(200,105,cs),
(199,106,o),
(198,108,o),
(198,109,c)
);
}
);
width = 675;
},
{
anchors = (
{
name = bottom;
pos = (338,0);
},
{
name = center;
pos = (338,330);
},
{
name = measure;
},
{
name = top;
pos = (338,660);
}
);
color = 0;
layerId = "7B371D60-13E0-44E7-A998-8DAF0ECD409E";
shapes = (
{
closed = 1;
nodes = (
(91,0,o),
(111,0,o),
(115,0,cs),
(117,0,o),
(159,0,o),
(175,0,cs),
(227,0,o),
(280,-1,o),
(332,5,cs),
(343,6,o),
(352,8,o),
(363,10,c),
(364,10,o),
(369,12,o),
(370,12,cs),
(403,21,o),
(434,33,o),
(464,52,cs),
(465,53,o),
(472,57,o),
(472,58,c),
(473,58,o),
(477,60,o),
(478,60,cs),
(486,66,o),
(492,72,o),
(499,78,cs),
(501,79,o),
(507,84,o),
(507,85,c),
(522,99,o),
(534,111,o),
(546,127,cs),
(561,145,o),
(574,165,o),
(586,186,cs),
(599,211,o),
(608,241,o),
(613,268,c),
(613,268,o),
(613,270,o),
(613,270,c),
(613,270,o),
(614,273,o),
(614,274,cs),
(614,275,o),
(615,278,o),
(615,279,cs),
(617,288,o),
(617,298,o),
(618,307,c),
(618,308,o),
(619,312,o),
(619,313,cs),
(619,315,o),
(619,328,o),
(619,331,cs),
(619,357,o),
(617,382,o),
(611,407,cs),
(608,422,o),
(602,436,o),
(598,450,c),
(598,450,o),
(596,453,o),
(596,453,c),
(590,467,o),
(584,481,o),
(576,495,cs),
(569,507,o),
(563,520,o),
(555,531,cs),
(535,557,o),
(515,581,o),
(488,599,cs),
(482,604,o),
(474,608,o),
(467,614,c),
(466,614,o),
(462,618,o),
(461,619,c),
(461,619,o),
(458,621,o),
(457,622,cs),
(445,629,o),
(432,635,o),
(418,641,cs),
(415,642,o),
(389,652,o),
(386,653,cs),
(383,654,o),
(362,659,o),
(359,660,c),
(358,660,o),
(356,661,o),
(355,661,cs),
(354,661,o),
(352,661,o),
(351,661,cs),
(350,661,o),
(346,662,o),
(345,662,cs),
(316,666,o),
(286,669,o),
(256,670,c),
(256,670,o),
(256,670,o),
(256,670,c),
(256,670,o),
(255,670,o),
(255,670,c),
(252,670,o),
(238,669,o),
(235,669,cs),
(84,669,l),
(80,664,l),
(80,663,o),
(80,637,o),
(80,626,cs),
(80,566,o),
(81,507,o),
(81,448,cs),
(81,430,o),
(81,381,o),
(81,378,cs),
(81,369,o),
(80,295,o),
(80,286,cs),
(80,281,o),
(80,245,o),
(80,240,cs),
(80,238,o),
(79,230,o),
(78,228,c),
(78,10,ls),
(78,6,o),
(82,2,o),
(86,1,cs)
);
},
{
closed = 1;
nodes = (
(198,117,o),
(197,156,o),
(197,164,cs),
(197,165,o),
(197,170,o),
(197,172,cs),
(197,174,o),
(197,180,o),
(197,181,cs),
(197,185,o),
(198,214,o),
(198,218,cs),
(198,223,o),
(198,258,o),
(198,263,cs),
(198,267,o),
(200,286,o),
(200,290,cs),
(200,442,ls),
(200,446,o),
(201,462,o),
(201,465,cs),
(201,472,o),
(201,525,o),
(201,531,cs),
(201,533,o),
(202,545,o),
(202,546,cs),
(202,549,o),
(202,561,o),
(202,564,cs),
(202,564,o),
(204,568,o),
(205,568,c),
(300,568,l),
(300,568,o),
(308,567,o),
(310,566,c),
(323,564,o),
(338,560,o),
(350,556,cs),
(369,549,o),
(389,538,o),
(406,526,cs),
(407,525,o),
(411,521,o),
(412,521,c),
(412,520,o),
(420,515,o),
(421,514,cs),
(443,494,o),
(461,467,o),
(474,440,c),
(474,439,o),
(476,434,o),
(476,433,cs),
(480,422,o),
(485,412,o),
(488,400,cs),
(489,398,o),
(492,386,o),
(492,384,cs),
(492,384,o),
(492,381,o),
(492,380,cs),
(492,380,o),
(494,373,o),
(494,371,cs),
(494,370,o),
(495,365,o),
(495,364,cs),
(495,363,o),
(495,353,o),
(495,352,cs),
(495,351,o),
(497,338,o),
(497,337,cs),
(497,336,o),
(497,331,o),
(497,330,cs),
(497,328,o),
(497,322,o),
(497,322,c),
(495,296,o),
(492,270,o),
(484,244,cs),
(484,242,o),
(482,237,o),
(482,236,cs),
(482,235,o),
(478,230,o),
(478,229,cs),
(477,228,o),
(476,222,o),
(475,221,c),
(475,220,o),
(472,215,o),
(471,214,cs),
(470,212,o),
(463,197,o),
(461,195,c),
(461,195,o),
(459,191,o),
(457,190,c),
(450,181,o),
(443,168,o),
(434,160,cs),
(431,158,o),
(416,144,o),
(413,141,c),
(406,139,o),
(399,133,o),
(393,129,c),
(392,129,o),
(387,127,o),
(386,127,cs),
(385,126,o),
(379,123,o),
(378,122,c),
(376,122,o),
(364,117,o),
(360,116,cs),
(358,115,o),
(350,112,o),
(348,112,cs),
(345,111,o),
(341,111,o),
(339,109,c),
(308,104,l),
(204,104,l),
(203,104,o),
(200,104,o),
(200,105,cs),
(199,106,o),
(198,108,o),
(198,109,c)
);
}
);
width = 675;
}
);
unicode = 68;
},
{
glyphname = D.ss02;
kernRight = O;
lastChange = "2023-06-25 14:23:23 +0000";
layers = (
{
anchors = (
{
name = _measure;
}
);
layerId = master01;
shapes = (
{
closed = 1;
nodes = (
(615,-148,o),
(609,-170,o),
(619,-170,cs),
(621,-170,o),
(623,-166,o),
(623,-164,cs),
(623,-162,o),
(623,-152,o),
(623,-150,cs),
(623,-147,o),
(623,-137,o),
(623,-137,c),
(623,-132,o),
(622,-110,o),
(622,-106,cs),
(622,-105,o),
(620,-103,o),
(619,-103,cs),
(619,-103,o),
(618,-103,o),
(617,-103,cs),
(616,-103,o),
(615,-102,o),
(614,-104,cs),
(613,-105,o),
(613,-109,o),
(613,-110,cs),
(613,-110,o),
(613,-112,o),
(614,-112,c),
(614,-114,o),
(613,-125,o),
(613,-127,cs),
(613,-129,o),
(612,-132,o),
(610,-133,cs),
(608,-133,o),
(603,-133,o),
(602,-133,cs),
(600,-133,o),
(594,-133,o),
(594,-133,c),
(593,-133,o),
(590,-131,o),
(590,-131,c),
(589,-131,o),
(587,-132,o),
(587,-133,c),
(582,-133,o),
(561,-133,o),
(556,-133,cs),
(554,-133,o),
(538,-134,o),
(536,-134,cs),
(536,-134,o),
(535,-134,o),
(535,-134,c),
(535,-134,o),
(534,-134,o),
(534,-134,c),
(533,-134,o),
(524,-133,o),
(522,-133,cs),
(521,-133,o),
(505,-133,o),
(499,-133,cs),
(493,-133,o),
(476,-133,o),
(475,-133,cs),
(470,-133,o),
(443,-134,o),
(437,-134,cs),
(124,-134,l),
(91,-133,l),
(90,-133,o),
(89,-131,o),
(88,-130,c),
(88,-130,o),
(88,-129,o),
(88,-129,c),
(88,-124,o),
(89,-123,o),
(89,-118,cs),
(89,-114,o),
(89,-106,o),
(84,-106,cs),
(83,-106,o),
(82,-106,o),
(82,-106,c),
(82,-106,o),
(80,-108,o),
(80,-108,c),
(80,-166,l),
(80,-167,o),
(82,-168,o),
(82,-169,cs),
(82,-169,o),
(83,-169,o),
(84,-169,cs),
(86,-169,o),
(90,-168,o),
(90,-165,cs),
(90,-145,l),
(403,-145,l),
(408,-144,o),
(431,-143,o),
(436,-143,cs),
(438,-143,o),
(479,-143,o),
(495,-143,cs),
(509,-143,o),
(552,-143,o),
(555,-143,cs),
(563,-143,o),
(602,-144,o),
(611,-145,c)
);
},
{
closed = 1;
nodes = (
(358,-114,o),
(358,-115,o),
(362,-115,cs),
(362,-115,o),
(364,-115,o),
(364,-115,c),
(367,-114,o),
(377,-92,o),
(376,-91,c),
(377,-88,o),
(382,-77,o),
(383,-75,c),
(383,-74,o),
(386,-71,o),
(386,-71,c),
(386,-70,o),
(387,-64,o),
(387,-64,c),
(389,-61,o),
(394,-50,o),
(395,-48,c),
(395,-48,o),
(395,-46,o),
(395,-46,c),
(395,-44,o),
(393,-44,o),
(391,-44,cs),
(390,-44,o),
(389,-44,o),
(387,-45,c),
(386,-48,o),
(379,-60,o),
(378,-62,cs),
(375,-67,o),
(374,-73,o),
(372,-79,cs),
(368,-89,o),
(362,-100,o),
(358,-110,c),
(358,-110,o),
(358,-110,o),
(358,-111,c)
);
},
{
closed = 1;
nodes = (
(389,-109,o),
(389,-110,o),
(389,-110,c),
(389,-110,o),
(392,-113,o),
(393,-114,c),
(393,-114,o),
(398,-114,o),
(399,-114,cs),
(400,-114,o),
(405,-114,o),
(405,-114,c),
(408,-114,o),
(418,-112,o),
(421,-112,cs),
(422,-112,o),
(424,-110,o),
(424,-110,c),
(424,-110,o),
(424,-108,o),
(424,-108,c),
(424,-107,o),
(424,-106,o),
(424,-106,c),
(423,-104,o),
(422,-102,o),
(421,-102,c),
(408,-102,l),
(411,-93,o),
(421,-89,o),
(421,-79,cs),
(421,-71,o),
(414,-65,o),
(407,-65,cs),
(398,-65,o),
(389,-71,o),
(389,-80,cs),
(389,-83,o),
(389,-84,o),
(392,-84,cs),
(397,-84,o),
(397,-76,o),
(405,-76,cs),
(408,-76,o),
(409,-79,o),
(409,-81,cs),
(409,-82,o),
(409,-83,o),
(409,-83,c),
(407,-87,o),
(404,-91,o),
(401,-93,cs),
(397,-97,o),
(389,-102,o),
(389,-108,c)
);
},
{
closed = 1;
nodes = (
(287,-100,o),
(296,-109,o),
(300,-110,c),
(301,-110,o),
(308,-110,o),
(309,-110,cs),
(312,-110,o),
(318,-110,o),
(318,-110,c),
(319,-110,o),
(322,-109,o),
(323,-108,cs),
(325,-107,o),
(331,-100,o),
(332,-99,c),
(332,-98,o),
(333,-94,o),
(333,-93,cs),
(333,-93,o),
(335,-90,o),
(335,-89,cs),
(335,-89,o),
(335,-86,o),
(335,-85,cs),
(335,-77,o),
(332,-68,o),
(325,-64,c),
(324,-62,o),
(318,-60,o),
(317,-60,cs),
(316,-59,o),
(308,-59,o),
(306,-60,c),
(304,-59,o),
(305,-57,o),
(305,-56,cs),
(305,-45,o),
(322,-55,o),
(328,-45,c),
(328,-45,o),
(328,-44,o),
(328,-44,c),
(328,-41,o),
(326,-39,o),
(324,-39,cs),
(297,-39,ls),
(294,-39,o),
(293,-42,o),
(293,-45,cs),
(293,-48,o),
(294,-50,o),
(294,-54,cs),
(294,-54,o),
(294,-57,o),
(294,-57,c),
(294,-58,o),
(293,-64,o),
(293,-65,cs),
(293,-68,o),
(295,-72,o),
(298,-72,cs),
(302,-72,o),
(305,-71,o),
(309,-71,cs),
(318,-71,o),
(324,-77,o),
(324,-85,cs),
(324,-91,o),
(313,-99,o),
(308,-99,cs),
(302,-99,o),
(300,-95,o),
(296,-91,c),
(296,-91,o),
(294,-91,o),
(294,-91,c),
(291,-91,o),
(287,-93,o),
(287,-97,cs)
);
},
{
closed = 1;
nodes = (
(356,-56,o),
(358,-56,o),
(358,-57,c),
(358,-76,ls),
(358,-79,o),
(361,-80,o),
(363,-80,cs),
(366,-80,o),
(366,-77,o),
(367,-75,cs),
(368,-73,o),
(368,-68,o),
(368,-68,c),
(368,-67,o),
(368,-61,o),
(368,-59,cs),
(368,-54,o),
(369,-49,o),
(367,-44,c),
(366,-44,o),
(365,-44,o),
(364,-44,cs),
(358,-44,o),
(347,-48,o),
(344,-53,c),
(344,-53,o),
(344,-54,o),
(344,-54,c),
(344,-56,o),
(347,-57,o),
(349,-57,cs),
(351,-57,o),
(354,-56,o),
(356,-56,c)
);
},
{
closed = 1;
nodes = (
(263,333,o),
(265,332,o),
(265,332,c),
(265,331,o),
(266,323,o),
(266,322,cs),
(267,320,o),
(268,315,o),
(271,315,cs),
(279,315,o),
(272,332,o),
(281,333,c),
(281,333,o),
(285,332,o),
(286,332,c),
(286,320,l),
(286,319,o),
(288,316,o),
(289,315,c),
(289,315,o),
(289,315,o),
(290,315,cs),
(293,315,o),
(295,317,o),
(296,320,cs),
(296,322,o),
(298,330,o),
(298,332,c),
(309,332,l),
(310,332,o),
(310,336,o),
(310,336,c),
(310,337,o),
(310,338,o),
(310,338,c),
(310,339,o),
(306,342,o),
(305,342,cs),
(303,343,o),
(300,341,o),
(298,344,c),
(298,344,o),
(296,350,o),
(296,351,cs),
(295,353,o),
(294,356,o),
(291,356,cs),
(285,356,o),
(288,340,o),
(283,340,cs),
(283,340,o),
(282,340,o),
(282,340,c),
(276,344,o),
(277,348,o),
(275,355,cs),
(275,357,o),
(273,356,o),
(271,356,cs),
(262,356,o),
(268,344,o),
(263,342,c),
(260,342,o),
(253,342,o),
(251,338,c),
(251,338,o),
(251,337,o),
(251,336,cs),
(251,336,o),
(251,334,o),
(251,334,c),
(251,334,o),
(253,333,o),
(254,333,cs),
(255,333,o),
(262,333,o),
(263,333,c)
);
}
);
userData = {
com.typemytype.robofont.mark = (
0.939,
1,
0.6,
1
);
};
width = 675;
},
{
anchors = (
{
name = _measure;
}
);
color = 0;
layerId = "7B371D60-13E0-44E7-A998-8DAF0ECD409E";
shapes = (
{
closed = 1;
nodes = (
(615,-148,o),
(609,-170,o),
(619,-170,cs),
(621,-170,o),
(623,-166,o),
(623,-164,cs),
(623,-162,o),
(623,-152,o),
(623,-150,cs),
(623,-147,o),
(623,-137,o),
(623,-137,c),
(623,-132,o),
(622,-110,o),
(622,-106,cs),
(622,-105,o),
(620,-103,o),
(619,-103,cs),
(619,-103,o),
(618,-103,o),
(617,-103,cs),
(616,-103,o),
(615,-102,o),
(614,-104,cs),
(613,-105,o),
(613,-109,o),
(613,-110,cs),
(613,-110,o),
(613,-112,o),
(614,-112,c),
(614,-114,o),
(613,-125,o),
(613,-127,cs),
(613,-129,o),
(612,-132,o),
(610,-133,cs),
(608,-133,o),
(603,-133,o),
(602,-133,cs),
(600,-133,o),
(594,-133,o),
(594,-133,c),
(593,-133,o),
(590,-131,o),
(590,-131,c),
(589,-131,o),
(587,-132,o),
(587,-133,c),
(582,-133,o),
(561,-133,o),
(556,-133,cs),
(554,-133,o),
(538,-134,o),
(536,-134,cs),
(536,-134,o),
(535,-134,o),
(535,-134,c),
(535,-134,o),
(534,-134,o),
(534,-134,c),
(533,-134,o),
(524,-133,o),
(522,-133,cs),
(521,-133,o),
(505,-133,o),
(499,-133,cs),
(493,-133,o),
(476,-133,o),
(475,-133,cs),
(470,-133,o),
(443,-134,o),
(437,-134,cs),
(124,-134,l),
(91,-133,l),
(90,-133,o),
(89,-131,o),
(88,-130,c),
(88,-130,o),
(88,-129,o),
(88,-129,c),
(88,-124,o),
(89,-123,o),
(89,-118,cs),
(89,-114,o),
(89,-106,o),
(84,-106,cs),
(83,-106,o),
(82,-106,o),
(82,-106,c),
(82,-106,o),
(80,-108,o),
(80,-108,c),
(80,-166,l),
(80,-167,o),
(82,-168,o),
(82,-169,cs),
(82,-169,o),
(83,-169,o),
(84,-169,cs),
(86,-169,o),
(90,-168,o),
(90,-165,cs),
(90,-145,l),
(403,-145,l),
(408,-144,o),
(431,-143,o),
(436,-143,cs),
(438,-143,o),
(479,-143,o),
(495,-143,cs),
(509,-143,o),
(552,-143,o),
(555,-143,cs),
(563,-143,o),
(602,-144,o),
(611,-145,c)
);
},
{
closed = 1;
nodes = (
(358,-114,o),
(358,-115,o),
(362,-115,cs),
(362,-115,o),
(364,-115,o),
(364,-115,c),
(367,-114,o),
(377,-92,o),
(376,-91,c),
(377,-88,o),
(382,-77,o),
(383,-75,c),
(383,-74,o),
(386,-71,o),
(386,-71,c),
(386,-70,o),
(387,-64,o),
(387,-64,c),
(389,-61,o),
(394,-50,o),
(395,-48,c),
(395,-48,o),
(395,-46,o),
(395,-46,c),
(395,-44,o),
(393,-44,o),
(391,-44,cs),
(390,-44,o),
(389,-44,o),
(387,-45,c),
(386,-48,o),
(379,-60,o),
(378,-62,cs),
(375,-67,o),
(374,-73,o),
(372,-79,cs),
(368,-89,o),
(362,-100,o),
(358,-110,c),
(358,-110,o),
(358,-110,o),
(358,-111,c)
);
},
{
closed = 1;
nodes = (
(389,-109,o),
(389,-110,o),
(389,-110,c),
(389,-110,o),
(392,-113,o),
(393,-114,c),
(393,-114,o),
(398,-114,o),
(399,-114,cs),
(400,-114,o),
(405,-114,o),
(405,-114,c),
(408,-114,o),
(418,-112,o),
(421,-112,cs),
(422,-112,o),
(424,-110,o),
(424,-110,c),
(424,-110,o),
(424,-108,o),
(424,-108,c),
(424,-107,o),
(424,-106,o),
(424,-106,c),
(423,-104,o),
(422,-102,o),
(421,-102,c),
(408,-102,l),
(411,-93,o),
(421,-89,o),
(421,-79,cs),
(421,-71,o),
(414,-65,o),
(407,-65,cs),
(398,-65,o),
(389,-71,o),
(389,-80,cs),
(389,-83,o),
(389,-84,o),
(392,-84,cs),
(397,-84,o),
(397,-76,o),
(405,-76,cs),
(408,-76,o),
(409,-79,o),
(409,-81,cs),
(409,-82,o),
(409,-83,o),
(409,-83,c),
(407,-87,o),
(404,-91,o),
(401,-93,cs),
(397,-97,o),
(389,-102,o),
(389,-108,c)
);
},
{
closed = 1;
nodes = (
(287,-100,o),
(296,-109,o),
(300,-110,c),
(301,-110,o),
(308,-110,o),
(309,-110,cs),
(312,-110,o),
(318,-110,o),
(318,-110,c),
(319,-110,o),
(322,-109,o),
(323,-108,cs),
(325,-107,o),
(331,-100,o),
(332,-99,c),
(332,-98,o),
(333,-94,o),
(333,-93,cs),
(333,-93,o),
(335,-90,o),
(335,-89,cs),
(335,-89,o),
(335,-86,o),
(335,-85,cs),
(335,-77,o),
(332,-68,o),
(325,-64,c),
(324,-62,o),
(318,-60,o),
(317,-60,cs),
(316,-59,o),
(308,-59,o),
(306,-60,c),
(304,-59,o),
(305,-57,o),
(305,-56,cs),
(305,-45,o),
(322,-55,o),
(328,-45,c),
(328,-45,o),
(328,-44,o),
(328,-44,c),
(328,-41,o),
(326,-39,o),
(324,-39,cs),
(297,-39,ls),
(294,-39,o),
(293,-42,o),
(293,-45,cs),
(293,-48,o),
(294,-50,o),
(294,-54,cs),
(294,-54,o),
(294,-57,o),
(294,-57,c),
(294,-58,o),
(293,-64,o),
(293,-65,cs),
(293,-68,o),
(295,-72,o),
(298,-72,cs),
(302,-72,o),
(305,-71,o),
(309,-71,cs),
(318,-71,o),
(324,-77,o),
(324,-85,cs),
(324,-91,o),
(313,-99,o),
(308,-99,cs),
(302,-99,o),
(300,-95,o),
(296,-91,c),
(296,-91,o),
(294,-91,o),
(294,-91,c),
(291,-91,o),
(287,-93,o),
(287,-97,cs)
);
},
{
closed = 1;
nodes = (
(356,-56,o),
(358,-56,o),
(358,-57,c),
(358,-76,ls),
(358,-79,o),
(361,-80,o),
(363,-80,cs),
(366,-80,o),
(366,-77,o),
(367,-75,cs),
(368,-73,o),
(368,-68,o),
(368,-68,c),
(368,-67,o),
(368,-61,o),
(368,-59,cs),
(368,-54,o),
(369,-49,o),
(367,-44,c),
(366,-44,o),
(365,-44,o),
(364,-44,cs),
(358,-44,o),
(347,-48,o),
(344,-53,c),
(344,-53,o),
(344,-54,o),
(344,-54,c),
(344,-56,o),
(347,-57,o),
(349,-57,cs),
(351,-57,o),
(354,-56,o),
(356,-56,c)
);
},
{
closed = 1;
nodes = (
(263,333,o),
(265,332,o),
(265,332,c),
(265,331,o),
(266,323,o),
(266,322,cs),
(267,320,o),
(268,315,o),
(271,315,cs),
(279,315,o),
(272,332,o),
(281,333,c),
(281,333,o),
(285,332,o),
(286,332,c),
(286,320,l),
(286,319,o),
(288,316,o),
(289,315,c),
(289,315,o),
(289,315,o),
(290,315,cs),
(293,315,o),
(295,317,o),
(296,320,cs),
(296,322,o),
(298,330,o),
(298,332,c),
(309,332,l),
(310,332,o),
(310,336,o),
(310,336,c),
(310,337,o),
(310,338,o),
(310,338,c),
(310,339,o),
(306,342,o),
(305,342,cs),
(303,343,o),
(300,341,o),
(298,344,c),
(298,344,o),
(296,350,o),
(296,351,cs),
(295,353,o),
(294,356,o),
(291,356,cs),
(285,356,o),
(288,340,o),
(283,340,cs),
(283,340,o),
(282,340,o),
(282,340,c),
(276,344,o),
(277,348,o),
(275,355,cs),
(275,357,o),
(273,356,o),
(271,356,cs),
(262,356,o),
(268,344,o),
(263,342,c),
(260,342,o),
(253,342,o),
(251,338,c),
(251,338,o),
(251,337,o),
(251,336,cs),
(251,336,o),
(251,334,o),
(251,334,c),
(251,334,o),
(253,333,o),
(254,333,cs),
(255,333,o),
(262,333,o),
(263,333,c)
);
}
);
userData = {
com.typemytype.robofont.mark = (
0.939,
1,
0.6,
1
);
};
width = 675;
}
);
},
{
glyphname = E;
lastChange = "2023-11-14 19:39:31 +0000";
layers = (
{
anchors = (
{
name = bottom;
pos = (249,0);
},
{
name = measure;
},
{
name = ogonek;
pos = (447,10);
},
{
name = top;
pos = (249,660);
},
{
name = topleft;
pos = (20,660);
}
);
layerId = master01;
shapes = (
{
closed = 1;
nodes = (
(170,1,o),
(188,0,o),
(192,0,cs),
(203,0,o),
(294,0,o),
(305,0,cs),
(309,0,o),
(336,-1,o),
(339,-1,cs),
(340,-1,o),
(346,-1,o),
(348,-1,cs),
(351,-1,o),
(357,-1,o),
(358,-1,cs),
(366,-1,o),
(402,0,o),
(411,0,c),
(412,1,o),
(413,4,o),
(413,5,c),
(413,93,l),
(413,93,o),
(411,97,o),
(411,99,cs),
(411,99,o),
(409,100,o),
(409,100,c),
(408,101,o),
(402,101,o),
(401,101,c),
(224,101,l),
(200,103,l),
(199,103,o),
(197,104,o),
(196,105,cs),
(195,107,o),
(195,115,o),
(195,116,cs),
(195,117,o),
(195,134,o),
(195,140,cs),
(195,143,o),
(195,160,o),
(195,163,c),
(197,169,o),
(196,177,o),
(196,182,cs),
(197,221,o),
(199,260,o),
(199,300,cs),
(199,300,o),
(200,304,o),
(201,304,c),
(218,305,ls),
(220,305,o),
(250,305,o),
(261,305,cs),
(309,305,o),
(357,304,o),
(406,304,cs),
(411,304,o),
(414,305,o),
(415,310,c),
(415,316,o),
(415,341,o),
(415,346,cs),
(415,356,o),
(415,381,o),
(415,382,cs),
(415,385,o),
(414,398,o),
(413,401,cs),
(413,403,o),
(411,405,o),
(409,405,cs),
(384,406,l),
(206,406,l),
(201,410,l),
(201,410,o),
(200,437,o),
(200,448,cs),
(200,450,o),
(200,480,o),
(200,491,cs),
(200,498,o),
(200,528,o),
(200,534,cs),
(200,536,o),
(201,546,o),
(201,548,cs),
(201,549,o),
(201,559,o),
(201,560,cs),
(201,561,o),
(203,565,o),
(204,565,cs),
(206,566,o),
(210,567,o),
(211,567,c),
(382,567,ls),
(386,567,o),
(406,565,o),
(411,565,cs),
(416,565,o),
(419,569,o),
(419,572,cs),
(419,664,l),
(419,664,o),
(418,666,o),
(417,667,c),
(417,667,o),
(414,670,o),
(413,671,c),
(411,671,o),
(402,672,o),
(400,672,cs),
(400,672,o),
(399,672,o),
(399,672,c),
(394,672,o),
(388,671,o),
(382,671,cs),
(373,671,o),
(366,671,o),
(357,672,c),
(114,672,l),
(84,671,l),
(84,671,o),
(81,668,o),
(80,667,cs),
(79,665,o),
(79,664,o),
(79,663,cs),
(79,662,o),
(79,660,o),
(79,660,c),
(79,655,o),
(80,620,o),
(80,615,cs),
(80,611,o),
(80,570,o),
(80,565,cs),
(80,561,o),
(81,541,o),
(81,536,cs),
(81,522,o),
(81,461,o),
(81,447,cs),
(81,424,o),
(81,362,o),
(81,359,cs),
(81,352,o),
(80,290,o),
(80,282,cs),
(80,276,o),
(80,227,o),
(80,221,cs),
(80,217,o),
(79,182,o),
(79,178,cs),
(79,172,o),
(79,105,o),
(79,82,cs),
(79,66,o),
(79,21,o),
(79,18,cs),
(80,5,l),
(80,5,o),
(82,3,o),
(83,3,c),
(83,2,o),
(87,1,o),
(88,1,c),
(162,1,l),
(166,1,ls)
);
}
);
width = 497;
},
{
anchors = (
{
name = bottom;
pos = (249,0);
},
{
name = measure;
},
{
name = ogonek;
pos = (447,10);
},
{
name = top;
pos = (249,660);
},
{
name = topleft;
pos = (20,660);
}
);
guides = (
{
angle = 90;
pos = (420,660);
}
);
hints = (
{
name = _corner.all;
origin = (0,0);
type = Corner;
},
{
name = _corner.all;
origin = (0,1);
type = Corner;
},
{
name = _corner.all;
origin = (0,9);
type = Corner;
},
{
name = _corner.all;
origin = (0,10);
type = Corner;
},
{
name = _corner.all;
origin = (0,11);
type = Corner;
},
{
name = _corner.all;
origin = (0,8);
type = Corner;
},
{
name = _corner.all;
origin = (0,5);
type = Corner;
},
{
name = _corner.all;
origin = (0,4);
type = Corner;
}
);
layerId = "7B371D60-13E0-44E7-A998-8DAF0ECD409E";
shapes = (
{
closed = 1;
nodes = (
(413,0,l),
(413,100,l),
(198,100,l),
(198,305,l),
(415,305,l),
(415,405,l),
(198,405,l),
(198,560,l),
(420,560,l),
(420,660,l),
(78,660,l),
(78,0,l)
);
}
);
width = 497;
}
);
unicode = 69;
},
{
glyphname = E.ss02;
lastChange = "2023-06-25 14:23:23 +0000";
layers = (
{
anchors = (
{
name = _measure;
}
);
layerId = master01;
shapes = (
{
closed = 1;
nodes = (
(404,-157,o),
(405,-161,o),
(406,-169,c),
(406,-170,o),
(408,-173,o),
(408,-173,c),
(408,-173,o),
(410,-173,o),
(411,-173,cs),
(413,-173,o),
(416,-172,o),
(416,-169,cs),
(416,-116,l),
(416,-115,o),
(415,-109,o),
(415,-108,cs),
(415,-107,o),
(412,-105,o),
(411,-104,c),
(411,-104,o),
(410,-104,o),
(410,-104,c),
(410,-104,o),
(409,-104,o),
(409,-104,c),
(409,-105,o),
(406,-106,o),
(406,-107,cs),
(406,-107,o),
(405,-112,o),
(405,-113,cs),
(405,-116,o),
(405,-128,o),
(405,-131,cs),
(405,-132,o),
(403,-134,o),
(402,-134,cs),
(401,-134,o),
(396,-135,o),
(394,-135,cs),
(380,-135,o),
(314,-135,o),
(300,-135,cs),
(275,-135,o),
(209,-135,o),
(206,-135,cs),
(201,-135,o),
(170,-134,o),
(166,-134,cs),
(156,-134,o),
(109,-134,o),
(99,-134,cs),
(98,-134,o),
(92,-133,o),
(91,-132,c),
(91,-132,o),
(90,-131,o),
(90,-131,c),
(90,-129,o),
(88,-121,o),
(88,-119,cs),
(88,-118,o),
(88,-114,o),
(88,-113,cs),
(88,-113,o),
(86,-110,o),
(85,-109,c),
(85,-108,o),
(85,-108,o),
(83,-108,cs),
(81,-108,o),
(79,-110,o),
(79,-112,cs),
(79,-163,l),
(79,-164,o),
(81,-168,o),
(81,-169,cs),
(81,-169,o),
(83,-169,o),
(83,-169,c),
(94,-169,o),
(84,-144,o),
(94,-144,cs),
(189,-144,l),
(191,-145,o),
(199,-146,o),
(200,-146,cs),
(202,-146,o),
(220,-144,o),
(222,-144,cs),
(225,-144,o),
(255,-146,o),
(258,-146,cs),
(277,-146,o),
(366,-146,o),
(385,-146,cs),
(404,-147,l),
(405,-148,l)
);
},
{
closed = 1;
nodes = (
(270,-106,o),
(270,-108,o),
(270,-108,c),
(270,-108,o),
(272,-110,o),
(273,-111,c),
(273,-111,o),
(274,-111,o),
(274,-111,c),
(279,-111,o),
(280,-104,o),
(281,-100,cs),
(282,-98,o),
(287,-84,o),
(288,-82,c),
(288,-82,o),
(289,-79,o),
(289,-78,cs),
(289,-78,o),
(290,-74,o),
(290,-73,cs),
(291,-72,o),
(295,-61,o),
(296,-59,c),
(296,-59,o),
(297,-53,o),
(297,-53,c),
(297,-52,o),
(300,-48,o),
(300,-47,cs),
(300,-47,o),
(300,-46,o),
(300,-45,cs),
(300,-42,o),
(299,-42,o),
(297,-42,cs),
(289,-42,o),
(288,-55,o),
(286,-59,c),
(284,-67,o),
(281,-75,o),
(278,-82,c),
(276,-90,o),
(270,-97,o),
(270,-105,c)
);
},
{
closed = 1;
nodes = (
(197,-102,o),
(201,-101,o),
(207,-105,cs),
(210,-107,o),
(210,-109,o),
(214,-109,cs),
(215,-109,o),
(216,-109,o),
(216,-109,c),
(217,-109,o),
(220,-108,o),
(220,-108,c),
(221,-108,o),
(226,-107,o),
(227,-107,cs),
(235,-103,o),
(238,-92,o),
(238,-84,cs),
(238,-82,o),
(238,-78,o),
(238,-78,c),
(238,-78,o),
(234,-71,o),
(234,-70,cs),
(234,-70,o),
(234,-69,o),
(234,-69,c),
(234,-64,o),
(235,-60,o),
(235,-55,cs),
(235,-43,o),
(229,-39,o),
(218,-39,cs),
(210,-39,o),
(200,-42,o),
(200,-51,cs),
(200,-54,o),
(200,-55,o),
(203,-55,cs),
(203,-55,o),
(204,-55,o),
(204,-55,c),
(205,-55,o),
(212,-50,o),
(212,-50,c),
(212,-50,o),
(216,-50,o),
(217,-50,cs),
(218,-50,o),
(221,-50,o),
(222,-50,cs),
(222,-50,o),
(224,-52,o),
(224,-53,cs),
(224,-53,o),
(224,-55,o),
(224,-56,cs),
(224,-58,o),
(224,-63,o),
(222,-63,c),
(207,-69,l),
(207,-69,o),
(207,-70,o),
(207,-71,cs),
(207,-80,o),
(217,-78,o),
(223,-77,c),
(224,-78,o),
(226,-80,o),
(227,-81,c),
(227,-81,o),
(227,-83,o),
(227,-84,cs),
(227,-84,o),
(227,-86,o),
(227,-86,c),
(226,-94,o),
(223,-94,o),
(216,-94,cs),
(214,-94,o),
(211,-94,o),
(211,-94,c),
(210,-94,o),
(205,-88,o),
(204,-88,cs),
(203,-87,o),
(201,-86,o),
(201,-86,c),
(201,-87,o),
(197,-90,o),
(197,-90,c),
(197,-90,o),
(197,-92,o),
(197,-93,c)
);
},
{
closed = 1;
nodes = (
(299,-107,o),
(299,-108,o),
(299,-108,c),
(299,-109,o),
(302,-109,o),
(303,-109,c),
(326,-109,ls),
(328,-109,o),
(332,-107,o),
(332,-104,cs),
(332,-102,o),
(332,-101,o),
(330,-100,cs),
(328,-100,o),
(322,-100,o),
(320,-100,cs),
(320,-100,o),
(316,-100,o),
(316,-98,cs),
(316,-98,o),
(316,-97,o),
(316,-97,c),
(318,-96,o),
(326,-88,o),
(327,-86,cs),
(328,-85,o),
(331,-81,o),
(331,-81,c),
(331,-67,l),
(331,-67,o),
(329,-64,o),
(328,-63,c),
(328,-63,o),
(325,-61,o),
(324,-61,cs),
(324,-61,o),
(321,-61,o),
(320,-61,cs),
(316,-61,o),
(311,-61,o),
(308,-63,cs),
(303,-67,o),
(299,-71,o),
(299,-77,cs),
(299,-80,o),
(299,-81,o),
(303,-81,cs),
(312,-81,o),
(307,-70,o),
(317,-70,cs),
(322,-70,o),
(322,-72,o),
(322,-76,cs),
(322,-76,o),
(322,-78,o),
(322,-78,c),
(319,-80,o),
(311,-88,o),
(309,-90,c),
(309,-92,o),
(302,-100,o),
(300,-103,cs),
(299,-104,o),
(299,-105,o),
(299,-107,c)
);
},
{
closed = 1;
nodes = (
(261,-55,o),
(262,-55,o),
(262,-57,cs),
(262,-78,l),
(262,-78,o),
(264,-80,o),
(265,-81,cs),
(266,-82,o),
(268,-82,o),
(268,-82,c),
(268,-82,o),
(272,-79,o),
(272,-78,cs),
(272,-78,o),
(273,-70,o),
(273,-67,cs),
(273,-67,o),
(273,-59,o),
(273,-56,cs),
(273,-54,o),
(273,-47,o),
(273,-45,cs),
(272,-43,o),
(272,-40,o),
(270,-40,cs),
(267,-40,o),
(251,-52,o),
(251,-55,cs),
(251,-57,o),
(255,-58,o),
(255,-58,c),
(256,-58,o),
(259,-55,o),
(259,-55,c),
(259,-55,o),
(260,-55,o),
(260,-55,c)
);
}
);
userData = {
com.typemytype.robofont.mark = (
0.939,
1,
0.6,
1
);
};
width = 497;
},
{
anchors = (
{
name = _measure;
}
);
color = 0;
layerId = "7B371D60-13E0-44E7-A998-8DAF0ECD409E";
shapes = (
{
closed = 1;
nodes = (
(404,-157,o),
(405,-161,o),
(406,-169,c),
(406,-170,o),
(408,-173,o),
(408,-173,c),
(408,-173,o),
(410,-173,o),
(411,-173,cs),
(413,-173,o),
(416,-172,o),
(416,-169,cs),
(416,-116,l),
(416,-115,o),
(415,-109,o),
(415,-108,cs),
(415,-107,o),
(412,-105,o),
(411,-104,c),
(411,-104,o),
(410,-104,o),
(410,-104,c),
(410,-104,o),
(409,-104,o),
(409,-104,c),
(409,-105,o),
(406,-106,o),
(406,-107,cs),
(406,-107,o),
(405,-112,o),
(405,-113,cs),
(405,-116,o),
(405,-128,o),
(405,-131,cs),
(405,-132,o),
(403,-134,o),
(402,-134,cs),
(401,-134,o),
(396,-135,o),
(394,-135,cs),
(380,-135,o),
(314,-135,o),
(300,-135,cs),
(275,-135,o),
(209,-135,o),
(206,-135,cs),
(201,-135,o),
(170,-134,o),
(166,-134,cs),
(156,-134,o),
(109,-134,o),
(99,-134,cs),
(98,-134,o),
(92,-133,o),
(91,-132,c),
(91,-132,o),
(90,-131,o),
(90,-131,c),
(90,-129,o),
(88,-121,o),
(88,-119,cs),
(88,-118,o),
(88,-114,o),
(88,-113,cs),
(88,-113,o),
(86,-110,o),
(85,-109,c),
(85,-108,o),
(85,-108,o),
(83,-108,cs),
(81,-108,o),
(79,-110,o),
(79,-112,cs),
(79,-163,l),
(79,-164,o),
(81,-168,o),
(81,-169,cs),
(81,-169,o),
(83,-169,o),
(83,-169,c),
(94,-169,o),
(84,-144,o),
(94,-144,cs),
(189,-144,l),
(191,-145,o),
(199,-146,o),
(200,-146,cs),
(202,-146,o),
(220,-144,o),
(222,-144,cs),
(225,-144,o),
(255,-146,o),
(258,-146,cs),
(277,-146,o),
(366,-146,o),
(385,-146,cs),
(404,-147,l),
(405,-148,l)
);
},
{
closed = 1;
nodes = (
(270,-106,o),
(270,-108,o),
(270,-108,c),
(270,-108,o),
(272,-110,o),
(273,-111,c),
(273,-111,o),
(274,-111,o),
(274,-111,c),
(279,-111,o),
(280,-104,o),
(281,-100,cs),
(282,-98,o),
(287,-84,o),
(288,-82,c),
(288,-82,o),
(289,-79,o),
(289,-78,cs),
(289,-78,o),
(290,-74,o),
(290,-73,cs),
(291,-72,o),
(295,-61,o),
(296,-59,c),
(296,-59,o),
(297,-53,o),
(297,-53,c),
(297,-52,o),
(300,-48,o),
(300,-47,cs),
(300,-47,o),
(300,-46,o),
(300,-45,cs),
(300,-42,o),
(299,-42,o),
(297,-42,cs),
(289,-42,o),
(288,-55,o),
(286,-59,c),
(284,-67,o),
(281,-75,o),
(278,-82,c),
(276,-90,o),
(270,-97,o),
(270,-105,c)
);
},
{
closed = 1;
nodes = (
(197,-102,o),
(201,-101,o),
(207,-105,cs),
(210,-107,o),
(210,-109,o),
(214,-109,cs),
(215,-109,o),
(216,-109,o),
(216,-109,c),
(217,-109,o),
(220,-108,o),
(220,-108,c),
(221,-108,o),
(226,-107,o),
(227,-107,cs),
(235,-103,o),
(238,-92,o),
(238,-84,cs),
(238,-82,o),
(238,-78,o),
(238,-78,c),
(238,-78,o),
(234,-71,o),
(234,-70,cs),
(234,-70,o),
(234,-69,o),
(234,-69,c),
(234,-64,o),
(235,-60,o),
(235,-55,cs),
(235,-43,o),
(229,-39,o),
(218,-39,cs),
(210,-39,o),
(200,-42,o),
(200,-51,cs),
(200,-54,o),
(200,-55,o),
(203,-55,cs),
(203,-55,o),
(204,-55,o),
(204,-55,c),
(205,-55,o),
(212,-50,o),
(212,-50,c),
(212,-50,o),
(216,-50,o),
(217,-50,cs),
(218,-50,o),
(221,-50,o),
(222,-50,cs),
(222,-50,o),
(224,-52,o),
(224,-53,cs),
(224,-53,o),
(224,-55,o),
(224,-56,cs),
(224,-58,o),
(224,-63,o),
(222,-63,c),
(207,-69,l),
(207,-69,o),
(207,-70,o),
(207,-71,cs),
(207,-80,o),
(217,-78,o),
(223,-77,c),
(224,-78,o),
(226,-80,o),
(227,-81,c),
(227,-81,o),
(227,-83,o),
(227,-84,cs),
(227,-84,o),
(227,-86,o),
(227,-86,c),
(226,-94,o),
(223,-94,o),
(216,-94,cs),
(214,-94,o),
(211,-94,o),
(211,-94,c),
(210,-94,o),
(205,-88,o),
(204,-88,cs),
(203,-87,o),
(201,-86,o),
(201,-86,c),
(201,-87,o),
(197,-90,o),
(197,-90,c),
(197,-90,o),
(197,-92,o),
(197,-93,c)
);
},
{
closed = 1;
nodes = (
(299,-107,o),
(299,-108,o),
(299,-108,c),
(299,-109,o),
(302,-109,o),
(303,-109,c),
(326,-109,ls),
(328,-109,o),
(332,-107,o),
(332,-104,cs),
(332,-102,o),
(332,-101,o),
(330,-100,cs),
(328,-100,o),
(322,-100,o),
(320,-100,cs),
(320,-100,o),
(316,-100,o),
(316,-98,cs),
(316,-98,o),
(316,-97,o),
(316,-97,c),
(318,-96,o),
(326,-88,o),
(327,-86,cs),
(328,-85,o),
(331,-81,o),
(331,-81,c),
(331,-67,l),
(331,-67,o),
(329,-64,o),
(328,-63,c),
(328,-63,o),
(325,-61,o),
(324,-61,cs),
(324,-61,o),
(321,-61,o),
(320,-61,cs),
(316,-61,o),
(311,-61,o),
(308,-63,cs),
(303,-67,o),
(299,-71,o),
(299,-77,cs),
(299,-80,o),
(299,-81,o),
(303,-81,cs),
(312,-81,o),
(307,-70,o),
(317,-70,cs),
(322,-70,o),
(322,-72,o),
(322,-76,cs),
(322,-76,o),
(322,-78,o),
(322,-78,c),
(319,-80,o),
(311,-88,o),
(309,-90,c),
(309,-92,o),
(302,-100,o),
(300,-103,cs),
(299,-104,o),
(299,-105,o),
(299,-107,c)
);
},
{
closed = 1;
nodes = (
(261,-55,o),
(262,-55,o),
(262,-57,cs),
(262,-78,l),
(262,-78,o),
(264,-80,o),
(265,-81,cs),
(266,-82,o),
(268,-82,o),
(268,-82,c),
(268,-82,o),
(272,-79,o),
(272,-78,cs),
(272,-78,o),
(273,-70,o),
(273,-67,cs),
(273,-67,o),
(273,-59,o),
(273,-56,cs),
(273,-54,o),
(273,-47,o),
(273,-45,cs),
(272,-43,o),
(272,-40,o),
(270,-40,cs),
(267,-40,o),
(251,-52,o),
(251,-55,cs),
(251,-57,o),
(255,-58,o),
(255,-58,c),
(256,-58,o),
(259,-55,o),
(259,-55,c),
(259,-55,o),
(260,-55,o),
(260,-55,c)
);
}
);
userData = {
com.typemytype.robofont.mark = (
0.939,
1,
0.6,
1
);
};
width = 497;
}
);
},
{
glyphname = F;
kernRight = F;
lastChange = "2023-06-25 14:23:23 +0000";
layers = (
{
anchors = (
{
name = bottom;
pos = (243,0);
},
{
name = measure;
},
{
name = top;
pos = (243,660);
}
);
layerId = master01;
shapes = (
{
closed = 1;
nodes = (
(80,4,o),
(80,0,o),
(82,0,cs),
(84,-1,o),
(88,-2,o),
(89,-2,cs),
(91,-2,o),
(107,-2,o),
(109,-2,cs),
(117,-2,o),
(177,-3,o),
(185,-3,cs),
(185,-3,o),
(186,-3,o),
(186,-3,c),
(192,-3,o),
(195,-2,o),
(197,2,c),
(197,35,o),
(197,186,o),
(197,218,cs),
(197,226,o),
(198,264,o),
(198,272,cs),
(198,273,o),
(200,277,o),
(200,278,cs),
(200,278,o),
(201,279,o),
(201,279,c),
(407,279,ls),
(412,279,o),
(414,285,o),
(414,288,cs),
(414,375,l),
(414,376,o),
(412,380,o),
(412,380,c),
(412,381,o),
(409,382,o),
(409,382,c),
(406,382,o),
(394,382,o),
(391,382,cs),
(390,382,o),
(382,383,o),
(380,383,cs),
(376,383,o),
(347,382,o),
(343,382,cs),
(342,382,o),
(337,382,o),
(336,382,cs),
(335,382,o),
(330,382,o),
(329,382,cs),
(325,382,o),
(293,383,o),
(289,383,cs),
(275,383,o),
(213,383,o),
(200,383,c),
(198,386,l),
(198,531,ls),
(198,534,o),
(200,548,o),
(200,550,cs),
(200,550,o),
(200,553,o),
(200,553,c),
(200,555,o),
(201,562,o),
(201,562,c),
(201,563,o),
(202,565,o),
(202,565,c),
(219,566,l),
(412,566,l),
(414,569,l),
(414,665,ls),
(414,667,o),
(406,670,o),
(405,670,cs),
(394,670,o),
(345,670,o),
(335,670,cs),
(329,670,o),
(304,672,o),
(298,672,cs),
(90,672,l),
(90,672,o),
(88,671,o),
(86,670,c),
(86,670,o),
(82,669,o),
(82,668,c),
(81,657,l),
(81,309,l),
(80,306,o),
(80,295,o),
(80,293,cs),
(80,290,o),
(81,270,o),
(81,267,cs),
(81,266,o),
(81,253,o),
(81,248,cs),
(81,243,o),
(81,229,o),
(81,228,cs),
(81,224,o),
(80,189,o),
(80,185,cs),
(80,181,o),
(80,118,o),
(80,95,cs),
(80,81,o),
(80,19,o),
(80,5,c)
);
}
);
width = 486;
},
{
anchors = (
{
name = bottom;
pos = (243,0);
},
{
name = measure;
},
{
name = top;
pos = (243,660);
}
);
color = 0;
layerId = "7B371D60-13E0-44E7-A998-8DAF0ECD409E";
shapes = (
{
closed = 1;
nodes = (
(80,4,o),
(80,0,o),
(82,0,cs),
(84,-1,o),
(88,-2,o),
(89,-2,cs),
(91,-2,o),
(107,-2,o),
(109,-2,cs),
(117,-2,o),
(177,-3,o),
(185,-3,cs),
(185,-3,o),
(186,-3,o),
(186,-3,c),
(192,-3,o),
(195,-2,o),
(197,2,c),
(197,35,o),
(197,186,o),
(197,218,cs),
(197,226,o),
(198,264,o),
(198,272,cs),
(198,273,o),
(200,277,o),
(200,278,cs),
(200,278,o),
(201,279,o),
(201,279,c),
(407,279,ls),
(412,279,o),
(414,285,o),
(414,288,cs),
(414,375,l),
(414,376,o),
(412,380,o),
(412,380,c),
(412,381,o),
(409,382,o),
(409,382,c),
(406,382,o),
(394,382,o),
(391,382,cs),
(390,382,o),
(382,383,o),
(380,383,cs),
(376,383,o),
(347,382,o),
(343,382,cs),
(342,382,o),
(337,382,o),
(336,382,cs),
(335,382,o),
(330,382,o),
(329,382,cs),
(325,382,o),
(293,383,o),
(289,383,cs),
(275,383,o),
(213,383,o),
(200,383,c),
(198,386,l),
(198,531,ls),
(198,534,o),
(200,548,o),
(200,550,cs),
(200,550,o),
(200,553,o),
(200,553,c),
(200,555,o),
(201,562,o),
(201,562,c),
(201,563,o),
(202,565,o),
(202,565,c),
(219,566,l),
(412,566,l),
(414,569,l),
(414,665,ls),
(414,667,o),
(406,670,o),
(405,670,cs),
(394,670,o),
(345,670,o),
(335,670,cs),
(329,670,o),
(304,672,o),
(298,672,cs),
(90,672,l),
(90,672,o),
(88,671,o),
(86,670,c),
(86,670,o),
(82,669,o),
(82,668,c),
(81,657,l),
(81,309,l),
(80,306,o),
(80,295,o),
(80,293,cs),
(80,290,o),
(81,270,o),
(81,267,cs),
(81,266,o),
(81,253,o),
(81,248,cs),
(81,243,o),
(81,229,o),
(81,228,cs),
(81,224,o),
(80,189,o),
(80,185,cs),
(80,181,o),
(80,118,o),
(80,95,cs),
(80,81,o),
(80,19,o),
(80,5,c)
);
}
);
width = 486;
}
);
unicode = 70;
},
{
glyphname = F.ss02;
kernRight = F;
lastChange = "2023-06-25 14:23:23 +0000";
layers = (
{
anchors = (
{
name = _measure;
}
);
layerId = master01;
shapes = (
{
closed = 1;
nodes = (
(79,-108,o),
(77,-110,o),
(77,-114,cs),
(77,-168,l),
(77,-169,o),
(78,-172,o),
(78,-173,cs),
(78,-173,o),
(81,-174,o),
(82,-174,cs),
(82,-174,o),
(83,-174,o),
(83,-174,c),
(84,-174,o),
(86,-172,o),
(86,-170,cs),
(89,-147,l),
(401,-147,l),
(401,-147,o),
(403,-148,o),
(403,-149,cs),
(405,-153,o),
(403,-169,o),
(410,-169,cs),
(411,-169,o),
(412,-169,o),
(412,-169,c),
(413,-168,o),
(416,-166,o),
(416,-165,c),
(416,-114,ls),
(416,-112,o),
(412,-107,o),
(410,-107,cs),
(410,-107,o),
(409,-107,o),
(409,-107,c),
(408,-108,o),
(405,-110,o),
(405,-111,cs),
(405,-118,o),
(405,-127,o),
(403,-134,c),
(403,-134,o),
(402,-135,o),
(402,-135,c),
(397,-135,o),
(372,-137,o),
(367,-137,cs),
(364,-137,o),
(340,-137,o),
(337,-137,cs),
(337,-137,o),
(331,-138,o),
(331,-138,c),
(330,-138,o),
(328,-137,o),
(328,-137,c),
(92,-137,ls),
(82,-137,o),
(93,-108,o),
(82,-108,cs)
);
},
{
closed = 1;
nodes = (
(284,-112,o),
(287,-113,o),
(289,-114,c),
(290,-114,o),
(293,-115,o),
(294,-115,cs),
(295,-115,o),
(303,-115,o),
(306,-115,cs),
(308,-115,o),
(315,-115,o),
(317,-115,cs),
(320,-114,o),
(321,-112,o),
(321,-109,cs),
(321,-108,o),
(321,-106,o),
(320,-106,cs),
(316,-104,o),
(308,-105,o),
(305,-103,c),
(305,-102,o),
(306,-101,o),
(306,-100,cs),
(308,-98,o),
(318,-89,o),
(320,-87,c),
(320,-86,o),
(320,-83,o),
(320,-82,cs),
(320,-73,o),
(315,-66,o),
(306,-66,cs),
(302,-66,o),
(298,-66,o),
(294,-69,cs),
(289,-73,o),
(286,-76,o),
(286,-81,cs),
(286,-85,o),
(287,-85,o),
(290,-85,cs),
(290,-85,o),
(291,-85,o),
(291,-85,c),
(295,-82,o),
(298,-77,o),
(303,-77,cs),
(306,-77,o),
(309,-79,o),
(309,-83,cs),
(309,-85,o),
(300,-98,o),
(298,-96,c),
(297,-97,o),
(290,-103,o),
(289,-104,cs),
(287,-106,o),
(285,-108,o),
(285,-110,cs)
);
},
{
closed = 1;
nodes = (
(255,-110,o),
(257,-112,o),
(258,-112,cs),
(258,-112,o),
(259,-112,o),
(260,-112,cs),
(267,-112,o),
(269,-101,o),
(271,-96,c),
(271,-96,o),
(273,-94,o),
(273,-93,cs),
(273,-93,o),
(276,-85,o),
(277,-84,c),
(277,-83,o),
(280,-78,o),
(281,-77,cs),
(285,-68,o),
(287,-59,o),
(294,-50,c),
(294,-48,o),
(292,-44,o),
(289,-44,cs),
(285,-44,o),
(279,-60,o),
(278,-64,c),
(262,-96,l),
(262,-96,o),
(260,-97,o),
(260,-97,c),
(260,-99,o),
(257,-104,o),
(256,-106,c),
(256,-106,o),
(255,-110,o),
(255,-110,c)
);
},
{
closed = 1;
nodes = (
(177,-102,o),
(188,-111,o),
(195,-111,cs),
(199,-111,o),
(203,-110,o),
(206,-108,cs),
(217,-102,o),
(221,-98,o),
(221,-86,cs),
(221,-81,o),
(217,-76,o),
(217,-71,cs),
(217,-71,o),
(217,-69,o),
(217,-69,c),
(217,-68,o),
(219,-66,o),
(219,-65,cs),
(219,-65,o),
(219,-60,o),
(219,-59,cs),
(219,-56,o),
(219,-53,o),
(217,-50,cs),
(213,-46,o),
(209,-42,o),
(202,-42,cs),
(195,-42,o),
(181,-45,o),
(181,-55,cs),
(181,-58,o),
(183,-59,o),
(186,-60,c),
(191,-55,o),
(194,-53,o),
(200,-53,cs),
(204,-53,o),
(208,-54,o),
(208,-58,cs),
(208,-64,o),
(204,-64,o),
(200,-66,cs),
(196,-68,o),
(190,-69,o),
(190,-74,cs),
(190,-83,o),
(207,-74,o),
(211,-87,c),
(211,-87,o),
(211,-88,o),
(211,-89,cs),
(211,-93,o),
(205,-99,o),
(200,-99,cs),
(193,-99,o),
(188,-93,o),
(184,-88,c),
(184,-88,o),
(182,-88,o),
(182,-88,c),
(180,-88,o),
(177,-91,o),
(177,-94,cs)
);
},
{
closed = 1;
nodes = (
(252,-80,o),
(253,-85,o),
(254,-85,cs),
(254,-85,o),
(256,-85,o),
(256,-85,c),
(260,-85,o),
(260,-85,o),
(262,-81,c),
(262,-78,o),
(264,-63,o),
(264,-60,cs),
(264,-58,o),
(264,-48,o),
(263,-46,cs),
(262,-45,o),
(262,-45,o),
(260,-45,cs),
(257,-45,o),
(255,-48,o),
(252,-49,c),
(252,-49,o),
(249,-50,o),
(248,-50,cs),
(248,-50,o),
(245,-52,o),
(244,-53,cs),
(243,-54,o),
(240,-57,o),
(240,-57,c),
(240,-58,o),
(241,-60,o),
(242,-60,c),
(252,-60,l),
(252,-60,o),
(254,-62,o),
(254,-62,c),
(254,-62,o),
(254,-64,o),
(254,-65,cs),
(254,-66,o),
(254,-68,o),
(254,-68,c),
(254,-69,o),
(252,-77,o),
(252,-79,c)
);
}
);
userData = {
com.typemytype.robofont.mark = (
0.939,
1,
0.6,
1
);
};
width = 486;
},
{
anchors = (
{
name = _measure;
}
);
color = 0;
layerId = "7B371D60-13E0-44E7-A998-8DAF0ECD409E";
shapes = (
{
closed = 1;
nodes = (
(79,-108,o),
(77,-110,o),
(77,-114,cs),
(77,-168,l),
(77,-169,o),
(78,-172,o),
(78,-173,cs),
(78,-173,o),
(81,-174,o),
(82,-174,cs),
(82,-174,o),
(83,-174,o),
(83,-174,c),
(84,-174,o),
(86,-172,o),
(86,-170,cs),
(89,-147,l),
(401,-147,l),
(401,-147,o),
(403,-148,o),
(403,-149,cs),
(405,-153,o),
(403,-169,o),
(410,-169,cs),
(411,-169,o),
(412,-169,o),
(412,-169,c),
(413,-168,o),
(416,-166,o),
(416,-165,c),
(416,-114,ls),
(416,-112,o),
(412,-107,o),
(410,-107,cs),
(410,-107,o),
(409,-107,o),
(409,-107,c),
(408,-108,o),
(405,-110,o),
(405,-111,cs),
(405,-118,o),
(405,-127,o),
(403,-134,c),
(403,-134,o),
(402,-135,o),
(402,-135,c),
(397,-135,o),
(372,-137,o),
(367,-137,cs),
(364,-137,o),
(340,-137,o),
(337,-137,cs),
(337,-137,o),
(331,-138,o),
(331,-138,c),
(330,-138,o),
(328,-137,o),
(328,-137,c),
(92,-137,ls),
(82,-137,o),
(93,-108,o),
(82,-108,cs)
);
},
{
closed = 1;
nodes = (
(284,-112,o),
(287,-113,o),
(289,-114,c),
(290,-114,o),
(293,-115,o),
(294,-115,cs),
(295,-115,o),
(303,-115,o),
(306,-115,cs),
(308,-115,o),
(315,-115,o),
(317,-115,cs),
(320,-114,o),
(321,-112,o),
(321,-109,cs),
(321,-108,o),
(321,-106,o),
(320,-106,cs),
(316,-104,o),
(308,-105,o),
(305,-103,c),
(305,-102,o),
(306,-101,o),
(306,-100,cs),
(308,-98,o),
(318,-89,o),
(320,-87,c),
(320,-86,o),
(320,-83,o),
(320,-82,cs),
(320,-73,o),
(315,-66,o),
(306,-66,cs),
(302,-66,o),
(298,-66,o),
(294,-69,cs),
(289,-73,o),
(286,-76,o),
(286,-81,cs),
(286,-85,o),
(287,-85,o),
(290,-85,cs),
(290,-85,o),
(291,-85,o),
(291,-85,c),
(295,-82,o),
(298,-77,o),
(303,-77,cs),
(306,-77,o),
(309,-79,o),
(309,-83,cs),
(309,-85,o),
(300,-98,o),
(298,-96,c),
(297,-97,o),
(290,-103,o),
(289,-104,cs),
(287,-106,o),
(285,-108,o),
(285,-110,cs)
);
},
{
closed = 1;
nodes = (
(255,-110,o),
(257,-112,o),
(258,-112,cs),
(258,-112,o),
(259,-112,o),
(260,-112,cs),
(267,-112,o),
(269,-101,o),
(271,-96,c),
(271,-96,o),
(273,-94,o),
(273,-93,cs),
(273,-93,o),
(276,-85,o),
(277,-84,c),
(277,-83,o),
(280,-78,o),
(281,-77,cs),
(285,-68,o),
(287,-59,o),
(294,-50,c),
(294,-48,o),
(292,-44,o),
(289,-44,cs),
(285,-44,o),
(279,-60,o),
(278,-64,c),
(262,-96,l),
(262,-96,o),
(260,-97,o),
(260,-97,c),
(260,-99,o),
(257,-104,o),
(256,-106,c),
(256,-106,o),
(255,-110,o),
(255,-110,c)
);
},
{
closed = 1;
nodes = (
(177,-102,o),
(188,-111,o),
(195,-111,cs),
(199,-111,o),
(203,-110,o),
(206,-108,cs),
(217,-102,o),
(221,-98,o),
(221,-86,cs),
(221,-81,o),
(217,-76,o),
(217,-71,cs),
(217,-71,o),
(217,-69,o),
(217,-69,c),
(217,-68,o),
(219,-66,o),
(219,-65,cs),
(219,-65,o),
(219,-60,o),
(219,-59,cs),
(219,-56,o),
(219,-53,o),
(217,-50,cs),
(213,-46,o),
(209,-42,o),
(202,-42,cs),
(195,-42,o),
(181,-45,o),
(181,-55,cs),
(181,-58,o),
(183,-59,o),
(186,-60,c),
(191,-55,o),
(194,-53,o),
(200,-53,cs),
(204,-53,o),
(208,-54,o),
(208,-58,cs),
(208,-64,o),
(204,-64,o),
(200,-66,cs),
(196,-68,o),
(190,-69,o),
(190,-74,cs),
(190,-83,o),
(207,-74,o),
(211,-87,c),
(211,-87,o),
(211,-88,o),
(211,-89,cs),
(211,-93,o),
(205,-99,o),
(200,-99,cs),
(193,-99,o),
(188,-93,o),
(184,-88,c),
(184,-88,o),
(182,-88,o),
(182,-88,c),
(180,-88,o),
(177,-91,o),
(177,-94,cs)
);
},
{
closed = 1;
nodes = (
(252,-80,o),
(253,-85,o),
(254,-85,cs),
(254,-85,o),
(256,-85,o),
(256,-85,c),
(260,-85,o),
(260,-85,o),
(262,-81,c),
(262,-78,o),
(264,-63,o),
(264,-60,cs),
(264,-58,o),
(264,-48,o),
(263,-46,cs),
(262,-45,o),
(262,-45,o),
(260,-45,cs),
(257,-45,o),
(255,-48,o),
(252,-49,c),
(252,-49,o),
(249,-50,o),
(248,-50,cs),
(248,-50,o),
(245,-52,o),
(244,-53,cs),
(243,-54,o),
(240,-57,o),
(240,-57,c),
(240,-58,o),
(241,-60,o),
(242,-60,c),
(252,-60,l),
(252,-60,o),
(254,-62,o),
(254,-62,c),
(254,-62,o),
(254,-64,o),
(254,-65,cs),
(254,-66,o),
(254,-68,o),
(254,-68,c),
(254,-69,o),
(252,-77,o),
(252,-79,c)
);
}
);
userData = {
com.typemytype.robofont.mark = (
0.939,
1,
0.6,
1
);
};
width = 486;
}
);
},
{
glyphname = G;
kernLeft = O;
lastChange = "2023-06-25 14:23:23 +0000";
layers = (
{
anchors = (
{
name = bottom;
pos = (343,0);
},
{
name = measure;
},
{
name = top;
pos = (343,660);
}
);
layerId = master01;
shapes = (
{
closed = 1;
nodes = (
(194,31,o),
(215,20,o),
(239,9,cs),
(240,8,o),
(251,3,o),
(252,2,c),
(253,2,o),
(261,0,o),
(262,0,cs),
(262,0,o),
(269,-3,o),
(270,-3,cs),
(276,-4,o),
(301,-11,o),
(306,-12,cs),
(309,-13,o),
(318,-15,o),
(320,-15,cs),
(324,-16,o),
(355,-19,o),
(364,-19,cs),
(364,-19,o),
(367,-19,o),
(368,-19,cs),
(388,-19,o),
(406,-17,o),
(425,-14,cs),
(438,-12,o),
(450,-10,o),
(464,-7,cs),
(487,-1,o),
(508,9,o),
(530,19,c),
(531,19,o),
(532,20,o),
(533,20,cs),
(537,22,o),
(547,28,o),
(547,28,c),
(554,31,o),
(580,50,o),
(585,54,cs),
(586,55,o),
(591,60,o),
(592,60,cs),
(593,61,o),
(597,64,o),
(597,64,c),
(599,66,o),
(611,77,o),
(614,79,cs),
(616,81,o),
(622,88,o),
(623,89,c),
(624,89,o),
(625,93,o),
(626,94,c),
(626,96,o),
(628,102,o),
(628,104,cs),
(628,104,o),
(628,106,o),
(628,106,c),
(628,107,o),
(628,110,o),
(628,110,c),
(628,114,o),
(627,149,o),
(627,154,cs),
(627,159,o),
(627,201,o),
(627,206,cs),
(627,212,o),
(626,256,o),
(626,261,cs),
(626,271,o),
(626,315,o),
(626,325,c),
(625,326,o),
(624,333,o),
(624,334,cs),
(624,336,o),
(626,348,o),
(626,349,cs),
(626,349,o),
(626,350,o),
(626,350,c),
(626,350,o),
(626,351,o),
(626,351,c),
(626,352,o),
(624,355,o),
(624,355,c),
(624,355,o),
(621,356,o),
(620,356,cs),
(597,358,o),
(572,357,o),
(549,357,cs),
(538,357,o),
(508,357,o),
(506,357,cs),
(501,357,o),
(463,356,o),
(458,356,cs),
(456,356,o),
(439,356,o),
(437,356,cs),
(434,356,o),
(427,355,o),
(425,352,c),
(425,348,o),
(425,330,o),
(425,326,cs),
(425,326,o),
(423,322,o),
(423,321,cs),
(423,321,o),
(423,320,o),
(423,320,c),
(423,318,o),
(425,316,o),
(425,313,cs),
(425,301,o),
(423,288,o),
(423,276,cs),
(423,270,o),
(423,266,o),
(425,260,c),
(425,260,o),
(426,259,o),
(426,259,c),
(429,258,o),
(442,257,o),
(445,257,cs),
(454,257,o),
(498,257,o),
(507,257,c),
(510,255,l),
(510,255,o),
(511,245,o),
(511,241,cs),
(511,235,o),
(511,188,o),
(511,182,cs),
(511,176,o),
(512,149,o),
(512,144,cs),
(512,143,o),
(510,136,o),
(510,135,cs),
(510,135,o),
(506,132,o),
(504,131,cs),
(498,126,o),
(490,120,o),
(483,116,c),
(482,116,o),
(479,114,o),
(479,114,c),
(471,111,o),
(465,107,o),
(457,104,c),
(456,104,o),
(452,101,o),
(452,101,c),
(440,97,o),
(427,95,o),
(415,91,c),
(380,91,l),
(373,94,o),
(364,93,o),
(357,94,cs),
(354,95,o),
(338,98,o),
(334,98,c),
(332,99,o),
(320,102,o),
(318,102,cs),
(317,102,o),
(313,105,o),
(313,105,c),
(312,105,o),
(309,105,o),
(309,105,c),
(308,105,o),
(301,108,o),
(299,109,cs),
(296,110,o),
(286,115,o),
(286,116,c),
(284,116,o),
(274,125,o),
(272,125,c),
(266,130,o),
(258,133,o),
(252,139,c),
(251,139,o),
(246,145,o),
(245,145,cs),
(245,145,o),
(242,148,o),
(241,148,cs),
(230,159,o),
(218,171,o),
(210,185,c),
(210,186,o),
(204,197,o),
(204,198,cs),
(197,210,o),
(192,217,o),
(189,230,cs),
(187,237,o),
(185,245,o),
(183,251,cs),
(180,263,o),
(175,274,o),
(174,287,cs),
(172,304,o),
(170,322,o),
(170,338,cs),
(170,340,o),
(170,346,o),
(170,347,cs),
(170,349,o),
(171,363,o),
(171,365,cs),
(172,375,o),
(172,384,o),
(174,392,cs),
(175,394,o),
(177,411,o),
(178,413,cs),
(179,415,o),
(180,418,o),
(181,421,cs),
(181,423,o),
(182,429,o),
(182,429,c),
(182,430,o),
(186,438,o),
(187,441,cs),
(189,444,o),
(193,454,o),
(194,454,c),
(195,456,o),
(201,465,o),
(202,467,c),
(202,467,o),
(204,470,o),
(204,471,cs),
(207,476,o),
(212,481,o),
(216,487,cs),
(218,490,o),
(226,502,o),
(228,503,c),
(228,504,o),
(237,513,o),
(240,515,cs),
(262,535,o),
(285,552,o),
(314,560,cs),
(334,565,o),
(352,568,o),
(372,568,cs),
(374,568,o),
(380,568,o),
(380,568,c),
(384,567,o),
(411,564,o),
(419,562,cs),
(426,561,o),
(434,559,o),
(441,557,cs),
(445,556,o),
(465,549,o),
(469,548,cs),
(470,547,o),
(474,544,o),
(475,544,c),
(475,543,o),
(481,540,o),
(481,539,c),
(494,530,o),
(506,519,o),
(518,508,c),
(518,508,o),
(521,505,o),
(522,504,c),
(523,504,o),
(527,498,o),
(527,498,c),
(528,496,o),
(533,492,o),
(534,491,c),
(534,491,o),
(535,491,o),
(535,491,c),
(540,491,o),
(546,494,o),
(547,499,c),
(611,562,l),
(611,562,o),
(613,566,o),
(614,568,c),
(614,569,o),
(615,572,o),
(615,572,c),
(615,573,o),
(614,575,o),
(614,576,cs),
(574,618,o),
(514,653,o),
(458,668,c),
(457,668,o),
(446,670,o),
(445,670,cs),
(444,670,o),
(442,673,o),
(441,673,cs),
(440,673,o),
(435,673,o),
(434,673,cs),
(431,673,o),
(411,676,o),
(409,677,c),
(396,678,o),
(384,678,o),
(371,678,cs),
(367,678,o),
(357,678,o),
(356,678,c),
(353,677,l),
(341,678,o),
(329,676,o),
(317,674,c),
(303,673,o),
(291,668,o),
(278,665,c),
(277,665,o),
(272,664,o),
(271,664,cs),
(270,664,o),
(266,661,o),
(266,661,c),
(264,660,o),
(255,658,o),
(253,657,cs),
(251,656,o),
(239,652,o),
(236,650,c),
(234,647,o),
(233,647,o),
(229,646,cs),
(227,645,o),
(216,639,o),
(213,638,cs),
(211,637,o),
(204,633,o),
(204,633,c),
(203,633,o),
(200,629,o),
(199,629,cs),
(199,629,o),
(196,627,o),
(195,627,cs),
(193,627,o),
(191,625,o),
(189,623,cs),
(187,621,o),
(168,608,o),
(166,606,c),
(165,606,o),
(162,603,o),
(162,603,c),
(148,591,o),
(135,577,o),
(124,564,cs),
(113,550,o),
(101,537,o),
(93,522,cs),
(81,501,o),
(71,479,o),
(63,457,c),
(63,456,o),
(59,448,o),
(59,446,cs),
(59,444,o),
(56,425,o),
(55,423,c),
(55,423,o),
(52,417,o),
(52,417,c),
(49,407,o),
(48,397,o),
(47,387,cs),
(44,365,o),
(42,342,o),
(42,320,cs),
(42,318,o),
(42,313,o),
(42,313,c),
(42,311,o),
(43,295,o),
(43,293,cs),
(43,292,o),
(43,285,o),
(43,284,cs),
(44,278,o),
(46,271,o),
(47,264,cs),
(47,260,o),
(48,250,o),
(48,249,cs),
(48,249,o),
(51,242,o),
(51,241,cs),
(51,241,o),
(52,236,o),
(52,234,cs),
(52,234,o),
(54,226,o),
(54,225,cs),
(55,218,o),
(59,210,o),
(61,203,c),
(61,203,o),
(62,199,o),
(62,198,cs),
(62,197,o),
(65,191,o),
(66,190,cs),
(67,189,o),
(71,176,o),
(71,175,cs),
(77,162,o),
(83,148,o),
(92,136,cs),
(98,126,o),
(105,114,o),
(113,105,cs),
(129,86,o),
(146,69,o),
(164,54,c),
(165,54,o),
(168,51,o),
(168,51,c),
(169,50,o),
(172,48,o),
(172,47,c)
);
}
);
width = 686;
},
{
anchors = (
{
name = bottom;
pos = (343,0);
},
{
name = measure;
},
{
name = top;
pos = (343,660);
}
);
color = 0;
layerId = "7B371D60-13E0-44E7-A998-8DAF0ECD409E";
shapes = (
{
closed = 1;
nodes = (
(194,31,o),
(215,20,o),
(239,9,cs),
(240,8,o),
(251,3,o),
(252,2,c),
(253,2,o),
(261,0,o),
(262,0,cs),
(262,0,o),
(269,-3,o),
(270,-3,cs),
(276,-4,o),
(301,-11,o),
(306,-12,cs),
(309,-13,o),
(318,-15,o),
(320,-15,cs),
(324,-16,o),
(355,-19,o),
(364,-19,cs),
(364,-19,o),
(367,-19,o),
(368,-19,cs),
(388,-19,o),
(406,-17,o),
(425,-14,cs),
(438,-12,o),
(450,-10,o),
(464,-7,cs),
(487,-1,o),
(508,9,o),
(530,19,c),
(531,19,o),
(532,20,o),
(533,20,cs),
(537,22,o),
(547,28,o),
(547,28,c),
(554,31,o),
(580,50,o),
(585,54,cs),
(586,55,o),
(591,60,o),
(592,60,cs),
(593,61,o),
(597,64,o),
(597,64,c),
(599,66,o),
(611,77,o),
(614,79,cs),
(616,81,o),
(622,88,o),
(623,89,c),
(624,89,o),
(625,93,o),
(626,94,c),
(626,96,o),
(628,102,o),
(628,104,cs),
(628,104,o),
(628,106,o),
(628,106,c),
(628,107,o),
(628,110,o),
(628,110,c),
(628,114,o),
(627,149,o),
(627,154,cs),
(627,159,o),
(627,201,o),
(627,206,cs),
(627,212,o),
(626,256,o),
(626,261,cs),
(626,271,o),
(626,315,o),
(626,325,c),
(625,326,o),
(624,333,o),
(624,334,cs),
(624,336,o),
(626,348,o),
(626,349,cs),
(626,349,o),
(626,350,o),
(626,350,c),
(626,350,o),
(626,351,o),
(626,351,c),
(626,352,o),
(624,355,o),
(624,355,c),
(624,355,o),
(621,356,o),
(620,356,cs),
(597,358,o),
(572,357,o),
(549,357,cs),
(538,357,o),
(508,357,o),
(506,357,cs),
(501,357,o),
(463,356,o),
(458,356,cs),
(456,356,o),
(439,356,o),
(437,356,cs),
(434,356,o),
(427,355,o),
(425,352,c),
(425,348,o),
(425,330,o),
(425,326,cs),
(425,326,o),
(423,322,o),
(423,321,cs),
(423,321,o),
(423,320,o),
(423,320,c),
(423,318,o),
(425,316,o),
(425,313,cs),
(425,301,o),
(423,288,o),
(423,276,cs),
(423,270,o),
(423,266,o),
(425,260,c),
(425,260,o),
(426,259,o),
(426,259,c),
(429,258,o),
(442,257,o),
(445,257,cs),
(454,257,o),
(498,257,o),
(507,257,c),
(510,255,l),
(510,255,o),
(511,245,o),
(511,241,cs),
(511,235,o),
(511,188,o),
(511,182,cs),
(511,176,o),
(512,149,o),
(512,144,cs),
(512,143,o),
(510,136,o),
(510,135,cs),
(510,135,o),
(506,132,o),
(504,131,cs),
(498,126,o),
(490,120,o),
(483,116,c),
(482,116,o),
(479,114,o),
(479,114,c),
(471,111,o),
(465,107,o),
(457,104,c),
(456,104,o),
(452,101,o),
(452,101,c),
(440,97,o),
(427,95,o),
(415,91,c),
(380,91,l),
(373,94,o),
(364,93,o),
(357,94,cs),
(354,95,o),
(338,98,o),
(334,98,c),
(332,99,o),
(320,102,o),
(318,102,cs),
(317,102,o),
(313,105,o),
(313,105,c),
(312,105,o),
(309,105,o),
(309,105,c),
(308,105,o),
(301,108,o),
(299,109,cs),
(296,110,o),
(286,115,o),
(286,116,c),
(284,116,o),
(274,125,o),
(272,125,c),
(266,130,o),
(258,133,o),
(252,139,c),
(251,139,o),
(246,145,o),
(245,145,cs),
(245,145,o),
(242,148,o),
(241,148,cs),
(230,159,o),
(218,171,o),
(210,185,c),
(210,186,o),
(204,197,o),
(204,198,cs),
(197,210,o),
(192,217,o),
(189,230,cs),
(187,237,o),
(185,245,o),
(183,251,cs),
(180,263,o),
(175,274,o),
(174,287,cs),
(172,304,o),
(170,322,o),
(170,338,cs),
(170,340,o),
(170,346,o),
(170,347,cs),
(170,349,o),
(171,363,o),
(171,365,cs),
(172,375,o),
(172,384,o),
(174,392,cs),
(175,394,o),
(177,411,o),
(178,413,cs),
(179,415,o),
(180,418,o),
(181,421,cs),
(181,423,o),
(182,429,o),
(182,429,c),
(182,430,o),
(186,438,o),
(187,441,cs),
(189,444,o),
(193,454,o),
(194,454,c),
(195,456,o),
(201,465,o),
(202,467,c),
(202,467,o),
(204,470,o),
(204,471,cs),
(207,476,o),
(212,481,o),
(216,487,cs),
(218,490,o),
(226,502,o),
(228,503,c),
(228,504,o),
(237,513,o),
(240,515,cs),
(262,535,o),
(285,552,o),
(314,560,cs),
(334,565,o),
(352,568,o),
(372,568,cs),
(374,568,o),
(380,568,o),
(380,568,c),
(384,567,o),
(411,564,o),
(419,562,cs),
(426,561,o),
(434,559,o),
(441,557,cs),
(445,556,o),
(465,549,o),
(469,548,cs),
(470,547,o),
(474,544,o),
(475,544,c),
(475,543,o),
(481,540,o),
(481,539,c),
(494,530,o),
(506,519,o),
(518,508,c),
(518,508,o),
(521,505,o),
(522,504,c),
(523,504,o),
(527,498,o),
(527,498,c),
(528,496,o),
(533,492,o),
(534,491,c),
(534,491,o),
(535,491,o),
(535,491,c),
(540,491,o),
(546,494,o),
(547,499,c),
(611,562,l),
(611,562,o),
(613,566,o),
(614,568,c),
(614,569,o),
(615,572,o),
(615,572,c),
(615,573,o),
(614,575,o),
(614,576,cs),
(574,618,o),
(514,653,o),
(458,668,c),
(457,668,o),
(446,670,o),
(445,670,cs),
(444,670,o),
(442,673,o),
(441,673,cs),
(440,673,o),
(435,673,o),
(434,673,cs),
(431,673,o),
(411,676,o),
(409,677,c),
(396,678,o),
(384,678,o),
(371,678,cs),
(367,678,o),
(357,678,o),
(356,678,c),
(353,677,l),
(341,678,o),
(329,676,o),
(317,674,c),
(303,673,o),
(291,668,o),
(278,665,c),
(277,665,o),
(272,664,o),
(271,664,cs),
(270,664,o),
(266,661,o),
(266,661,c),
(264,660,o),
(255,658,o),
(253,657,cs),
(251,656,o),
(239,652,o),
(236,650,c),
(234,647,o),
(233,647,o),
(229,646,cs),
(227,645,o),
(216,639,o),
(213,638,cs),
(211,637,o),
(204,633,o),
(204,633,c),
(203,633,o),
(200,629,o),
(199,629,cs),
(199,629,o),
(196,627,o),
(195,627,cs),
(193,627,o),
(191,625,o),
(189,623,cs),
(187,621,o),
(168,608,o),
(166,606,c),
(165,606,o),
(162,603,o),
(162,603,c),
(148,591,o),
(135,577,o),
(124,564,cs),
(113,550,o),
(101,537,o),
(93,522,cs),
(81,501,o),
(71,479,o),
(63,457,c),
(63,456,o),
(59,448,o),
(59,446,cs),
(59,444,o),
(56,425,o),
(55,423,c),
(55,423,o),
(52,417,o),
(52,417,c),
(49,407,o),
(48,397,o),
(47,387,cs),
(44,365,o),
(42,342,o),
(42,320,cs),
(42,318,o),
(42,313,o),
(42,313,c),
(42,311,o),
(43,295,o),
(43,293,cs),
(43,292,o),
(43,285,o),
(43,284,cs),
(44,278,o),
(46,271,o),
(47,264,cs),
(47,260,o),
(48,250,o),
(48,249,cs),
(48,249,o),
(51,242,o),
(51,241,cs),
(51,241,o),
(52,236,o),
(52,234,cs),
(52,234,o),
(54,226,o),
(54,225,cs),
(55,218,o),
(59,210,o),
(61,203,c),
(61,203,o),
(62,199,o),
(62,198,cs),
(62,197,o),
(65,191,o),
(66,190,cs),
(67,189,o),
(71,176,o),
(71,175,cs),
(77,162,o),
(83,148,o),
(92,136,cs),
(98,126,o),
(105,114,o),
(113,105,cs),
(129,86,o),
(146,69,o),
(164,54,c),
(165,54,o),
(168,51,o),
(168,51,c),
(169,50,o),
(172,48,o),
(172,47,c)
);
}
);
width = 686;
}
);
unicode = 71;
},
{
glyphname = G.alt;
kernLeft = O;
kernRight = O;
lastChange = "2023-06-25 14:23:23 +0000";
layers = (
{
anchors = (
{
name = bottom;
pos = (367,0);
},
{
name = measure;
},
{
name = top;
pos = (367,660);
}
);
layerId = master01;
shapes = (
{
closed = 1;
nodes = (
(270,3,o),
(296,-4,o),
(301,-5,cs),
(325,-11,o),
(348,-13,o),
(372,-13,cs),
(391,-13,o),
(410,-13,o),
(429,-9,c),
(430,-9,o),
(433,-8,o),
(433,-8,c),
(435,-8,o),
(449,-6,o),
(451,-5,cs),
(452,-4,o),
(466,0,o),
(467,0,cs),
(468,0,o),
(476,3,o),
(478,3,cs),
(478,3,o),
(481,4,o),
(482,4,cs),
(486,6,o),
(498,10,o),
(499,11,cs),
(501,12,o),
(520,20,o),
(526,23,c),
(527,23,o),
(529,25,o),
(529,25,c),
(529,25,o),
(532,27,o),
(532,27,c),
(533,28,o),
(542,35,o),
(544,35,c),
(555,43,o),
(564,50,o),
(573,60,cs),
(575,62,o),
(585,72,o),
(587,75,c),
(591,76,o),
(590,77,o),
(592,80,cs),
(593,81,o),
(598,86,o),
(599,87,c),
(599,87,o),
(602,90,o),
(602,91,cs),
(602,91,o),
(607,97,o),
(607,97,c),
(619,113,o),
(629,126,o),
(638,143,cs),
(649,163,o),
(658,182,o),
(665,203,cs),
(666,204,o),
(667,209,o),
(668,209,c),
(677,253,l),
(677,257,o),
(679,262,o),
(680,266,cs),
(681,276,o),
(685,309,o),
(685,312,cs),
(685,313,o),
(685,319,o),
(685,321,cs),
(685,322,o),
(685,328,o),
(685,330,cs),
(685,332,o),
(682,334,o),
(680,334,cs),
(679,334,o),
(671,334,o),
(669,334,cs),
(666,334,o),
(639,335,o),
(636,335,cs),
(633,335,o),
(592,335,o),
(577,335,cs),
(562,335,o),
(522,335,o),
(520,335,cs),
(517,335,o),
(497,334,o),
(494,334,cs),
(488,334,o),
(443,334,o),
(437,334,cs),
(435,334,o),
(422,333,o),
(420,332,c),
(420,332,o),
(418,331,o),
(418,331,c),
(418,330,o),
(416,327,o),
(416,326,cs),
(415,324,o),
(413,319,o),
(413,319,c),
(413,318,o),
(412,310,o),
(412,309,cs),
(412,309,o),
(411,306,o),
(410,305,c),
(410,304,o),
(406,296,o),
(406,294,cs),
(406,294,o),
(405,288,o),
(405,288,c),
(401,276,o),
(393,260,o),
(393,248,cs),
(393,238,o),
(402,242,o),
(409,242,cs),
(414,242,o),
(456,240,o),
(462,240,cs),
(468,240,o),
(520,240,o),
(526,240,cs),
(528,240,o),
(540,240,o),
(544,239,c),
(545,239,o),
(551,238,o),
(552,238,cs),
(554,237,o),
(553,233,o),
(553,232,cs),
(553,231,o),
(553,228,o),
(553,228,c),
(553,227,o),
(549,215,o),
(548,211,cs),
(546,207,o),
(544,201,o),
(542,197,c),
(542,197,o),
(540,194,o),
(540,193,cs),
(537,187,o),
(536,181,o),
(532,176,cs),
(530,172,o),
(519,158,o),
(517,155,c),
(516,155,o),
(511,149,o),
(510,147,c),
(510,147,o),
(509,146,o),
(509,146,c),
(508,145,o),
(500,139,o),
(499,138,cs),
(488,128,o),
(477,119,o),
(464,112,cs),
(457,108,o),
(446,101,o),
(437,99,cs),
(424,95,o),
(412,95,o),
(399,92,c),
(350,92,l),
(349,92,o),
(345,93,o),
(344,93,cs),
(344,93,o),
(343,93,o),
(343,93,c),
(340,94,o),
(326,97,o),
(323,97,c),
(316,99,o),
(309,101,o),
(302,104,cs),
(292,108,o),
(281,110,o),
(271,118,c),
(271,118,o),
(264,124,o),
(263,124,cs),
(260,127,o),
(256,130,o),
(252,133,cs),
(251,134,o),
(239,146,o),
(238,147,c),
(237,147,o),
(234,150,o),
(234,150,c),
(225,157,o),
(219,166,o),
(212,176,cs),
(198,194,o),
(186,214,o),
(180,235,c),
(178,239,o),
(172,261,o),
(170,266,cs),
(167,276,o),
(167,282,o),
(166,292,cs),
(166,294,o),
(165,310,o),
(165,312,cs),
(165,313,o),
(163,323,o),
(163,324,cs),
(163,324,o),
(163,327,o),
(163,328,cs),
(163,348,o),
(166,366,o),
(169,385,cs),
(169,388,o),
(171,399,o),
(172,401,cs),
(174,413,o),
(179,425,o),
(184,436,cs),
(189,448,o),
(194,459,o),
(201,470,cs),
(202,471,o),
(209,485,o),
(211,486,c),
(222,504,o),
(238,518,o),
(255,529,cs),
(294,554,o),
(329,566,o),
(375,566,cs),
(404,566,o),
(438,560,o),
(464,548,c),
(466,548,o),
(474,543,o),
(475,543,cs),
(485,538,o),
(496,533,o),
(505,525,c),
(505,525,o),
(509,521,o),
(510,520,cs),
(511,519,o),
(517,515,o),
(518,514,cs),
(533,500,o),
(544,485,o),
(557,469,cs),
(558,467,o),
(561,465,o),
(561,465,c),
(561,465,o),
(563,465,o),
(564,465,cs),
(565,465,o),
(567,465,o),
(567,465,c),
(567,465,o),
(571,468,o),
(572,469,cs),
(575,471,o),
(586,478,o),
(588,479,c),
(588,479,o),
(591,481,o),
(591,481,c),
(596,485,o),
(602,489,o),
(607,493,cs),
(621,502,o),
(636,511,o),
(649,521,c),
(650,521,o),
(650,523,o),
(650,523,c),
(650,523,o),
(650,526,o),
(649,527,cs),
(648,528,o),
(644,536,o),
(644,537,cs),
(640,543,o),
(617,568,o),
(613,574,cs),
(612,575,o),
(597,588,o),
(591,593,cs),
(571,609,o),
(551,623,o),
(528,635,c),
(518,639,o),
(507,643,o),
(498,648,cs),
(494,649,o),
(493,650,o),
(490,651,cs),
(488,652,o),
(483,653,o),
(482,653,cs),
(481,653,o),
(478,656,o),
(478,656,c),
(477,656,o),
(472,658,o),
(471,658,cs),
(470,658,o),
(456,661,o),
(455,662,c),
(430,668,o),
(405,670,o),
(379,670,cs),
(372,670,o),
(355,670,o),
(354,670,cs),
(336,669,o),
(319,665,o),
(301,662,cs),
(291,660,o),
(279,656,o),
(270,652,cs),
(264,649,o),
(257,648,o),
(251,645,c),
(250,645,o),
(242,641,o),
(240,640,cs),
(230,635,o),
(218,631,o),
(208,625,cs),
(207,624,o),
(194,616,o),
(193,614,c),
(191,613,o),
(175,602,o),
(173,601,cs),
(172,600,o),
(167,597,o),
(166,595,cs),
(164,593,o),
(154,584,o),
(151,582,c),
(151,581,o),
(145,576,o),
(145,575,c),
(144,575,o),
(140,572,o),
(139,571,cs),
(138,570,o),
(133,564,o),
(132,563,c),
(132,562,o),
(125,556,o),
(124,555,cs),
(123,554,o),
(115,543,o),
(114,541,cs),
(110,537,o),
(105,533,o),
(103,528,c),
(103,527,o),
(100,523,o),
(100,523,c),
(100,523,o),
(99,521,o),
(99,521,c),
(98,520,o),
(95,516,o),
(95,516,c),
(79,491,o),
(67,465,o),
(58,436,cs),
(52,417,o),
(46,397,o),
(45,377,cs),
(45,375,o),
(45,361,o),
(45,359,cs),
(45,358,o),
(43,350,o),
(43,348,cs),
(43,345,o),
(43,321,o),
(43,317,cs),
(43,316,o),
(43,311,o),
(42,311,c),
(44,280,o),
(49,249,o),
(58,219,c),
(60,216,o),
(62,211,o),
(62,208,c),
(64,202,o),
(67,196,o),
(69,191,cs),
(78,168,o),
(89,148,o),
(103,128,cs),
(109,119,o),
(116,111,o),
(123,101,c),
(150,72,o),
(179,48,o),
(213,29,cs),
(224,23,o),
(234,17,o),
(246,12,cs),
(252,10,o),
(259,8,o),
(265,4,c)
);
}
);
width = 733;
},
{
anchors = (
{
name = bottom;
pos = (367,0);
},
{
name = measure;
},
{
name = top;
pos = (367,660);
}
);
color = 0;
layerId = "7B371D60-13E0-44E7-A998-8DAF0ECD409E";
shapes = (
{
closed = 1;
nodes = (
(270,3,o),
(296,-4,o),
(301,-5,cs),
(325,-11,o),
(348,-13,o),
(372,-13,cs),
(391,-13,o),
(410,-13,o),
(429,-9,c),
(430,-9,o),
(433,-8,o),
(433,-8,c),
(435,-8,o),
(449,-6,o),
(451,-5,cs),
(452,-4,o),
(466,0,o),
(467,0,cs),
(468,0,o),
(476,3,o),
(478,3,cs),
(478,3,o),
(481,4,o),
(482,4,cs),
(486,6,o),
(498,10,o),
(499,11,cs),
(501,12,o),
(520,20,o),
(526,23,c),
(527,23,o),
(529,25,o),
(529,25,c),
(529,25,o),
(532,27,o),
(532,27,c),
(533,28,o),
(542,35,o),
(544,35,c),
(555,43,o),
(564,50,o),
(573,60,cs),
(575,62,o),
(585,72,o),
(587,75,c),
(591,76,o),
(590,77,o),
(592,80,cs),
(593,81,o),
(598,86,o),
(599,87,c),
(599,87,o),
(602,90,o),
(602,91,cs),
(602,91,o),
(607,97,o),
(607,97,c),
(619,113,o),
(629,126,o),
(638,143,cs),
(649,163,o),
(658,182,o),
(665,203,cs),
(666,204,o),
(667,209,o),
(668,209,c),
(677,253,l),
(677,257,o),
(679,262,o),
(680,266,cs),
(681,276,o),
(685,309,o),
(685,312,cs),
(685,313,o),
(685,319,o),
(685,321,cs),
(685,322,o),
(685,328,o),
(685,330,cs),
(685,332,o),
(682,334,o),
(680,334,cs),
(679,334,o),
(671,334,o),
(669,334,cs),
(666,334,o),
(639,335,o),
(636,335,cs),
(633,335,o),
(592,335,o),
(577,335,cs),
(562,335,o),
(522,335,o),
(520,335,cs),
(517,335,o),
(497,334,o),
(494,334,cs),
(488,334,o),
(443,334,o),
(437,334,cs),
(435,334,o),
(422,333,o),
(420,332,c),
(420,332,o),
(418,331,o),
(418,331,c),
(418,330,o),
(416,327,o),
(416,326,cs),
(415,324,o),
(413,319,o),
(413,319,c),
(413,318,o),
(412,310,o),
(412,309,cs),
(412,309,o),
(411,306,o),
(410,305,c),
(410,304,o),
(406,296,o),
(406,294,cs),
(406,294,o),
(405,288,o),
(405,288,c),
(401,276,o),
(393,260,o),
(393,248,cs),
(393,238,o),
(402,242,o),
(409,242,cs),
(414,242,o),
(456,240,o),
(462,240,cs),
(468,240,o),
(520,240,o),
(526,240,cs),
(528,240,o),
(540,240,o),
(544,239,c),
(545,239,o),
(551,238,o),
(552,238,cs),
(554,237,o),
(553,233,o),
(553,232,cs),
(553,231,o),
(553,228,o),
(553,228,c),
(553,227,o),
(549,215,o),
(548,211,cs),
(546,207,o),
(544,201,o),
(542,197,c),
(542,197,o),
(540,194,o),
(540,193,cs),
(537,187,o),
(536,181,o),
(532,176,cs),
(530,172,o),
(519,158,o),
(517,155,c),
(516,155,o),
(511,149,o),
(510,147,c),
(510,147,o),
(509,146,o),
(509,146,c),
(508,145,o),
(500,139,o),
(499,138,cs),
(488,128,o),
(477,119,o),
(464,112,cs),
(457,108,o),
(446,101,o),
(437,99,cs),
(424,95,o),
(412,95,o),
(399,92,c),
(350,92,l),
(349,92,o),
(345,93,o),
(344,93,cs),
(344,93,o),
(343,93,o),
(343,93,c),
(340,94,o),
(326,97,o),
(323,97,c),
(316,99,o),
(309,101,o),
(302,104,cs),
(292,108,o),
(281,110,o),
(271,118,c),
(271,118,o),
(264,124,o),
(263,124,cs),
(260,127,o),
(256,130,o),
(252,133,cs),
(251,134,o),
(239,146,o),
(238,147,c),
(237,147,o),
(234,150,o),
(234,150,c),
(225,157,o),
(219,166,o),
(212,176,cs),
(198,194,o),
(186,214,o),
(180,235,c),
(178,239,o),
(172,261,o),
(170,266,cs),
(167,276,o),
(167,282,o),
(166,292,cs),
(166,294,o),
(165,310,o),
(165,312,cs),
(165,313,o),
(163,323,o),
(163,324,cs),
(163,324,o),
(163,327,o),
(163,328,cs),
(163,348,o),
(166,366,o),
(169,385,cs),
(169,388,o),
(171,399,o),
(172,401,cs),
(174,413,o),
(179,425,o),
(184,436,cs),
(189,448,o),
(194,459,o),
(201,470,cs),
(202,471,o),
(209,485,o),
(211,486,c),
(222,504,o),
(238,518,o),
(255,529,cs),
(294,554,o),
(329,566,o),
(375,566,cs),
(404,566,o),
(438,560,o),
(464,548,c),
(466,548,o),
(474,543,o),
(475,543,cs),
(485,538,o),
(496,533,o),
(505,525,c),
(505,525,o),
(509,521,o),
(510,520,cs),
(511,519,o),
(517,515,o),
(518,514,cs),
(533,500,o),
(544,485,o),
(557,469,cs),
(558,467,o),
(561,465,o),
(561,465,c),
(561,465,o),
(563,465,o),
(564,465,cs),
(565,465,o),
(567,465,o),
(567,465,c),
(567,465,o),
(571,468,o),
(572,469,cs),
(575,471,o),
(586,478,o),
(588,479,c),
(588,479,o),
(591,481,o),
(591,481,c),
(596,485,o),
(602,489,o),
(607,493,cs),
(621,502,o),
(636,511,o),
(649,521,c),
(650,521,o),
(650,523,o),
(650,523,c),
(650,523,o),
(650,526,o),
(649,527,cs),
(648,528,o),
(644,536,o),
(644,537,cs),
(640,543,o),
(617,568,o),
(613,574,cs),
(612,575,o),
(597,588,o),
(591,593,cs),
(571,609,o),
(551,623,o),
(528,635,c),
(518,639,o),
(507,643,o),
(498,648,cs),
(494,649,o),
(493,650,o),
(490,651,cs),
(488,652,o),
(483,653,o),
(482,653,cs),
(481,653,o),
(478,656,o),
(478,656,c),
(477,656,o),
(472,658,o),
(471,658,cs),
(470,658,o),
(456,661,o),
(455,662,c),
(430,668,o),
(405,670,o),
(379,670,cs),
(372,670,o),
(355,670,o),
(354,670,cs),
(336,669,o),
(319,665,o),
(301,662,cs),
(291,660,o),
(279,656,o),
(270,652,cs),
(264,649,o),
(257,648,o),
(251,645,c),
(250,645,o),
(242,641,o),
(240,640,cs),
(230,635,o),
(218,631,o),
(208,625,cs),
(207,624,o),
(194,616,o),
(193,614,c),
(191,613,o),
(175,602,o),
(173,601,cs),
(172,600,o),
(167,597,o),
(166,595,cs),
(164,593,o),
(154,584,o),
(151,582,c),
(151,581,o),
(145,576,o),
(145,575,c),
(144,575,o),
(140,572,o),
(139,571,cs),
(138,570,o),
(133,564,o),
(132,563,c),
(132,562,o),
(125,556,o),
(124,555,cs),
(123,554,o),
(115,543,o),
(114,541,cs),
(110,537,o),
(105,533,o),
(103,528,c),
(103,527,o),
(100,523,o),
(100,523,c),
(100,523,o),
(99,521,o),
(99,521,c),
(98,520,o),
(95,516,o),
(95,516,c),
(79,491,o),
(67,465,o),
(58,436,cs),
(52,417,o),
(46,397,o),
(45,377,cs),
(45,375,o),
(45,361,o),
(45,359,cs),
(45,358,o),
(43,350,o),
(43,348,cs),
(43,345,o),
(43,321,o),
(43,317,cs),
(43,316,o),
(43,311,o),
(42,311,c),
(44,280,o),
(49,249,o),
(58,219,c),
(60,216,o),
(62,211,o),
(62,208,c),
(64,202,o),
(67,196,o),
(69,191,cs),
(78,168,o),
(89,148,o),
(103,128,cs),
(109,119,o),
(116,111,o),
(123,101,c),
(150,72,o),
(179,48,o),
(213,29,cs),
(224,23,o),
(234,17,o),
(246,12,cs),
(252,10,o),
(259,8,o),
(265,4,c)
);
}
);
width = 733;
}
);
},
{
glyphname = G.alt.ss02;
kernLeft = O;
kernRight = O;
lastChange = "2023-06-25 14:23:23 +0000";
layers = (
{
anchors = (
{
name = _measure;
}
);
layerId = master01;
shapes = (
{
closed = 1;
nodes = (
(683,-141,o),
(669,-166,o),
(681,-166,cs),
(681,-166,o),
(683,-166,o),
(683,-166,c),
(683,-166,o),
(684,-164,o),
(684,-163,c),
(684,-118,l),
(684,-118,o),
(682,-114,o),
(681,-113,c),
(681,-113,o),
(681,-113,o),
(680,-113,cs),
(679,-113,o),
(677,-113,o),
(677,-114,c),
(675,-129,l),
(672,-132,l),
(564,-132,l),
(561,-133,o),
(548,-133,o),
(545,-133,cs),
(536,-133,o),
(493,-133,o),
(484,-133,cs),
(472,-133,l),
(386,-132,l),
(385,-132,o),
(381,-133,o),
(379,-133,cs),
(379,-133,o),
(379,-133,o),
(379,-133,c),
(379,-133,o),
(378,-133,o),
(378,-133,c),
(377,-133,o),
(375,-132,o),
(374,-132,cs),
(370,-132,o),
(355,-132,o),
(352,-132,cs),
(346,-132,o),
(330,-132,o),
(329,-132,cs),
(327,-132,o),
(302,-133,o),
(300,-133,cs),
(293,-133,o),
(261,-133,o),
(254,-133,cs),
(247,-133,l),
(166,-132,l),
(161,-134,o),
(152,-133,o),
(147,-133,cs),
(143,-133,o),
(134,-133,o),
(134,-133,c),
(132,-133,o),
(122,-132,o),
(120,-132,cs),
(120,-132,o),
(114,-133,o),
(114,-133,c),
(114,-133,o),
(113,-133,o),
(113,-133,c),
(113,-133,o),
(112,-133,o),
(112,-133,c),
(109,-133,o),
(82,-132,o),
(78,-132,cs),
(77,-132,o),
(69,-132,o),
(68,-132,cs),
(66,-132,o),
(60,-131,o),
(58,-131,cs),
(58,-131,o),
(56,-129,o),
(56,-129,c),
(56,-128,o),
(54,-123,o),
(54,-121,cs),
(54,-120,o),
(53,-116,o),
(53,-116,c),
(52,-115,o),
(47,-114,o),
(46,-114,c),
(46,-158,l),
(46,-158,o),
(48,-160,o),
(49,-160,cs),
(49,-160,o),
(49,-160,o),
(50,-160,cs),
(51,-160,o),
(53,-160,o),
(53,-159,c),
(53,-145,l),
(58,-141,l),
(59,-141,o),
(69,-140,o),
(73,-140,cs),
(76,-140,o),
(105,-143,o),
(108,-143,cs),
(114,-143,o),
(165,-141,o),
(172,-141,cs),
(198,-141,o),
(322,-142,o),
(348,-142,cs),
(358,-142,l),
(495,-142,l),
(511,-142,l),
(668,-141,ls)
);
},
{
closed = 1;
nodes = (
(313,-107,o),
(314,-114,o),
(325,-121,cs),
(327,-122,o),
(331,-124,o),
(331,-124,c),
(331,-124,o),
(335,-124,o),
(336,-124,cs),
(341,-124,o),
(343,-125,o),
(347,-123,cs),
(355,-118,o),
(363,-107,o),
(363,-98,cs),
(363,-98,o),
(363,-96,o),
(363,-96,c),
(361,-85,o),
(356,-78,o),
(344,-78,cs),
(342,-78,o),
(337,-78,o),
(337,-78,c),
(337,-78,o),
(334,-79,o),
(333,-79,cs),
(331,-81,o),
(329,-83,o),
(325,-83,c),
(325,-71,o),
(349,-62,o),
(349,-49,c),
(346,-49,o),
(341,-50,o),
(339,-52,cs),
(337,-54,o),
(326,-65,o),
(324,-67,cs),
(317,-75,o),
(313,-84,o),
(313,-95,cs)
);
},
{
closed = 1;
nodes = (
(436,-102,o),
(435,-104,o),
(437,-105,cs),
(445,-108,o),
(452,-105,o),
(459,-108,cs),
(464,-110,o),
(458,-120,o),
(466,-120,cs),
(467,-120,o),
(468,-120,o),
(468,-118,cs),
(468,-118,o),
(469,-111,o),
(470,-110,cs),
(472,-106,o),
(480,-104,o),
(480,-99,cs),
(480,-95,o),
(478,-96,o),
(475,-94,c),
(474,-94,o),
(470,-91,o),
(470,-90,c),
(470,-67,l),
(470,-67,o),
(469,-65,o),
(468,-65,c),
(468,-64,o),
(467,-63,o),
(467,-63,c),
(461,-63,o),
(457,-69,o),
(455,-73,c),
(454,-73,o),
(450,-79,o),
(449,-79,c),
(449,-81,o),
(443,-89,o),
(443,-90,cs),
(442,-91,o),
(437,-98,o),
(436,-98,cs),
(436,-98,o),
(436,-100,o),
(436,-101,c)
);
},
{
closed = 1;
nodes = (
(405,-119,l),
(412,-119,o),
(412,-116,o),
(416,-110,cs),
(418,-106,o),
(421,-101,o),
(424,-97,cs),
(427,-91,o),
(429,-84,o),
(433,-78,c),
(433,-77,o),
(436,-75,o),
(436,-74,cs),
(437,-71,o),
(443,-59,o),
(444,-56,c),
(444,-56,o),
(444,-54,o),
(444,-54,c),
(444,-52,o),
(443,-51,o),
(441,-51,cs),
(436,-51,o),
(437,-55,o),
(435,-58,c),
(435,-58,o),
(432,-60,o),
(432,-60,c),
(429,-66,o),
(427,-73,o),
(425,-78,cs),
(423,-83,o),
(420,-85,o),
(418,-90,c),
(418,-91,o),
(417,-95,o),
(417,-96,c),
(405,-113,l)
);
},
{
closed = 1;
nodes = (
(324,-102,o),
(325,-98,o),
(325,-97,cs),
(326,-96,o),
(332,-89,o),
(333,-89,cs),
(333,-89,o),
(337,-87,o),
(339,-87,cs),
(339,-87,o),
(339,-87,o),
(339,-87,c),
(347,-87,o),
(354,-90,o),
(354,-98,cs),
(354,-106,o),
(346,-116,o),
(339,-116,cs),
(331,-116,o),
(325,-109,o),
(324,-102,c)
);
},
{
closed = 1;
nodes = (
(382,-91,o),
(382,-91,o),
(382,-91,c),
(385,-96,o),
(387,-97,o),
(393,-97,cs),
(405,-97,o),
(412,-92,o),
(412,-79,cs),
(412,-75,o),
(409,-71,o),
(409,-67,cs),
(409,-64,o),
(410,-61,o),
(410,-58,cs),
(410,-51,o),
(401,-47,o),
(395,-47,cs),
(389,-47,o),
(382,-51,o),
(381,-58,c),
(381,-58,o),
(381,-60,o),
(382,-60,cs),
(382,-60,o),
(383,-60,o),
(383,-60,c),
(387,-60,o),
(391,-58,o),
(395,-58,cs),
(397,-58,o),
(399,-58,o),
(399,-60,cs),
(399,-60,o),
(399,-62,o),
(399,-62,c),
(399,-62,o),
(395,-67,o),
(394,-67,cs),
(393,-68,o),
(389,-69,o),
(389,-70,cs),
(389,-70,o),
(389,-72,o),
(389,-73,cs),
(389,-82,o),
(399,-73,o),
(402,-81,c),
(402,-81,o),
(402,-81,o),
(402,-82,cs),
(402,-83,o),
(402,-86,o),
(401,-86,c),
(385,-86,ls),
(383,-86,o),
(382,-90,o),
(382,-91,c)
);
},
{
closed = 1;
nodes = (
(451,-92,o),
(458,-81,o),
(459,-81,cs),
(462,-81,o),
(462,-84,o),
(462,-85,cs),
(462,-85,o),
(462,-88,o),
(462,-89,cs),
(462,-90,o),
(462,-94,o),
(462,-94,c),
(460,-96,o),
(458,-97,o),
(456,-97,cs),
(453,-97,o),
(451,-97,o),
(451,-94,cs)
);
},
{
closed = 1;
nodes = (
(660,170,o),
(659,165,o),
(662,165,cs),
(669,165,o),
(676,182,o),
(679,188,cs),
(684,199,o),
(690,209,o),
(694,222,c),
(694,222,o),
(695,226,o),
(695,227,cs),
(706,259,o),
(712,293,o),
(712,327,cs),
(712,356,o),
(710,385,o),
(704,413,cs),
(704,415,o),
(702,423,o),
(702,424,cs),
(701,427,o),
(697,431,o),
(698,435,c),
(691,453,o),
(684,470,o),
(677,487,cs),
(675,493,o),
(668,508,o),
(661,508,cs),
(658,508,o),
(658,506,o),
(658,504,cs),
(658,494,o),
(668,483,o),
(672,474,cs),
(676,465,o),
(680,454,o),
(684,444,cs),
(685,443,o),
(687,438,o),
(687,438,c),
(698,402,o),
(703,365,o),
(703,328,cs),
(703,307,o),
(700,286,o),
(695,265,c),
(695,264,o),
(694,261,o),
(694,261,c),
(694,261,o),
(694,258,o),
(694,258,c),
(692,251,o),
(690,247,o),
(688,240,cs),
(687,238,o),
(681,218,o),
(680,216,cs),
(679,214,o),
(671,195,o),
(668,189,cs),
(665,184,o),
(660,177,o),
(660,171,c)
);
}
);
userData = {
com.typemytype.robofont.mark = (
0.939,
1,
0.6,
1
);
};
width = 733;
},
{
anchors = (
{
name = _measure;
}
);
color = 0;
layerId = "7B371D60-13E0-44E7-A998-8DAF0ECD409E";
shapes = (
{
closed = 1;
nodes = (
(683,-141,o),
(669,-166,o),
(681,-166,cs),
(681,-166,o),
(683,-166,o),
(683,-166,c),
(683,-166,o),
(684,-164,o),
(684,-163,c),
(684,-118,l),
(684,-118,o),
(682,-114,o),
(681,-113,c),
(681,-113,o),
(681,-113,o),
(680,-113,cs),
(679,-113,o),
(677,-113,o),
(677,-114,c),
(675,-129,l),
(672,-132,l),
(564,-132,l),
(561,-133,o),
(548,-133,o),
(545,-133,cs),
(536,-133,o),
(493,-133,o),
(484,-133,cs),
(472,-133,l),
(386,-132,l),
(385,-132,o),
(381,-133,o),
(379,-133,cs),
(379,-133,o),
(379,-133,o),
(379,-133,c),
(379,-133,o),
(378,-133,o),
(378,-133,c),
(377,-133,o),
(375,-132,o),
(374,-132,cs),
(370,-132,o),
(355,-132,o),
(352,-132,cs),
(346,-132,o),
(330,-132,o),
(329,-132,cs),
(327,-132,o),
(302,-133,o),
(300,-133,cs),
(293,-133,o),
(261,-133,o),
(254,-133,cs),
(247,-133,l),
(166,-132,l),
(161,-134,o),
(152,-133,o),
(147,-133,cs),
(143,-133,o),
(134,-133,o),
(134,-133,c),
(132,-133,o),
(122,-132,o),
(120,-132,cs),
(120,-132,o),
(114,-133,o),
(114,-133,c),
(114,-133,o),
(113,-133,o),
(113,-133,c),
(113,-133,o),
(112,-133,o),
(112,-133,c),
(109,-133,o),
(82,-132,o),
(78,-132,cs),
(77,-132,o),
(69,-132,o),
(68,-132,cs),
(66,-132,o),
(60,-131,o),
(58,-131,cs),
(58,-131,o),
(56,-129,o),
(56,-129,c),
(56,-128,o),
(54,-123,o),
(54,-121,cs),
(54,-120,o),
(53,-116,o),
(53,-116,c),
(52,-115,o),
(47,-114,o),
(46,-114,c),
(46,-158,l),
(46,-158,o),
(48,-160,o),
(49,-160,cs),
(49,-160,o),
(49,-160,o),
(50,-160,cs),
(51,-160,o),
(53,-160,o),
(53,-159,c),
(53,-145,l),
(58,-141,l),
(59,-141,o),
(69,-140,o),
(73,-140,cs),
(76,-140,o),
(105,-143,o),
(108,-143,cs),
(114,-143,o),
(165,-141,o),
(172,-141,cs),
(198,-141,o),
(322,-142,o),
(348,-142,cs),
(358,-142,l),
(495,-142,l),
(511,-142,l),
(668,-141,ls)
);
},
{
closed = 1;
nodes = (
(313,-107,o),
(314,-114,o),
(325,-121,cs),
(327,-122,o),
(331,-124,o),
(331,-124,c),
(331,-124,o),
(335,-124,o),
(336,-124,cs),
(341,-124,o),
(343,-125,o),
(347,-123,cs),
(355,-118,o),
(363,-107,o),
(363,-98,cs),
(363,-98,o),
(363,-96,o),
(363,-96,c),
(361,-85,o),
(356,-78,o),
(344,-78,cs),
(342,-78,o),
(337,-78,o),
(337,-78,c),
(337,-78,o),
(334,-79,o),
(333,-79,cs),
(331,-81,o),
(329,-83,o),
(325,-83,c),
(325,-71,o),
(349,-62,o),
(349,-49,c),
(346,-49,o),
(341,-50,o),
(339,-52,cs),
(337,-54,o),
(326,-65,o),
(324,-67,cs),
(317,-75,o),
(313,-84,o),
(313,-95,cs)
);
},
{
closed = 1;
nodes = (
(436,-102,o),
(435,-104,o),
(437,-105,cs),
(445,-108,o),
(452,-105,o),
(459,-108,cs),
(464,-110,o),
(458,-120,o),
(466,-120,cs),
(467,-120,o),
(468,-120,o),
(468,-118,cs),
(468,-118,o),
(469,-111,o),
(470,-110,cs),
(472,-106,o),
(480,-104,o),
(480,-99,cs),
(480,-95,o),
(478,-96,o),
(475,-94,c),
(474,-94,o),
(470,-91,o),
(470,-90,c),
(470,-67,l),
(470,-67,o),
(469,-65,o),
(468,-65,c),
(468,-64,o),
(467,-63,o),
(467,-63,c),
(461,-63,o),
(457,-69,o),
(455,-73,c),
(454,-73,o),
(450,-79,o),
(449,-79,c),
(449,-81,o),
(443,-89,o),
(443,-90,cs),
(442,-91,o),
(437,-98,o),
(436,-98,cs),
(436,-98,o),
(436,-100,o),
(436,-101,c)
);
},
{
closed = 1;
nodes = (
(405,-119,l),
(412,-119,o),
(412,-116,o),
(416,-110,cs),
(418,-106,o),
(421,-101,o),
(424,-97,cs),
(427,-91,o),
(429,-84,o),
(433,-78,c),
(433,-77,o),
(436,-75,o),
(436,-74,cs),
(437,-71,o),
(443,-59,o),
(444,-56,c),
(444,-56,o),
(444,-54,o),
(444,-54,c),
(444,-52,o),
(443,-51,o),
(441,-51,cs),
(436,-51,o),
(437,-55,o),
(435,-58,c),
(435,-58,o),
(432,-60,o),
(432,-60,c),
(429,-66,o),
(427,-73,o),
(425,-78,cs),
(423,-83,o),
(420,-85,o),
(418,-90,c),
(418,-91,o),
(417,-95,o),
(417,-96,c),
(405,-113,l)
);
},
{
closed = 1;
nodes = (
(324,-102,o),
(325,-98,o),
(325,-97,cs),
(326,-96,o),
(332,-89,o),
(333,-89,cs),
(333,-89,o),
(337,-87,o),
(339,-87,cs),
(339,-87,o),
(339,-87,o),
(339,-87,c),
(347,-87,o),
(354,-90,o),
(354,-98,cs),
(354,-106,o),
(346,-116,o),
(339,-116,cs),
(331,-116,o),
(325,-109,o),
(324,-102,c)
);
},
{
closed = 1;
nodes = (
(382,-91,o),
(382,-91,o),
(382,-91,c),
(385,-96,o),
(387,-97,o),
(393,-97,cs),
(405,-97,o),
(412,-92,o),
(412,-79,cs),
(412,-75,o),
(409,-71,o),
(409,-67,cs),
(409,-64,o),
(410,-61,o),
(410,-58,cs),
(410,-51,o),
(401,-47,o),
(395,-47,cs),
(389,-47,o),
(382,-51,o),
(381,-58,c),
(381,-58,o),
(381,-60,o),
(382,-60,cs),
(382,-60,o),
(383,-60,o),
(383,-60,c),
(387,-60,o),
(391,-58,o),
(395,-58,cs),
(397,-58,o),
(399,-58,o),
(399,-60,cs),
(399,-60,o),
(399,-62,o),
(399,-62,c),
(399,-62,o),
(395,-67,o),
(394,-67,cs),
(393,-68,o),
(389,-69,o),
(389,-70,cs),
(389,-70,o),
(389,-72,o),
(389,-73,cs),
(389,-82,o),
(399,-73,o),
(402,-81,c),
(402,-81,o),
(402,-81,o),
(402,-82,cs),
(402,-83,o),
(402,-86,o),
(401,-86,c),
(385,-86,ls),
(383,-86,o),
(382,-90,o),
(382,-91,c)
);
},
{
closed = 1;
nodes = (
(451,-92,o),
(458,-81,o),
(459,-81,cs),
(462,-81,o),
(462,-84,o),
(462,-85,cs),
(462,-85,o),
(462,-88,o),
(462,-89,cs),
(462,-90,o),
(462,-94,o),
(462,-94,c),
(460,-96,o),
(458,-97,o),
(456,-97,cs),
(453,-97,o),
(451,-97,o),
(451,-94,cs)
);
},
{
closed = 1;
nodes = (
(660,170,o),
(659,165,o),
(662,165,cs),
(669,165,o),
(676,182,o),
(679,188,cs),
(684,199,o),
(690,209,o),
(694,222,c),
(694,222,o),
(695,226,o),
(695,227,cs),
(706,259,o),
(712,293,o),
(712,327,cs),
(712,356,o),
(710,385,o),
(704,413,cs),
(704,415,o),
(702,423,o),
(702,424,cs),
(701,427,o),
(697,431,o),
(698,435,c),
(691,453,o),
(684,470,o),
(677,487,cs),
(675,493,o),
(668,508,o),
(661,508,cs),
(658,508,o),
(658,506,o),
(658,504,cs),
(658,494,o),
(668,483,o),
(672,474,cs),
(676,465,o),
(680,454,o),
(684,444,cs),
(685,443,o),
(687,438,o),
(687,438,c),
(698,402,o),
(703,365,o),
(703,328,cs),
(703,307,o),
(700,286,o),
(695,265,c),
(695,264,o),
(694,261,o),
(694,261,c),
(694,261,o),
(694,258,o),
(694,258,c),
(692,251,o),
(690,247,o),
(688,240,cs),
(687,238,o),
(681,218,o),
(680,216,cs),
(679,214,o),
(671,195,o),
(668,189,cs),
(665,184,o),
(660,177,o),
(660,171,c)
);
}
);
userData = {
com.typemytype.robofont.mark = (
0.939,
1,
0.6,
1
);
};
width = 733;
}
);
},
{
glyphname = G.ss02;
kernLeft = O;
lastChange = "2023-06-25 14:23:23 +0000";
layers = (
{
anchors = (
{
name = _measure;
}
);
layerId = master01;
shapes = (
{
closed = 1;
nodes = (
(51,-162,l),
(51,-163,o),
(53,-170,o),
(54,-173,c),
(54,-174,o),
(55,-174,o),
(56,-174,cs),
(61,-174,o),
(62,-169,o),
(62,-166,cs),
(62,-164,o),
(62,-153,o),
(62,-150,cs),
(62,-150,o),
(63,-149,o),
(63,-149,c),
(65,-148,o),
(70,-147,o),
(71,-147,cs),
(79,-147,o),
(112,-147,o),
(120,-147,cs),
(121,-147,o),
(129,-146,o),
(131,-146,cs),
(131,-146,o),
(131,-146,o),
(131,-146,c),
(226,-146,o),
(321,-147,o),
(415,-147,cs),
(435,-147,o),
(525,-147,o),
(543,-147,cs),
(547,-147,o),
(564,-146,o),
(568,-146,cs),
(568,-146,o),
(570,-146,o),
(572,-146,cs),
(572,-146,o),
(576,-146,o),
(576,-146,c),
(579,-146,o),
(609,-147,o),
(612,-147,cs),
(614,-147,o),
(620,-148,o),
(620,-151,cs),
(620,-169,l),
(620,-170,o),
(624,-174,o),
(625,-174,cs),
(628,-174,o),
(630,-170,o),
(630,-168,cs),
(630,-166,o),
(630,-155,o),
(630,-153,cs),
(630,-149,o),
(630,-139,o),
(630,-138,cs),
(630,-134,o),
(628,-115,o),
(628,-111,cs),
(628,-109,o),
(627,-107,o),
(624,-107,cs),
(620,-107,o),
(619,-110,o),
(619,-114,cs),
(619,-116,o),
(619,-130,o),
(619,-133,c),
(618,-134,o),
(616,-135,o),
(615,-135,cs),
(610,-135,o),
(589,-136,o),
(584,-137,c),
(583,-137,o),
(579,-138,o),
(578,-138,cs),
(578,-138,o),
(578,-138,o),
(578,-138,c),
(575,-138,o),
(574,-137,o),
(571,-137,cs),
(568,-137,o),
(566,-138,o),
(564,-138,cs),
(564,-138,o),
(564,-138,o),
(564,-138,c),
(564,-138,o),
(561,-137,o),
(561,-137,c),
(560,-137,o),
(554,-137,o),
(553,-137,cs),
(552,-137,o),
(541,-135,o),
(539,-135,cs),
(537,-135,o),
(518,-137,o),
(516,-137,cs),
(516,-137,o),
(506,-137,o),
(502,-137,cs),
(498,-137,o),
(485,-137,o),
(484,-137,cs),
(473,-137,o),
(422,-136,o),
(411,-136,cs),
(406,-136,l),
(65,-137,l),
(65,-137,o),
(63,-136,o),
(63,-135,cs),
(63,-135,o),
(62,-131,o),
(62,-130,cs),
(61,-124,o),
(64,-111,o),
(54,-111,cs),
(54,-111,o),
(54,-111,o),
(54,-111,c),
(51,-116,l)
);
},
{
closed = 1;
nodes = (
(313,-108,o),
(325,-123,o),
(339,-123,cs),
(349,-123,o),
(358,-115,o),
(364,-108,c),
(365,-108,o),
(367,-105,o),
(367,-104,cs),
(368,-100,o),
(368,-96,o),
(368,-92,cs),
(368,-83,o),
(360,-71,o),
(349,-69,cs),
(347,-69,o),
(337,-70,o),
(334,-70,c),
(334,-66,o),
(336,-64,o),
(338,-61,cs),
(340,-59,o),
(348,-48,o),
(349,-46,c),
(349,-46,o),
(349,-44,o),
(349,-44,c),
(349,-41,o),
(349,-41,o),
(346,-41,cs),
(340,-41,o),
(336,-46,o),
(333,-50,cs),
(332,-51,o),
(330,-55,o),
(330,-56,cs),
(330,-57,o),
(323,-66,o),
(322,-68,cs),
(318,-76,o),
(315,-85,o),
(313,-93,c),
(313,-93,o),
(313,-94,o),
(313,-94,c)
);
},
{
closed = 1;
nodes = (
(325,-85,o),
(334,-81,o),
(342,-81,cs),
(349,-81,o),
(356,-87,o),
(356,-94,cs),
(356,-96,o),
(356,-100,o),
(355,-102,c),
(354,-102,o),
(349,-107,o),
(348,-108,cs),
(346,-110,o),
(343,-110,o),
(341,-110,cs),
(340,-110,o),
(338,-110,o),
(338,-110,c),
(336,-109,o),
(330,-105,o),
(329,-104,c),
(328,-104,o),
(326,-98,o),
(325,-96,c),
(325,-96,o),
(325,-95,o),
(325,-94,c)
);
}
);
userData = {
com.typemytype.robofont.mark = (
0.939,
1,
0.6,
1
);
};
width = 686;
},
{
anchors = (
{
name = _measure;
}
);
color = 0;
layerId = "7B371D60-13E0-44E7-A998-8DAF0ECD409E";
shapes = (
{
closed = 1;
nodes = (
(51,-162,l),
(51,-163,o),
(53,-170,o),
(54,-173,c),
(54,-174,o),
(55,-174,o),
(56,-174,cs),
(61,-174,o),
(62,-169,o),
(62,-166,cs),
(62,-164,o),
(62,-153,o),
(62,-150,cs),
(62,-150,o),
(63,-149,o),
(63,-149,c),
(65,-148,o),
(70,-147,o),
(71,-147,cs),
(79,-147,o),
(112,-147,o),
(120,-147,cs),
(121,-147,o),
(129,-146,o),
(131,-146,cs),
(131,-146,o),
(131,-146,o),
(131,-146,c),
(226,-146,o),
(321,-147,o),
(415,-147,cs),
(435,-147,o),
(525,-147,o),
(543,-147,cs),
(547,-147,o),
(564,-146,o),
(568,-146,cs),
(568,-146,o),
(570,-146,o),
(572,-146,cs),
(572,-146,o),
(576,-146,o),
(576,-146,c),
(579,-146,o),
(609,-147,o),
(612,-147,cs),
(614,-147,o),
(620,-148,o),
(620,-151,cs),
(620,-169,l),
(620,-170,o),
(624,-174,o),
(625,-174,cs),
(628,-174,o),
(630,-170,o),
(630,-168,cs),
(630,-166,o),
(630,-155,o),
(630,-153,cs),
(630,-149,o),
(630,-139,o),
(630,-138,cs),
(630,-134,o),
(628,-115,o),
(628,-111,cs),
(628,-109,o),
(627,-107,o),
(624,-107,cs),
(620,-107,o),
(619,-110,o),
(619,-114,cs),
(619,-116,o),
(619,-130,o),
(619,-133,c),
(618,-134,o),
(616,-135,o),
(615,-135,cs),
(610,-135,o),
(589,-136,o),
(584,-137,c),
(583,-137,o),
(579,-138,o),
(578,-138,cs),
(578,-138,o),
(578,-138,o),
(578,-138,c),
(575,-138,o),
(574,-137,o),
(571,-137,cs),
(568,-137,o),
(566,-138,o),
(564,-138,cs),
(564,-138,o),
(564,-138,o),
(564,-138,c),
(564,-138,o),
(561,-137,o),
(561,-137,c),
(560,-137,o),
(554,-137,o),
(553,-137,cs),
(552,-137,o),
(541,-135,o),
(539,-135,cs),
(537,-135,o),
(518,-137,o),
(516,-137,cs),
(516,-137,o),
(506,-137,o),
(502,-137,cs),
(498,-137,o),
(485,-137,o),
(484,-137,cs),
(473,-137,o),
(422,-136,o),
(411,-136,cs),
(406,-136,l),
(65,-137,l),
(65,-137,o),
(63,-136,o),
(63,-135,cs),
(63,-135,o),
(62,-131,o),
(62,-130,cs),
(61,-124,o),
(64,-111,o),
(54,-111,cs),
(54,-111,o),
(54,-111,o),
(54,-111,c),
(51,-116,l)
);
},
{
closed = 1;
nodes = (
(313,-108,o),
(325,-123,o),
(339,-123,cs),
(349,-123,o),
(358,-115,o),
(364,-108,c),
(365,-108,o),
(367,-105,o),
(367,-104,cs),
(368,-100,o),
(368,-96,o),
(368,-92,cs),
(368,-83,o),
(360,-71,o),
(349,-69,cs),
(347,-69,o),
(337,-70,o),
(334,-70,c),
(334,-66,o),
(336,-64,o),
(338,-61,cs),
(340,-59,o),
(348,-48,o),
(349,-46,c),
(349,-46,o),
(349,-44,o),
(349,-44,c),
(349,-41,o),
(349,-41,o),
(346,-41,cs),
(340,-41,o),
(336,-46,o),
(333,-50,cs),
(332,-51,o),
(330,-55,o),
(330,-56,cs),
(330,-57,o),
(323,-66,o),
(322,-68,cs),
(318,-76,o),
(315,-85,o),
(313,-93,c),
(313,-93,o),
(313,-94,o),
(313,-94,c)
);
},
{
closed = 1;
nodes = (
(325,-85,o),
(334,-81,o),
(342,-81,cs),
(349,-81,o),
(356,-87,o),
(356,-94,cs),
(356,-96,o),
(356,-100,o),
(355,-102,c),
(354,-102,o),
(349,-107,o),
(348,-108,cs),
(346,-110,o),
(343,-110,o),
(341,-110,cs),
(340,-110,o),
(338,-110,o),
(338,-110,c),
(336,-109,o),
(330,-105,o),
(329,-104,c),
(328,-104,o),
(326,-98,o),
(325,-96,c),
(325,-96,o),
(325,-95,o),
(325,-94,c)
);
}
);
userData = {
com.typemytype.robofont.mark = (
0.939,
1,
0.6,
1
);
};
width = 686;
}
);
},
{
glyphname = H;
lastChange = "2023-11-14 19:39:58 +0000";
layers = (
{
anchors = (
{
name = bottom;
pos = (323,0);
},
{
name = center;
pos = (323,330);
},
{
name = top;
pos = (323,660);
},
{
name = topleft;
pos = (20,660);
}
);
layerId = master01;
shapes = (
{
closed = 1;
nodes = (
(461,2,o),
(488,0,o),
(494,0,cs),
(495,0,o),
(515,0,o),
(521,0,cs),
(525,0,o),
(545,0,o),
(549,0,cs),
(550,0,o),
(557,2,o),
(558,2,cs),
(560,2,o),
(564,2,o),
(564,6,cs),
(564,247,l),
(566,286,l),
(566,504,l),
(566,510,l),
(566,612,l),
(566,613,o),
(568,621,o),
(568,622,cs),
(568,622,o),
(568,623,o),
(568,623,c),
(568,623,o),
(568,624,o),
(568,624,c),
(568,626,o),
(566,643,o),
(566,645,cs),
(566,649,o),
(567,659,o),
(561,659,cs),
(453,659,ls),
(450,659,o),
(446,656,o),
(445,653,c),
(446,645,o),
(446,603,o),
(446,594,cs),
(446,590,o),
(446,521,o),
(446,496,cs),
(446,481,o),
(446,412,o),
(446,397,c),
(447,394,o),
(441,393,o),
(440,393,cs),
(438,393,o),
(432,392,o),
(430,392,cs),
(426,392,o),
(407,392,o),
(403,392,cs),
(336,392,o),
(271,394,o),
(205,393,c),
(202,392,o),
(199,395,o),
(200,398,c),
(200,411,o),
(200,467,o),
(200,479,cs),
(200,500,o),
(200,556,o),
(200,559,cs),
(200,564,o),
(201,606,o),
(201,612,cs),
(201,612,o),
(201,620,o),
(201,622,cs),
(201,634,o),
(199,644,o),
(200,656,c),
(198,658,o),
(196,660,o),
(193,660,cs),
(102,660,ls),
(99,660,o),
(97,659,o),
(94,659,cs),
(94,659,o),
(93,659,o),
(93,659,c),
(92,659,o),
(88,660,o),
(88,660,c),
(87,660,o),
(83,660,o),
(82,659,c),
(82,658,o),
(80,657,o),
(80,656,c),
(80,512,l),
(79,479,o),
(78,326,o),
(78,293,cs),
(78,281,o),
(80,184,o),
(80,172,cs),
(80,148,o),
(80,39,o),
(80,15,cs),
(80,14,o),
(81,10,o),
(81,10,c),
(81,8,o),
(80,6,o),
(82,4,c),
(83,4,o),
(88,3,o),
(89,3,cs),
(97,3,o),
(135,2,o),
(143,2,cs),
(143,2,o),
(144,2,o),
(144,2,c),
(144,2,o),
(144,2,o),
(144,2,c),
(156,2,o),
(185,3,o),
(186,3,cs),
(190,3,o),
(196,3,o),
(197,8,cs),
(198,11,o),
(198,22,o),
(198,25,cs),
(198,25,o),
(198,37,o),
(198,42,cs),
(198,71,o),
(197,99,o),
(197,128,cs),
(197,134,o),
(197,149,o),
(197,150,cs),
(197,154,o),
(198,187,o),
(198,191,cs),
(198,197,o),
(198,253,o),
(198,259,cs),
(198,261,o),
(200,276,o),
(200,278,cs),
(200,279,o),
(200,284,o),
(200,285,cs),
(200,285,o),
(200,286,o),
(201,286,cs),
(202,287,o),
(208,288,o),
(209,288,c),
(445,288,l),
(445,288,o),
(446,287,o),
(446,286,cs),
(446,286,o),
(448,283,o),
(448,282,cs),
(448,271,o),
(448,216,o),
(448,204,cs),
(448,202,o),
(449,189,o),
(449,187,cs),
(449,182,o),
(448,149,o),
(448,145,cs),
(448,145,o),
(448,141,o),
(448,141,c),
(448,139,o),
(448,137,o),
(448,137,c),
(448,135,o),
(449,121,o),
(449,119,cs),
(449,113,o),
(449,64,o),
(449,58,cs),
(449,50,o),
(450,14,o),
(450,6,c),
(452,4,o),
(454,2,o),
(456,2,cs)
);
}
);
width = 646;
},
{
anchors = (
{
name = bottom;
pos = (323,0);
},
{
name = center;
pos = (323,330);
},
{
name = top;
pos = (323,660);
},
{
name = topleft;
pos = (20,660);
}
);
hints = (
{
name = _corner.all;
origin = (0,0);
type = Corner;
},
{
name = _corner.all;
origin = (0,9);
type = Corner;
},
{
name = _corner.all;
origin = (0,10);
type = Corner;
},
{
name = _corner.all;
origin = (0,11);
type = Corner;
},
{
name = _corner.all;
origin = (0,4);
type = Corner;
},
{
name = _corner.all;
origin = (0,5);
type = Corner;
},
{
name = _corner.all;
origin = (0,6);
type = Corner;
},
{
name = _corner.all;
origin = (0,3);
type = Corner;
}
);
layerId = "7B371D60-13E0-44E7-A998-8DAF0ECD409E";
shapes = (
{
closed = 1;
nodes = (
(198,0,l),
(198,287,l),
(448,287,l),
(448,0,l),
(568,0,l),
(568,660,l),
(448,660,l),
(448,393,l),
(198,393,l),
(198,660,l),
(78,660,l),
(78,0,l)
);
}
);
width = 646;
}
);
unicode = 72;
},
{
glyphname = H.ss02;
lastChange = "2023-06-25 14:23:23 +0000";
layers = (
{
anchors = (
{
name = _measure;
}
);
layerId = master01;
shapes = (
{
closed = 1;
nodes = (
(82,-109,o),
(80,-114,o),
(80,-116,cs),
(80,-156,ls),
(80,-159,o),
(82,-163,o),
(85,-163,cs),
(85,-163,o),
(86,-162,o),
(86,-162,c),
(90,-156,o),
(90,-150,o),
(89,-144,c),
(89,-143,o),
(91,-141,o),
(92,-141,cs),
(92,-141,o),
(93,-141,o),
(93,-141,c),
(96,-141,o),
(109,-140,o),
(112,-140,cs),
(124,-140,o),
(179,-141,o),
(191,-141,cs),
(215,-141,o),
(327,-141,o),
(351,-141,cs),
(352,-141,o),
(357,-143,o),
(359,-143,cs),
(359,-143,o),
(359,-143,o),
(359,-143,c),
(359,-143,o),
(360,-143,o),
(360,-143,c),
(363,-143,o),
(388,-141,o),
(391,-141,cs),
(393,-141,o),
(430,-141,o),
(444,-141,cs),
(458,-141,o),
(496,-141,o),
(499,-141,cs),
(507,-141,o),
(546,-143,o),
(554,-143,c),
(558,-147,o),
(553,-156,o),
(560,-160,c),
(560,-160,o),
(560,-160,o),
(560,-160,c),
(560,-160,o),
(561,-160,o),
(561,-160,c),
(562,-160,o),
(564,-158,o),
(564,-158,c),
(564,-157,o),
(565,-151,o),
(565,-150,cs),
(565,-149,o),
(565,-137,o),
(565,-133,cs),
(565,-129,o),
(565,-118,o),
(565,-117,cs),
(565,-116,o),
(564,-111,o),
(564,-110,cs),
(564,-110,o),
(562,-108,o),
(561,-108,cs),
(561,-108,o),
(560,-108,o),
(560,-108,c),
(560,-108,o),
(560,-108,o),
(560,-108,c),
(553,-112,o),
(559,-132,o),
(552,-132,cs),
(231,-132,l),
(226,-131,o),
(202,-131,o),
(197,-131,cs),
(193,-131,o),
(164,-132,o),
(160,-132,cs),
(159,-132,o),
(144,-132,o),
(140,-132,cs),
(134,-132,o),
(119,-132,o),
(119,-132,c),
(115,-132,o),
(96,-131,o),
(92,-131,c),
(86,-128,o),
(90,-109,o),
(84,-109,cs)
);
},
{
closed = 1;
nodes = (
(299,-113,o),
(308,-117,o),
(314,-118,cs),
(316,-119,o),
(322,-120,o),
(324,-120,cs),
(329,-120,o),
(341,-112,o),
(343,-106,c),
(343,-105,o),
(345,-99,o),
(345,-98,cs),
(345,-98,o),
(345,-94,o),
(345,-93,cs),
(345,-91,o),
(346,-85,o),
(344,-83,c),
(343,-83,o),
(338,-77,o),
(336,-75,c),
(335,-75,o),
(332,-73,o),
(332,-73,c),
(316,-73,l),
(316,-71,o),
(314,-67,o),
(314,-66,cs),
(314,-66,o),
(317,-64,o),
(318,-63,cs),
(320,-62,o),
(326,-60,o),
(326,-60,c),
(328,-60,o),
(336,-60,o),
(338,-60,cs),
(338,-60,o),
(340,-57,o),
(340,-56,cs),
(340,-56,o),
(340,-56,o),
(340,-56,c),
(340,-55,o),
(340,-54,o),
(338,-54,c),
(332,-51,o),
(324,-53,o),
(317,-52,c),
(316,-52,o),
(312,-51,o),
(312,-51,c),
(312,-51,o),
(310,-51,o),
(310,-51,c),
(309,-51,o),
(309,-51,o),
(309,-51,c),
(308,-51,o),
(304,-53,o),
(303,-54,c),
(304,-64,o),
(303,-74,o),
(302,-83,c),
(303,-86,l),
(303,-86,o),
(306,-86,o),
(307,-86,cs),
(312,-86,o),
(317,-85,o),
(322,-85,cs),
(330,-85,o),
(333,-89,o),
(333,-97,cs),
(333,-104,o),
(327,-108,o),
(321,-108,cs),
(318,-108,o),
(316,-108,o),
(313,-106,c),
(312,-106,o),
(307,-102,o),
(306,-101,c),
(306,-101,o),
(305,-101,o),
(305,-101,c),
(302,-101,o),
(299,-102,o),
(299,-106,cs)
);
}
);
userData = {
com.typemytype.robofont.mark = (
0.939,
1,
0.6,
1
);
};
width = 646;
},
{
anchors = (
{
name = _measure;
}
);
color = 0;
layerId = "7B371D60-13E0-44E7-A998-8DAF0ECD409E";
shapes = (
{
closed = 1;
nodes = (
(82,-109,o),
(80,-114,o),
(80,-116,cs),
(80,-156,ls),
(80,-159,o),
(82,-163,o),
(85,-163,cs),
(85,-163,o),
(86,-162,o),
(86,-162,c),
(90,-156,o),
(90,-150,o),
(89,-144,c),
(89,-143,o),
(91,-141,o),
(92,-141,cs),
(92,-141,o),
(93,-141,o),
(93,-141,c),
(96,-141,o),
(109,-140,o),
(112,-140,cs),
(124,-140,o),
(179,-141,o),
(191,-141,cs),
(215,-141,o),
(327,-141,o),
(351,-141,cs),
(352,-141,o),
(357,-143,o),
(359,-143,cs),
(359,-143,o),
(359,-143,o),
(359,-143,c),
(359,-143,o),
(360,-143,o),
(360,-143,c),
(363,-143,o),
(388,-141,o),
(391,-141,cs),
(393,-141,o),
(430,-141,o),
(444,-141,cs),
(458,-141,o),
(496,-141,o),
(499,-141,cs),
(507,-141,o),
(546,-143,o),
(554,-143,c),
(558,-147,o),
(553,-156,o),
(560,-160,c),
(560,-160,o),
(560,-160,o),
(560,-160,c),
(560,-160,o),
(561,-160,o),
(561,-160,c),
(562,-160,o),
(564,-158,o),
(564,-158,c),
(564,-157,o),
(565,-151,o),
(565,-150,cs),
(565,-149,o),
(565,-137,o),
(565,-133,cs),
(565,-129,o),
(565,-118,o),
(565,-117,cs),
(565,-116,o),
(564,-111,o),
(564,-110,cs),
(564,-110,o),
(562,-108,o),
(561,-108,cs),
(561,-108,o),
(560,-108,o),
(560,-108,c),
(560,-108,o),
(560,-108,o),
(560,-108,c),
(553,-112,o),
(559,-132,o),
(552,-132,cs),
(231,-132,l),
(226,-131,o),
(202,-131,o),
(197,-131,cs),
(193,-131,o),
(164,-132,o),
(160,-132,cs),
(159,-132,o),
(144,-132,o),
(140,-132,cs),
(134,-132,o),
(119,-132,o),
(119,-132,c),
(115,-132,o),
(96,-131,o),
(92,-131,c),
(86,-128,o),
(90,-109,o),
(84,-109,cs)
);
},
{
closed = 1;
nodes = (
(299,-113,o),
(308,-117,o),
(314,-118,cs),
(316,-119,o),
(322,-120,o),
(324,-120,cs),
(329,-120,o),
(341,-112,o),
(343,-106,c),
(343,-105,o),
(345,-99,o),
(345,-98,cs),
(345,-98,o),
(345,-94,o),
(345,-93,cs),
(345,-91,o),
(346,-85,o),
(344,-83,c),
(343,-83,o),
(338,-77,o),
(336,-75,c),
(335,-75,o),
(332,-73,o),
(332,-73,c),
(316,-73,l),
(316,-71,o),
(314,-67,o),
(314,-66,cs),
(314,-66,o),
(317,-64,o),
(318,-63,cs),
(320,-62,o),
(326,-60,o),
(326,-60,c),
(328,-60,o),
(336,-60,o),
(338,-60,cs),
(338,-60,o),
(340,-57,o),
(340,-56,cs),
(340,-56,o),
(340,-56,o),
(340,-56,c),
(340,-55,o),
(340,-54,o),
(338,-54,c),
(332,-51,o),
(324,-53,o),
(317,-52,c),
(316,-52,o),
(312,-51,o),
(312,-51,c),
(312,-51,o),
(310,-51,o),
(310,-51,c),
(309,-51,o),
(309,-51,o),
(309,-51,c),
(308,-51,o),
(304,-53,o),
(303,-54,c),
(304,-64,o),
(303,-74,o),
(302,-83,c),
(303,-86,l),
(303,-86,o),
(306,-86,o),
(307,-86,cs),
(312,-86,o),
(317,-85,o),
(322,-85,cs),
(330,-85,o),
(333,-89,o),
(333,-97,cs),
(333,-104,o),
(327,-108,o),
(321,-108,cs),
(318,-108,o),
(316,-108,o),
(313,-106,c),
(312,-106,o),
(307,-102,o),
(306,-101,c),
(306,-101,o),
(305,-101,o),
(305,-101,c),
(302,-101,o),
(299,-102,o),
(299,-106,cs)
);
}
);
userData = {
com.typemytype.robofont.mark = (
0.939,
1,
0.6,
1
);
};
width = 646;
}
);
},
{
glyphname = I;
lastChange = "2023-11-14 19:40:04 +0000";
layers = (
{
anchors = (
{
name = bottom;
pos = (138,0);
},
{
name = measure;
},
{
name = ogonek;
pos = (248,10);
},
{
name = top;
pos = (138,660);
},
{
name = topleft;
pos = (20,660);
}
);
layerId = master01;
shapes = (
{
closed = 1;
nodes = (
(78,16,l),
(78,15,o),
(79,8,o),
(79,6,cs),
(79,6,o),
(81,2,o),
(82,2,c),
(93,0,l),
(186,0,l),
(186,0,o),
(188,1,o),
(189,2,c),
(189,2,o),
(192,5,o),
(193,6,c),
(193,10,o),
(194,27,o),
(194,31,cs),
(194,31,o),
(194,33,o),
(194,35,cs),
(194,35,o),
(194,38,o),
(194,38,c),
(194,43,o),
(193,88,o),
(193,93,cs),
(193,102,o),
(194,172,o),
(194,181,cs),
(194,200,o),
(194,286,o),
(194,305,c),
(195,307,o),
(195,318,o),
(195,320,cs),
(195,321,o),
(194,329,o),
(194,330,cs),
(194,333,o),
(195,359,o),
(195,362,cs),
(195,377,o),
(195,497,o),
(195,512,cs),
(195,516,o),
(197,548,o),
(197,552,cs),
(197,554,o),
(197,576,o),
(197,584,cs),
(197,592,o),
(197,614,o),
(197,616,cs),
(197,621,o),
(195,645,o),
(195,651,cs),
(195,655,o),
(191,658,o),
(187,658,cs),
(83,658,ls),
(81,658,o),
(77,653,o),
(77,651,cs),
(77,647,o),
(77,628,o),
(77,624,cs),
(77,618,o),
(77,599,o),
(77,598,cs),
(77,596,o),
(77,585,o),
(78,583,c),
(78,405,ls),
(78,401,o),
(77,381,o),
(77,377,cs),
(77,376,o),
(77,369,o),
(77,366,cs),
(77,363,o),
(77,356,o),
(77,355,cs),
(77,349,o),
(78,319,o),
(78,313,c)
);
}
);
width = 276;
},
{
anchors = (
{
name = bottom;
pos = (138,0);
},
{
name = measure;
},
{
name = ogonek;
pos = (248,10);
},
{
name = top;
pos = (138,660);
},
{
name = topleft;
pos = (20,660);
}
);
hints = (
{
name = _corner.all;
origin = (0,0);
type = Corner;
},
{
name = _corner.all;
origin = (0,1);
type = Corner;
},
{
name = _corner.all;
origin = (0,2);
type = Corner;
},
{
name = _corner.all;
origin = (0,3);
type = Corner;
}
);
layerId = "7B371D60-13E0-44E7-A998-8DAF0ECD409E";
shapes = (
{
closed = 1;
nodes = (
(198,0,l),
(198,660,l),
(78,660,l),
(78,0,l)
);
}
);
width = 276;
}
);
unicode = 73;
},
{
glyphname = I.ss02;
lastChange = "2023-06-25 14:23:23 +0000";
layers = (
{
anchors = (
{
name = _measure;
}
);
layerId = master01;
shapes = (
{
closed = 1;
nodes = (
(183,-148,o),
(185,-160,o),
(185,-163,cs),
(185,-164,o),
(186,-166,o),
(186,-167,cs),
(186,-168,o),
(187,-168,o),
(187,-168,c),
(187,-168,o),
(189,-168,o),
(190,-168,cs),
(191,-168,o),
(193,-168,o),
(193,-168,c),
(193,-168,o),
(194,-166,o),
(194,-166,c),
(194,-164,o),
(195,-156,o),
(195,-154,cs),
(195,-153,o),
(195,-145,o),
(195,-142,cs),
(195,-139,o),
(195,-131,o),
(195,-131,c),
(195,-128,o),
(194,-116,o),
(194,-113,c),
(193,-112,o),
(191,-110,o),
(190,-109,c),
(190,-109,o),
(189,-109,o),
(189,-109,c),
(187,-109,o),
(185,-114,o),
(185,-116,cs),
(185,-116,o),
(185,-125,o),
(185,-125,c),
(185,-126,o),
(183,-130,o),
(183,-131,cs),
(183,-131,o),
(182,-132,o),
(182,-132,c),
(174,-132,o),
(138,-132,o),
(131,-132,cs),
(129,-132,o),
(118,-133,o),
(117,-133,cs),
(117,-133,o),
(116,-133,o),
(116,-133,c),
(116,-133,o),
(116,-133,o),
(116,-133,c),
(114,-133,o),
(104,-132,o),
(102,-132,cs),
(101,-132,o),
(91,-132,o),
(90,-132,cs),
(89,-132,o),
(85,-131,o),
(85,-129,cs),
(85,-124,o),
(85,-114,o),
(78,-114,cs),
(74,-114,o),
(74,-116,o),
(74,-120,cs),
(74,-120,o),
(74,-121,o),
(74,-121,c),
(74,-127,o),
(75,-154,o),
(75,-160,c),
(76,-162,o),
(77,-164,o),
(79,-164,cs),
(79,-164,o),
(79,-164,o),
(79,-164,c),
(81,-164,o),
(84,-160,o),
(84,-160,c),
(84,-143,l),
(174,-143,ls),
(176,-143,o),
(181,-143,o),
(183,-145,c)
);
},
{
closed = 1;
nodes = (
(129,-71,o),
(131,-71,o),
(131,-73,cs),
(131,-113,ls),
(131,-116,o),
(132,-118,o),
(135,-118,cs),
(139,-118,o),
(140,-110,o),
(140,-108,cs),
(141,-105,o),
(141,-95,o),
(141,-93,cs),
(141,-91,o),
(141,-73,o),
(141,-71,cs),
(141,-71,o),
(143,-64,o),
(143,-63,cs),
(143,-63,o),
(143,-60,o),
(143,-58,cs),
(143,-58,o),
(143,-54,o),
(143,-54,c),
(142,-53,o),
(139,-51,o),
(139,-51,c),
(136,-50,o),
(114,-71,o),
(114,-73,cs),
(114,-73,o),
(116,-76,o),
(117,-77,c),
(117,-77,o),
(118,-77,o),
(118,-77,c),
(123,-77,o),
(125,-71,o),
(129,-71,c)
);
}
);
userData = {
com.typemytype.robofont.mark = (
0.939,
1,
0.6,
1
);
};
width = 276;
},
{
anchors = (
{
name = _measure;
}
);
color = 0;
layerId = "7B371D60-13E0-44E7-A998-8DAF0ECD409E";
shapes = (
{
closed = 1;
nodes = (
(183,-148,o),
(185,-160,o),
(185,-163,cs),
(185,-164,o),
(186,-166,o),
(186,-167,cs),
(186,-168,o),
(187,-168,o),
(187,-168,c),
(187,-168,o),
(189,-168,o),
(190,-168,cs),
(191,-168,o),
(193,-168,o),
(193,-168,c),
(193,-168,o),
(194,-166,o),
(194,-166,c),
(194,-164,o),
(195,-156,o),
(195,-154,cs),
(195,-153,o),
(195,-145,o),
(195,-142,cs),
(195,-139,o),
(195,-131,o),
(195,-131,c),
(195,-128,o),
(194,-116,o),
(194,-113,c),
(193,-112,o),
(191,-110,o),
(190,-109,c),
(190,-109,o),
(189,-109,o),
(189,-109,c),
(187,-109,o),
(185,-114,o),
(185,-116,cs),
(185,-116,o),
(185,-125,o),
(185,-125,c),
(185,-126,o),
(183,-130,o),
(183,-131,cs),
(183,-131,o),
(182,-132,o),
(182,-132,c),
(174,-132,o),
(138,-132,o),
(131,-132,cs),
(129,-132,o),
(118,-133,o),
(117,-133,cs),
(117,-133,o),
(116,-133,o),
(116,-133,c),
(116,-133,o),
(116,-133,o),
(116,-133,c),
(114,-133,o),
(104,-132,o),
(102,-132,cs),
(101,-132,o),
(91,-132,o),
(90,-132,cs),
(89,-132,o),
(85,-131,o),
(85,-129,cs),
(85,-124,o),
(85,-114,o),
(78,-114,cs),
(74,-114,o),
(74,-116,o),
(74,-120,cs),
(74,-120,o),
(74,-121,o),
(74,-121,c),
(74,-127,o),
(75,-154,o),
(75,-160,c),
(76,-162,o),
(77,-164,o),
(79,-164,cs),
(79,-164,o),
(79,-164,o),
(79,-164,c),
(81,-164,o),
(84,-160,o),
(84,-160,c),
(84,-143,l),
(174,-143,ls),
(176,-143,o),
(181,-143,o),
(183,-145,c)
);
},
{
closed = 1;
nodes = (
(129,-71,o),
(131,-71,o),
(131,-73,cs),
(131,-113,ls),
(131,-116,o),
(132,-118,o),
(135,-118,cs),
(139,-118,o),
(140,-110,o),
(140,-108,cs),
(141,-105,o),
(141,-95,o),
(141,-93,cs),
(141,-91,o),
(141,-73,o),
(141,-71,cs),
(141,-71,o),
(143,-64,o),
(143,-63,cs),
(143,-63,o),
(143,-60,o),
(143,-58,cs),
(143,-58,o),
(143,-54,o),
(143,-54,c),
(142,-53,o),
(139,-51,o),
(139,-51,c),
(136,-50,o),
(114,-71,o),
(114,-73,cs),
(114,-73,o),
(116,-76,o),
(117,-77,c),
(117,-77,o),
(118,-77,o),
(118,-77,c),
(123,-77,o),
(125,-71,o),
(129,-71,c)
);
}
);
userData = {
com.typemytype.robofont.mark = (
0.939,
1,
0.6,
1
);
};
width = 276;
}
);
},
{
glyphname = J;
kernLeft = J;
lastChange = "2023-06-25 14:23:23 +0000";
layers = (
{
anchors = (
{
name = bottom;
pos = (209,0);
},
{
name = measure;
},
{
name = top;
pos = (209,660);
}
);
layerId = master01;
shapes = (
{
closed = 1;
nodes = (
(20,100,o),
(23,89,o),
(27,77,cs),
(28,76,o),
(32,66,o),
(32,65,cs),
(32,64,o),
(34,60,o),
(34,60,c),
(35,58,o),
(37,52,o),
(38,52,c),
(52,30,o),
(66,16,o),
(88,3,cs),
(97,-2,o),
(105,-5,o),
(115,-8,c),
(116,-8,o),
(130,-13,o),
(131,-13,cs),
(132,-13,o),
(140,-13,o),
(140,-13,c),
(141,-13,o),
(146,-15,o),
(147,-15,cs),
(150,-15,o),
(156,-16,o),
(157,-16,cs),
(158,-16,o),
(170,-15,o),
(171,-15,cs),
(172,-15,o),
(176,-15,o),
(177,-15,cs),
(177,-15,o),
(180,-13,o),
(181,-13,cs),
(183,-13,o),
(199,-12,o),
(201,-12,cs),
(215,-10,o),
(226,-8,o),
(239,-4,cs),
(245,-2,o),
(250,3,o),
(256,6,c),
(257,6,o),
(260,7,o),
(260,7,c),
(261,7,o),
(265,10,o),
(266,11,cs),
(267,12,o),
(276,17,o),
(277,18,cs),
(289,28,o),
(301,40,o),
(310,53,c),
(312,54,o),
(315,60,o),
(316,61,cs),
(331,89,o),
(337,117,o),
(339,149,cs),
(339,151,o),
(340,166,o),
(340,168,cs),
(340,170,o),
(339,184,o),
(339,187,cs),
(339,489,ls),
(339,494,o),
(340,520,o),
(340,525,cs),
(340,531,o),
(340,575,o),
(340,581,cs),
(340,584,o),
(341,608,o),
(341,612,cs),
(341,612,o),
(341,626,o),
(341,631,cs),
(341,633,o),
(341,647,o),
(341,649,cs),
(341,652,o),
(340,658,o),
(336,658,cs),
(275,658,l),
(274,658,o),
(267,659,o),
(266,659,cs),
(264,659,o),
(251,658,o),
(250,658,cs),
(242,657,o),
(224,661,o),
(224,648,cs),
(224,647,o),
(224,644,o),
(224,644,c),
(224,641,o),
(225,622,o),
(225,620,cs),
(225,614,o),
(225,566,o),
(225,560,cs),
(225,557,o),
(226,542,o),
(227,539,c),
(227,162,ls),
(227,158,o),
(226,141,o),
(225,137,cs),
(225,135,o),
(223,126,o),
(223,123,c),
(222,121,o),
(220,114,o),
(220,114,c),
(220,113,o),
(216,109,o),
(216,108,cs),
(216,108,o),
(215,105,o),
(215,104,cs),
(211,100,o),
(208,97,o),
(204,95,cs),
(200,92,o),
(188,86,o),
(188,85,c),
(184,83,o),
(177,84,o),
(173,84,cs),
(170,84,o),
(163,84,o),
(163,84,c),
(163,84,o),
(161,85,o),
(159,85,c),
(147,90,o),
(137,96,o),
(130,107,cs),
(126,113,o),
(123,119,o),
(120,126,cs),
(119,129,o),
(119,137,o),
(116,139,c),
(115,141,o),
(113,141,o),
(111,141,cs),
(111,141,o),
(109,141,o),
(109,141,c),
(73,133,l),
(70,130,o),
(68,132,o),
(65,131,cs),
(63,131,o),
(45,128,o),
(43,127,cs),
(39,126,o),
(28,124,o),
(24,122,c),
(24,121,o),
(21,118,o),
(20,118,c),
(20,117,o),
(20,113,o),
(20,112,c)
);
}
);
width = 418;
},
{
anchors = (
{
name = bottom;
pos = (209,0);
},
{
name = measure;
},
{
name = top;
pos = (209,660);
}
);
color = 0;
layerId = "7B371D60-13E0-44E7-A998-8DAF0ECD409E";
shapes = (
{
closed = 1;
nodes = (
(20,100,o),
(23,89,o),
(27,77,cs),
(28,76,o),
(32,66,o),
(32,65,cs),
(32,64,o),
(34,60,o),
(34,60,c),
(35,58,o),
(37,52,o),
(38,52,c),
(52,30,o),
(66,16,o),
(88,3,cs),
(97,-2,o),
(105,-5,o),
(115,-8,c),
(116,-8,o),
(130,-13,o),
(131,-13,cs),
(132,-13,o),
(140,-13,o),
(140,-13,c),
(141,-13,o),
(146,-15,o),
(147,-15,cs),
(150,-15,o),
(156,-16,o),
(157,-16,cs),
(158,-16,o),
(170,-15,o),
(171,-15,cs),
(172,-15,o),
(176,-15,o),
(177,-15,cs),
(177,-15,o),
(180,-13,o),
(181,-13,cs),
(183,-13,o),
(199,-12,o),
(201,-12,cs),
(215,-10,o),
(226,-8,o),
(239,-4,cs),
(245,-2,o),
(250,3,o),
(256,6,c),
(257,6,o),
(260,7,o),
(260,7,c),
(261,7,o),
(265,10,o),
(266,11,cs),
(267,12,o),
(276,17,o),
(277,18,cs),
(289,28,o),
(301,40,o),
(310,53,c),
(312,54,o),
(315,60,o),
(316,61,cs),
(331,89,o),
(337,117,o),
(339,149,cs),
(339,151,o),
(340,166,o),
(340,168,cs),
(340,170,o),
(339,184,o),
(339,187,cs),
(339,489,ls),
(339,494,o),
(340,520,o),
(340,525,cs),
(340,531,o),
(340,575,o),
(340,581,cs),
(340,584,o),
(341,608,o),
(341,612,cs),
(341,612,o),
(341,626,o),
(341,631,cs),
(341,633,o),
(341,647,o),
(341,649,cs),
(341,652,o),
(340,658,o),
(336,658,cs),
(275,658,l),
(274,658,o),
(267,659,o),
(266,659,cs),
(264,659,o),
(251,658,o),
(250,658,cs),
(242,657,o),
(224,661,o),
(224,648,cs),
(224,647,o),
(224,644,o),
(224,644,c),
(224,641,o),
(225,622,o),
(225,620,cs),
(225,614,o),
(225,566,o),
(225,560,cs),
(225,557,o),
(226,542,o),
(227,539,c),
(227,162,ls),
(227,158,o),
(226,141,o),
(225,137,cs),
(225,135,o),
(223,126,o),
(223,123,c),
(222,121,o),
(220,114,o),
(220,114,c),
(220,113,o),
(216,109,o),
(216,108,cs),
(216,108,o),
(215,105,o),
(215,104,cs),
(211,100,o),
(208,97,o),
(204,95,cs),
(200,92,o),
(188,86,o),
(188,85,c),
(184,83,o),
(177,84,o),
(173,84,cs),
(170,84,o),
(163,84,o),
(163,84,c),
(163,84,o),
(161,85,o),
(159,85,c),
(147,90,o),
(137,96,o),
(130,107,cs),
(126,113,o),
(123,119,o),
(120,126,cs),
(119,129,o),
(119,137,o),
(116,139,c),
(115,141,o),
(113,141,o),
(111,141,cs),
(111,141,o),
(109,141,o),
(109,141,c),
(73,133,l),
(70,130,o),
(68,132,o),
(65,131,cs),
(63,131,o),
(45,128,o),
(43,127,cs),
(39,126,o),
(28,124,o),
(24,122,c),
(24,121,o),
(21,118,o),
(20,118,c),
(20,117,o),
(20,113,o),
(20,112,c)
);
}
);
width = 418;
}
);
unicode = 74;
},
{
glyphname = J.ss02;
kernLeft = J;
lastChange = "2023-06-25 14:23:23 +0000";
layers = (
{
anchors = (
{
name = _measure;
}
);
layerId = master01;
shapes = (
{
closed = 1;
nodes = (
(332,-146,o),
(322,-170,o),
(335,-170,cs),
(335,-170,o),
(336,-170,o),
(336,-170,c),
(337,-170,o),
(337,-168,o),
(337,-167,cs),
(337,-164,o),
(339,-150,o),
(339,-147,cs),
(339,-146,o),
(339,-136,o),
(339,-132,cs),
(339,-130,o),
(339,-119,o),
(339,-117,cs),
(338,-114,o),
(336,-110,o),
(333,-110,cs),
(332,-110,o),
(331,-110,o),
(331,-110,c),
(330,-111,o),
(328,-114,o),
(328,-116,cs),
(327,-118,o),
(327,-127,o),
(327,-129,cs),
(327,-130,o),
(326,-131,o),
(325,-131,cs),
(325,-131,o),
(318,-131,o),
(317,-131,cs),
(298,-131,o),
(277,-133,o),
(258,-133,cs),
(258,-133,o),
(256,-133,o),
(255,-133,cs),
(250,-133,o),
(246,-132,o),
(241,-132,cs),
(241,-132,o),
(240,-132,o),
(240,-132,c),
(239,-132,o),
(225,-133,o),
(224,-133,cs),
(222,-133,o),
(203,-132,o),
(201,-132,cs),
(200,-132,o),
(194,-132,o),
(192,-132,cs),
(190,-132,o),
(184,-132,o),
(184,-132,c),
(182,-132,o),
(173,-133,o),
(171,-133,cs),
(171,-133,o),
(168,-133,o),
(167,-132,c),
(165,-132,o),
(153,-133,o),
(150,-133,cs),
(149,-133,o),
(142,-133,o),
(140,-133,cs),
(134,-133,o),
(129,-134,o),
(123,-132,c),
(49,-132,l),
(48,-132,o),
(43,-131,o),
(42,-131,cs),
(42,-131,o),
(41,-129,o),
(41,-129,c),
(41,-127,o),
(40,-116,o),
(39,-114,cs),
(39,-112,o),
(36,-109,o),
(34,-109,cs),
(30,-109,o),
(28,-114,o),
(28,-116,cs),
(28,-116,o),
(28,-118,o),
(28,-118,c),
(28,-120,o),
(30,-129,o),
(30,-131,cs),
(30,-136,o),
(30,-160,o),
(30,-166,cs),
(30,-166,o),
(32,-168,o),
(32,-168,c),
(32,-168,o),
(33,-168,o),
(34,-168,cs),
(37,-168,o),
(39,-166,o),
(39,-163,cs),
(39,-160,o),
(41,-147,o),
(41,-144,c),
(42,-143,l),
(119,-143,ls),
(121,-143,o),
(132,-141,o),
(134,-141,cs),
(134,-141,o),
(135,-141,o),
(136,-141,cs),
(155,-141,o),
(173,-143,o),
(192,-143,cs),
(198,-143,o),
(215,-143,o),
(216,-143,cs),
(218,-143,o),
(233,-141,o),
(235,-141,cs),
(238,-141,o),
(260,-143,o),
(263,-143,cs),
(273,-143,o),
(316,-143,o),
(325,-143,c)
);
},
{
closed = 1;
nodes = (
(166,-112,o),
(180,-117,o),
(187,-117,cs),
(200,-117,o),
(212,-107,o),
(212,-94,cs),
(212,-84,o),
(204,-83,o),
(204,-77,cs),
(204,-73,o),
(206,-69,o),
(206,-64,cs),
(206,-55,o),
(195,-48,o),
(187,-48,cs),
(180,-48,o),
(167,-57,o),
(167,-65,cs),
(167,-65,o),
(168,-68,o),
(169,-69,c),
(178,-67,o),
(180,-60,o),
(189,-60,cs),
(190,-60,o),
(192,-60,o),
(193,-60,cs),
(195,-62,o),
(194,-65,o),
(194,-67,cs),
(194,-69,o),
(195,-70,o),
(193,-71,cs),
(188,-74,o),
(177,-75,o),
(177,-82,cs),
(177,-88,o),
(192,-86,o),
(196,-89,cs),
(197,-90,o),
(200,-92,o),
(200,-95,cs),
(200,-101,o),
(195,-106,o),
(189,-106,cs),
(182,-106,o),
(177,-100,o),
(173,-96,c),
(172,-96,o),
(169,-96,o),
(169,-97,cs),
(169,-97,o),
(167,-101,o),
(166,-102,c),
(166,-102,o),
(166,-103,o),
(166,-103,c)
);
}
);
userData = {
com.typemytype.robofont.mark = (
0.939,
1,
0.6,
1
);
};
width = 418;
},
{
anchors = (
{
name = _measure;
}
);
color = 0;
layerId = "7B371D60-13E0-44E7-A998-8DAF0ECD409E";
shapes = (
{
closed = 1;
nodes = (
(332,-146,o),
(322,-170,o),
(335,-170,cs),
(335,-170,o),
(336,-170,o),
(336,-170,c),
(337,-170,o),
(337,-168,o),
(337,-167,cs),
(337,-164,o),
(339,-150,o),
(339,-147,cs),
(339,-146,o),
(339,-136,o),
(339,-132,cs),
(339,-130,o),
(339,-119,o),
(339,-117,cs),
(338,-114,o),
(336,-110,o),
(333,-110,cs),
(332,-110,o),
(331,-110,o),
(331,-110,c),
(330,-111,o),
(328,-114,o),
(328,-116,cs),
(327,-118,o),
(327,-127,o),
(327,-129,cs),
(327,-130,o),
(326,-131,o),
(325,-131,cs),
(325,-131,o),
(318,-131,o),
(317,-131,cs),
(298,-131,o),
(277,-133,o),
(258,-133,cs),
(258,-133,o),
(256,-133,o),
(255,-133,cs),
(250,-133,o),
(246,-132,o),
(241,-132,cs),
(241,-132,o),
(240,-132,o),
(240,-132,c),
(239,-132,o),
(225,-133,o),
(224,-133,cs),
(222,-133,o),
(203,-132,o),
(201,-132,cs),
(200,-132,o),
(194,-132,o),
(192,-132,cs),
(190,-132,o),
(184,-132,o),
(184,-132,c),
(182,-132,o),
(173,-133,o),
(171,-133,cs),
(171,-133,o),
(168,-133,o),
(167,-132,c),
(165,-132,o),
(153,-133,o),
(150,-133,cs),
(149,-133,o),
(142,-133,o),
(140,-133,cs),
(134,-133,o),
(129,-134,o),
(123,-132,c),
(49,-132,l),
(48,-132,o),
(43,-131,o),
(42,-131,cs),
(42,-131,o),
(41,-129,o),
(41,-129,c),
(41,-127,o),
(40,-116,o),
(39,-114,cs),
(39,-112,o),
(36,-109,o),
(34,-109,cs),
(30,-109,o),
(28,-114,o),
(28,-116,cs),
(28,-116,o),
(28,-118,o),
(28,-118,c),
(28,-120,o),
(30,-129,o),
(30,-131,cs),
(30,-136,o),
(30,-160,o),
(30,-166,cs),
(30,-166,o),
(32,-168,o),
(32,-168,c),
(32,-168,o),
(33,-168,o),
(34,-168,cs),
(37,-168,o),
(39,-166,o),
(39,-163,cs),
(39,-160,o),
(41,-147,o),
(41,-144,c),
(42,-143,l),
(119,-143,ls),
(121,-143,o),
(132,-141,o),
(134,-141,cs),
(134,-141,o),
(135,-141,o),
(136,-141,cs),
(155,-141,o),
(173,-143,o),
(192,-143,cs),
(198,-143,o),
(215,-143,o),
(216,-143,cs),
(218,-143,o),
(233,-141,o),
(235,-141,cs),
(238,-141,o),
(260,-143,o),
(263,-143,cs),
(273,-143,o),
(316,-143,o),
(325,-143,c)
);
},
{
closed = 1;
nodes = (
(166,-112,o),
(180,-117,o),
(187,-117,cs),
(200,-117,o),
(212,-107,o),
(212,-94,cs),
(212,-84,o),
(204,-83,o),
(204,-77,cs),
(204,-73,o),
(206,-69,o),
(206,-64,cs),
(206,-55,o),
(195,-48,o),
(187,-48,cs),
(180,-48,o),
(167,-57,o),
(167,-65,cs),
(167,-65,o),
(168,-68,o),
(169,-69,c),
(178,-67,o),
(180,-60,o),
(189,-60,cs),
(190,-60,o),
(192,-60,o),
(193,-60,cs),
(195,-62,o),
(194,-65,o),
(194,-67,cs),
(194,-69,o),
(195,-70,o),
(193,-71,cs),
(188,-74,o),
(177,-75,o),
(177,-82,cs),
(177,-88,o),
(192,-86,o),
(196,-89,cs),
(197,-90,o),
(200,-92,o),
(200,-95,cs),
(200,-101,o),
(195,-106,o),
(189,-106,cs),
(182,-106,o),
(177,-100,o),
(173,-96,c),
(172,-96,o),
(169,-96,o),
(169,-97,cs),
(169,-97,o),
(167,-101,o),
(166,-102,c),
(166,-102,o),
(166,-103,o),
(166,-103,c)
);
}
);
userData = {
com.typemytype.robofont.mark = (
0.939,
1,
0.6,
1
);
};
width = 418;
}
);
},
